<ttFont>
    <TTGlyph name="A" xMin="-1" yMin="-10" xMax="442" yMax="710">
      <contour>
        <pt x="139" y="-6" on="1"/>
        <pt x="2" y="-3" on="1"/>
        <pt x="0" y="-1" on="0"/>
        <pt x="0" y="2" on="0"/>
        <pt x="-1" y="3" on="1"/>
        <pt x="2" y="15" on="0"/>
        <pt x="9" y="64" on="0"/>
        <pt x="10" y="70" on="1"/>
        <pt x="67" y="431" on="0"/>
        <pt x="152" y="701" on="1"/>
        <pt x="153" y="702" on="0"/>
        <pt x="156" y="704" on="0"/>
        <pt x="157" y="705" on="1"/>
        <pt x="162" y="705" on="1"/>
        <pt x="166" y="707" on="0"/>
        <pt x="270" y="709" on="0"/>
        <pt x="280" y="710" on="1"/>
        <pt x="290" y="698" on="0"/>
        <pt x="298" y="658" on="1"/>
        <pt x="307" y="614" on="1"/>
        <pt x="347" y="440" on="0"/>
        <pt x="442" y="3" on="1"/>
        <pt x="442" y="0" on="1"/>
        <pt x="437" y="-10" on="0"/>
        <pt x="309" y="-10" on="0"/>
        <pt x="298" y="2" on="1"/>
        <pt x="289" y="25" on="0"/>
        <pt x="265" y="136" on="0"/>
        <pt x="252" y="162" on="1"/>
        <pt x="218" y="164" on="1"/>
        <pt x="214" y="162" on="0"/>
        <pt x="208" y="162" on="1"/>
        <pt x="196" y="163" on="1"/>
        <pt x="187" y="142" on="0"/>
        <pt x="170" y="24" on="0"/>
        <pt x="153" y="-2" on="1"/>
        <pt x="151" y="-3" on="1"/>
        <pt x="150" y="-4" on="0"/>
        <pt x="149" y="-4" on="1"/>
      </contour>
      <contour>
        <pt x="314" y="8" on="0"/>
        <pt x="348" y="3" on="0"/>
        <pt x="372" y="0" on="0"/>
        <pt x="410" y="0" on="0"/>
        <pt x="431" y="4" on="1"/>
        <pt x="410" y="99" on="0"/>
        <pt x="320" y="505" on="0"/>
        <pt x="295" y="621" on="0"/>
        <pt x="278" y="683" on="0"/>
        <pt x="276" y="700" on="1"/>
        <pt x="229" y="695" on="0"/>
        <pt x="161" y="695" on="1"/>
        <pt x="71" y="409" on="0"/>
        <pt x="20" y="67" on="1"/>
        <pt x="12" y="14" on="0"/>
        <pt x="10" y="6" on="1"/>
        <pt x="76" y="3" on="0"/>
        <pt x="135" y="3" on="0"/>
        <pt x="145" y="5" on="1"/>
        <pt x="160" y="29" on="0"/>
        <pt x="170" y="88" on="1"/>
        <pt x="182" y="168" on="0"/>
        <pt x="193" y="173" on="1"/>
        <pt x="214" y="173" on="1"/>
        <pt x="217" y="175" on="0"/>
        <pt x="246" y="175" on="0"/>
        <pt x="260" y="169" on="1"/>
        <pt x="273" y="141" on="0"/>
        <pt x="297" y="30" on="0"/>
        <pt x="305" y="9" on="1"/>
      </contour>
      <contour>
        <pt x="260" y="281" on="1"/>
        <pt x="200" y="280" on="1"/>
        <pt x="188" y="280" on="0"/>
        <pt x="181" y="287" on="1"/>
        <pt x="200" y="500" on="0"/>
        <pt x="220" y="500" on="1"/>
        <pt x="224" y="500" on="1"/>
        <pt x="244" y="475" on="0"/>
        <pt x="253" y="407" on="1"/>
        <pt x="256" y="383" on="0"/>
        <pt x="263" y="299" on="0"/>
        <pt x="265" y="286" on="1"/>
      </contour>
      <contour>
        <pt x="191" y="290" on="1"/>
        <pt x="197" y="289" on="0"/>
        <pt x="224" y="289" on="0"/>
        <pt x="254" y="291" on="1"/>
        <pt x="242" y="392" on="0"/>
        <pt x="233" y="447" on="0"/>
        <pt x="232" y="457" on="1"/>
        <pt x="228" y="482" on="0"/>
        <pt x="222" y="488" on="1"/>
        <pt x="204" y="433" on="0"/>
        <pt x="192" y="300" on="0"/>
      </contour>
    </TTGlyph>
    <TTGlyph name="AE" xMin="-3" yMin="-5" xMax="704" yMax="706">
      <contour>
        <pt x="538" y="145" on="1"/>
        <pt x="646" y="146" on="1"/>
        <pt x="698" y="146" on="0"/>
        <pt x="703" y="137" on="1"/>
        <pt x="703" y="134" on="1"/>
        <pt x="704" y="108" on="1"/>
        <pt x="704" y="97" on="0"/>
        <pt x="704" y="86" on="1"/>
        <pt x="704" y="13" on="0"/>
        <pt x="690" y="-1" on="1"/>
        <pt x="431" y="-4" on="1"/>
        <pt x="347" y="-4" on="0"/>
        <pt x="280" y="0" on="1"/>
        <pt x="273" y="4" on="0"/>
        <pt x="248" y="92" on="0"/>
        <pt x="247" y="111" on="1"/>
        <pt x="240" y="110" on="0"/>
        <pt x="212" y="110" on="0"/>
        <pt x="201" y="113" on="1"/>
        <pt x="184" y="113" on="1"/>
        <pt x="180" y="103" on="0"/>
        <pt x="173" y="75" on="1"/>
        <pt x="155" y="3" on="0"/>
        <pt x="151" y="-1" on="1"/>
        <pt x="149" y="-1" on="1"/>
        <pt x="146" y="-3" on="1"/>
        <pt x="99" y="-5" on="0"/>
        <pt x="4" y="-5" on="1"/>
        <pt x="3" y="-4" on="0"/>
        <pt x="-3" y="0" on="1"/>
        <pt x="13" y="109" on="0"/>
        <pt x="45" y="262" on="0"/>
        <pt x="59" y="329" on="0"/>
        <pt x="94" y="474" on="0"/>
        <pt x="98" y="493" on="1"/>
        <pt x="112" y="550" on="0"/>
        <pt x="148" y="694" on="1"/>
        <pt x="153" y="698" on="1"/>
        <pt x="296" y="706" on="0"/>
        <pt x="695" y="706" on="1"/>
        <pt x="700" y="701" on="1"/>
        <pt x="700" y="555" on="1"/>
        <pt x="692" y="541" on="0"/>
        <pt x="618" y="541" on="1"/>
        <pt x="505" y="542" on="1"/>
        <pt x="465" y="542" on="0"/>
        <pt x="433" y="538" on="1"/>
        <pt x="428" y="466" on="1"/>
        <pt x="428" y="443" on="0"/>
        <pt x="434" y="429" on="1"/>
        <pt x="450" y="426" on="0"/>
        <pt x="478" y="426" on="1"/>
        <pt x="511" y="426" on="1"/>
        <pt x="536" y="426" on="0"/>
        <pt x="553" y="424" on="1"/>
        <pt x="561" y="407" on="0"/>
        <pt x="561" y="373" on="1"/>
        <pt x="559" y="280" on="1"/>
        <pt x="554" y="269" on="0"/>
        <pt x="514" y="269" on="1"/>
        <pt x="467" y="271" on="1"/>
        <pt x="462" y="270" on="0"/>
        <pt x="442" y="270" on="0"/>
        <pt x="438" y="268" on="1"/>
        <pt x="432" y="236" on="0"/>
        <pt x="432" y="169" on="0"/>
        <pt x="442" y="148" on="1"/>
        <pt x="474" y="145" on="0"/>
      </contour>
      <contour>
        <pt x="480" y="552" on="1"/>
        <pt x="597" y="550" on="1"/>
        <pt x="649" y="550" on="0"/>
        <pt x="690" y="558" on="1"/>
        <pt x="690" y="696" on="1"/>
        <pt x="299" y="696" on="0"/>
        <pt x="157" y="688" on="1"/>
        <pt x="155" y="681" on="0"/>
        <pt x="122" y="548" on="0"/>
        <pt x="115" y="523" on="0"/>
        <pt x="86" y="406" on="0"/>
        <pt x="77" y="364" on="0"/>
        <pt x="53" y="262" on="0"/>
        <pt x="42" y="204" on="0"/>
        <pt x="34" y="161" on="1"/>
        <pt x="23" y="110" on="0"/>
        <pt x="7" y="6" on="1"/>
        <pt x="22" y="10" on="0"/>
        <pt x="55" y="10" on="0"/>
        <pt x="143" y="6" on="1"/>
        <pt x="161" y="90" on="0"/>
        <pt x="177" y="120" on="1"/>
        <pt x="181" y="124" on="0"/>
        <pt x="198" y="124" on="0"/>
        <pt x="206" y="122" on="1"/>
        <pt x="223" y="122" on="1"/>
        <pt x="250" y="122" on="0"/>
        <pt x="257" y="116" on="1"/>
        <pt x="257" y="96" on="0"/>
        <pt x="282" y="24" on="0"/>
        <pt x="284" y="10" on="1"/>
        <pt x="353" y="6" on="0"/>
        <pt x="441" y="6" on="0"/>
        <pt x="687" y="9" on="1"/>
        <pt x="694" y="50" on="0"/>
        <pt x="694" y="120" on="0"/>
        <pt x="693" y="132" on="1"/>
        <pt x="608" y="138" on="0"/>
        <pt x="439" y="138" on="1"/>
        <pt x="423" y="145" on="0"/>
        <pt x="423" y="194" on="1"/>
        <pt x="423" y="198" on="0"/>
        <pt x="428" y="271" on="0"/>
        <pt x="433" y="276" on="1"/>
        <pt x="441" y="282" on="0"/>
        <pt x="485" y="282" on="1"/>
        <pt x="520" y="281" on="1"/>
        <pt x="549" y="284" on="1"/>
        <pt x="551" y="366" on="1"/>
        <pt x="551" y="390" on="0"/>
        <pt x="548" y="415" on="1"/>
        <pt x="537" y="417" on="0"/>
        <pt x="514" y="417" on="1"/>
        <pt x="472" y="416" on="1"/>
        <pt x="450" y="416" on="0"/>
        <pt x="431" y="420" on="1"/>
        <pt x="418" y="426" on="0"/>
        <pt x="418" y="468" on="1"/>
        <pt x="423" y="541" on="1"/>
        <pt x="434" y="552" on="0"/>
      </contour>
      <contour>
        <pt x="257" y="283" on="1"/>
        <pt x="248" y="276" on="0"/>
        <pt x="190" y="276" on="0"/>
        <pt x="181" y="285" on="1"/>
        <pt x="181" y="346" on="0"/>
        <pt x="213" y="420" on="1"/>
        <pt x="213" y="421" on="1"/>
        <pt x="213" y="422" on="0"/>
        <pt x="214" y="423" on="1"/>
        <pt x="223" y="423" on="1"/>
        <pt x="249" y="342" on="0"/>
        <pt x="259" y="289" on="1"/>
      </contour>
      <contour>
        <pt x="201" y="291" on="1"/>
        <pt x="244" y="287" on="1"/>
        <pt x="246" y="287" on="0"/>
        <pt x="248" y="289" on="1"/>
        <pt x="242" y="326" on="0"/>
        <pt x="217" y="406" on="1"/>
        <pt x="195" y="349" on="0"/>
        <pt x="191" y="290" on="1"/>
        <pt x="194" y="291" on="0"/>
      </contour>
    </TTGlyph>
    <TTGlyph name="Aacute" xMin="-1" yMin="-10" xMax="442" yMax="921">
      <contour>
        <pt x="139" y="-6" on="1"/>
        <pt x="2" y="-3" on="1"/>
        <pt x="0" y="-1" on="0"/>
        <pt x="0" y="2" on="0"/>
        <pt x="-1" y="3" on="1"/>
        <pt x="-1" y="10" on="0"/>
        <pt x="38" y="214" on="0"/>
        <pt x="49" y="272" on="0"/>
        <pt x="72" y="391" on="0"/>
        <pt x="89" y="465" on="0"/>
        <pt x="101" y="516" on="1"/>
        <pt x="123" y="611" on="0"/>
        <pt x="152" y="701" on="1"/>
        <pt x="153" y="702" on="0"/>
        <pt x="156" y="704" on="0"/>
        <pt x="157" y="705" on="1"/>
        <pt x="162" y="705" on="1"/>
        <pt x="166" y="707" on="0"/>
        <pt x="270" y="709" on="0"/>
        <pt x="280" y="710" on="1"/>
        <pt x="290" y="699" on="0"/>
        <pt x="310" y="593" on="0"/>
        <pt x="360" y="385" on="0"/>
        <pt x="417" y="119" on="0"/>
        <pt x="442" y="3" on="1"/>
        <pt x="442" y="0" on="1"/>
        <pt x="437" y="-10" on="0"/>
        <pt x="309" y="-10" on="0"/>
        <pt x="298" y="2" on="1"/>
        <pt x="289" y="25" on="0"/>
        <pt x="265" y="136" on="0"/>
        <pt x="252" y="162" on="1"/>
        <pt x="252" y="164" on="0"/>
        <pt x="230" y="163" on="1"/>
        <pt x="208" y="162" on="1"/>
        <pt x="196" y="163" on="1"/>
        <pt x="187" y="142" on="0"/>
        <pt x="170" y="24" on="0"/>
        <pt x="153" y="-2" on="1"/>
        <pt x="151" y="-3" on="1"/>
        <pt x="150" y="-4" on="0"/>
        <pt x="149" y="-4" on="1"/>
      </contour>
      <contour>
        <pt x="314" y="8" on="0"/>
        <pt x="348" y="3" on="0"/>
        <pt x="372" y="0" on="0"/>
        <pt x="410" y="0" on="0"/>
        <pt x="431" y="4" on="1"/>
        <pt x="413" y="87" on="0"/>
        <pt x="314" y="527" on="0"/>
        <pt x="288" y="652" on="0"/>
        <pt x="277" y="690" on="0"/>
        <pt x="276" y="700" on="1"/>
        <pt x="229" y="695" on="0"/>
        <pt x="161" y="695" on="1"/>
        <pt x="103" y="510" on="0"/>
        <pt x="38" y="157" on="1"/>
        <pt x="21" y="68" on="0"/>
        <pt x="9" y="7" on="0"/>
        <pt x="9" y="6" on="1"/>
        <pt x="72" y="3" on="0"/>
        <pt x="134" y="3" on="0"/>
        <pt x="145" y="5" on="1"/>
        <pt x="160" y="29" on="0"/>
        <pt x="170" y="88" on="1"/>
        <pt x="182" y="168" on="0"/>
        <pt x="193" y="173" on="1"/>
        <pt x="226" y="175" on="1"/>
        <pt x="246" y="175" on="0"/>
        <pt x="260" y="169" on="1"/>
        <pt x="273" y="141" on="0"/>
        <pt x="297" y="30" on="0"/>
        <pt x="305" y="9" on="1"/>
      </contour>
      <contour>
        <pt x="271" y="748" on="1"/>
        <pt x="264" y="741" on="0"/>
        <pt x="138" y="741" on="0"/>
        <pt x="129" y="750" on="1"/>
        <pt x="129" y="758" on="1"/>
        <pt x="157" y="782" on="0"/>
        <pt x="264" y="895" on="0"/>
        <pt x="296" y="921" on="1"/>
        <pt x="315" y="911" on="0"/>
        <pt x="367" y="855" on="0"/>
        <pt x="372" y="850" on="1"/>
        <pt x="372" y="844" on="1"/>
        <pt x="364" y="836" on="0"/>
        <pt x="339" y="816" on="1"/>
        <pt x="280" y="767" on="0"/>
      </contour>
      <contour>
        <pt x="142" y="756" on="1"/>
        <pt x="175" y="750" on="0"/>
        <pt x="242" y="750" on="0"/>
        <pt x="262" y="754" on="1"/>
        <pt x="272" y="773" on="0"/>
        <pt x="352" y="838" on="0"/>
        <pt x="361" y="847" on="1"/>
        <pt x="319" y="889" on="0"/>
        <pt x="299" y="910" on="1"/>
        <pt x="267" y="884" on="0"/>
        <pt x="161" y="774" on="0"/>
      </contour>
      <contour>
        <pt x="260" y="281" on="1"/>
        <pt x="200" y="280" on="1"/>
        <pt x="188" y="280" on="0"/>
        <pt x="181" y="287" on="1"/>
        <pt x="200" y="500" on="0"/>
        <pt x="220" y="500" on="1"/>
        <pt x="224" y="500" on="1"/>
        <pt x="244" y="475" on="0"/>
        <pt x="253" y="407" on="1"/>
        <pt x="256" y="383" on="0"/>
        <pt x="263" y="299" on="0"/>
        <pt x="265" y="286" on="1"/>
      </contour>
      <contour>
        <pt x="191" y="290" on="1"/>
        <pt x="197" y="289" on="0"/>
        <pt x="224" y="289" on="0"/>
        <pt x="254" y="291" on="1"/>
        <pt x="242" y="392" on="0"/>
        <pt x="233" y="447" on="0"/>
        <pt x="232" y="457" on="1"/>
        <pt x="228" y="482" on="0"/>
        <pt x="222" y="488" on="1"/>
        <pt x="204" y="433" on="0"/>
        <pt x="192" y="300" on="0"/>
      </contour>
    </TTGlyph>
    <TTGlyph name="Acircumflex" xMin="-1" yMin="-10" xMax="442" yMax="922">
      <contour>
        <pt x="139" y="-6" on="1"/>
        <pt x="2" y="-3" on="1"/>
        <pt x="0" y="-1" on="0"/>
        <pt x="0" y="2" on="0"/>
        <pt x="-1" y="3" on="1"/>
        <pt x="2" y="15" on="0"/>
        <pt x="9" y="64" on="0"/>
        <pt x="10" y="70" on="1"/>
        <pt x="67" y="431" on="0"/>
        <pt x="152" y="701" on="1"/>
        <pt x="153" y="702" on="0"/>
        <pt x="156" y="704" on="0"/>
        <pt x="157" y="705" on="1"/>
        <pt x="162" y="705" on="1"/>
        <pt x="166" y="707" on="0"/>
        <pt x="270" y="709" on="0"/>
        <pt x="280" y="710" on="1"/>
        <pt x="290" y="698" on="0"/>
        <pt x="298" y="658" on="1"/>
        <pt x="307" y="614" on="1"/>
        <pt x="347" y="440" on="0"/>
        <pt x="442" y="3" on="1"/>
        <pt x="442" y="0" on="1"/>
        <pt x="437" y="-10" on="0"/>
        <pt x="309" y="-10" on="0"/>
        <pt x="298" y="2" on="1"/>
        <pt x="289" y="25" on="0"/>
        <pt x="265" y="136" on="0"/>
        <pt x="252" y="162" on="1"/>
        <pt x="252" y="164" on="0"/>
        <pt x="230" y="163" on="1"/>
        <pt x="208" y="162" on="1"/>
        <pt x="196" y="163" on="1"/>
        <pt x="187" y="142" on="0"/>
        <pt x="170" y="24" on="0"/>
        <pt x="153" y="-2" on="1"/>
        <pt x="151" y="-3" on="1"/>
        <pt x="150" y="-4" on="0"/>
        <pt x="149" y="-4" on="1"/>
      </contour>
      <contour>
        <pt x="314" y="8" on="0"/>
        <pt x="348" y="3" on="0"/>
        <pt x="372" y="0" on="0"/>
        <pt x="410" y="0" on="0"/>
        <pt x="431" y="4" on="1"/>
        <pt x="410" y="99" on="0"/>
        <pt x="320" y="505" on="0"/>
        <pt x="295" y="621" on="0"/>
        <pt x="278" y="683" on="0"/>
        <pt x="276" y="700" on="1"/>
        <pt x="229" y="695" on="0"/>
        <pt x="161" y="695" on="1"/>
        <pt x="71" y="409" on="0"/>
        <pt x="20" y="67" on="1"/>
        <pt x="12" y="14" on="0"/>
        <pt x="10" y="6" on="1"/>
        <pt x="76" y="3" on="0"/>
        <pt x="135" y="3" on="0"/>
        <pt x="145" y="5" on="1"/>
        <pt x="160" y="29" on="0"/>
        <pt x="170" y="88" on="1"/>
        <pt x="182" y="168" on="0"/>
        <pt x="193" y="173" on="1"/>
        <pt x="226" y="175" on="1"/>
        <pt x="246" y="175" on="0"/>
        <pt x="260" y="169" on="1"/>
        <pt x="273" y="141" on="0"/>
        <pt x="297" y="30" on="0"/>
        <pt x="305" y="9" on="1"/>
      </contour>
      <contour>
        <pt x="225" y="921" on="1"/>
        <pt x="388" y="759" on="1"/>
        <pt x="384" y="751" on="1"/>
        <pt x="373" y="751" on="0"/>
        <pt x="326" y="742" on="0"/>
        <pt x="304" y="742" on="1"/>
        <pt x="248" y="742" on="0"/>
        <pt x="226" y="786" on="1"/>
        <pt x="218" y="794" on="1"/>
        <pt x="205" y="784" on="0"/>
        <pt x="180" y="755" on="0"/>
        <pt x="157" y="744" on="0"/>
        <pt x="92" y="744" on="0"/>
        <pt x="59" y="750" on="1"/>
        <pt x="56" y="759" on="1"/>
        <pt x="92" y="806" on="0"/>
        <pt x="212" y="917" on="0"/>
        <pt x="218" y="922" on="1"/>
        <pt x="220" y="921" on="0"/>
      </contour>
      <contour>
        <pt x="269" y="756" on="1"/>
        <pt x="309" y="754" on="0"/>
        <pt x="336" y="754" on="0"/>
        <pt x="364" y="759" on="0"/>
        <pt x="372" y="760" on="1"/>
        <pt x="221" y="911" on="1"/>
        <pt x="182" y="875" on="1"/>
        <pt x="101" y="800" on="0"/>
        <pt x="68" y="759" on="1"/>
        <pt x="100" y="755" on="0"/>
        <pt x="161" y="755" on="0"/>
        <pt x="185" y="770" on="0"/>
        <pt x="205" y="797" on="0"/>
        <pt x="215" y="804" on="1"/>
        <pt x="221" y="804" on="1"/>
        <pt x="230" y="798" on="0"/>
        <pt x="257" y="765" on="0"/>
        <pt x="260" y="762" on="1"/>
      </contour>
      <contour>
        <pt x="260" y="281" on="1"/>
        <pt x="200" y="280" on="1"/>
        <pt x="188" y="280" on="0"/>
        <pt x="181" y="287" on="1"/>
        <pt x="200" y="500" on="0"/>
        <pt x="220" y="500" on="1"/>
        <pt x="224" y="500" on="1"/>
        <pt x="244" y="475" on="0"/>
        <pt x="253" y="407" on="1"/>
        <pt x="256" y="383" on="0"/>
        <pt x="263" y="299" on="0"/>
        <pt x="265" y="286" on="1"/>
      </contour>
      <contour>
        <pt x="191" y="290" on="1"/>
        <pt x="197" y="289" on="0"/>
        <pt x="224" y="289" on="0"/>
        <pt x="254" y="291" on="1"/>
        <pt x="242" y="392" on="0"/>
        <pt x="233" y="447" on="0"/>
        <pt x="232" y="457" on="1"/>
        <pt x="228" y="482" on="0"/>
        <pt x="222" y="488" on="1"/>
        <pt x="204" y="433" on="0"/>
        <pt x="192" y="300" on="0"/>
      </contour>
    </TTGlyph>
    <TTGlyph name="Adieresis" xMin="-1" yMin="-10" xMax="442" yMax="874">
      <contour>
        <pt x="139" y="-6" on="1"/>
        <pt x="2" y="-3" on="1"/>
        <pt x="0" y="-1" on="0"/>
        <pt x="0" y="2" on="0"/>
        <pt x="-1" y="3" on="1"/>
        <pt x="2" y="15" on="0"/>
        <pt x="9" y="64" on="0"/>
        <pt x="10" y="70" on="1"/>
        <pt x="67" y="431" on="0"/>
        <pt x="152" y="701" on="1"/>
        <pt x="153" y="702" on="0"/>
        <pt x="156" y="704" on="0"/>
        <pt x="157" y="705" on="1"/>
        <pt x="162" y="705" on="1"/>
        <pt x="166" y="707" on="0"/>
        <pt x="270" y="709" on="0"/>
        <pt x="280" y="710" on="1"/>
        <pt x="290" y="698" on="0"/>
        <pt x="298" y="658" on="1"/>
        <pt x="307" y="614" on="1"/>
        <pt x="347" y="440" on="0"/>
        <pt x="442" y="3" on="1"/>
        <pt x="442" y="0" on="1"/>
        <pt x="437" y="-10" on="0"/>
        <pt x="309" y="-10" on="0"/>
        <pt x="298" y="2" on="1"/>
        <pt x="289" y="25" on="0"/>
        <pt x="265" y="136" on="0"/>
        <pt x="252" y="162" on="1"/>
        <pt x="218" y="164" on="1"/>
        <pt x="214" y="162" on="0"/>
        <pt x="208" y="162" on="1"/>
        <pt x="196" y="163" on="1"/>
        <pt x="187" y="142" on="0"/>
        <pt x="170" y="24" on="0"/>
        <pt x="153" y="-2" on="1"/>
        <pt x="151" y="-3" on="1"/>
        <pt x="150" y="-4" on="0"/>
        <pt x="149" y="-4" on="1"/>
      </contour>
      <contour>
        <pt x="314" y="8" on="0"/>
        <pt x="348" y="3" on="0"/>
        <pt x="372" y="0" on="0"/>
        <pt x="410" y="0" on="0"/>
        <pt x="431" y="4" on="1"/>
        <pt x="410" y="99" on="0"/>
        <pt x="320" y="505" on="0"/>
        <pt x="295" y="621" on="0"/>
        <pt x="278" y="683" on="0"/>
        <pt x="276" y="700" on="1"/>
        <pt x="229" y="695" on="0"/>
        <pt x="161" y="695" on="1"/>
        <pt x="71" y="409" on="0"/>
        <pt x="20" y="67" on="1"/>
        <pt x="12" y="14" on="0"/>
        <pt x="10" y="6" on="1"/>
        <pt x="76" y="3" on="0"/>
        <pt x="135" y="3" on="0"/>
        <pt x="145" y="5" on="1"/>
        <pt x="160" y="29" on="0"/>
        <pt x="170" y="88" on="1"/>
        <pt x="182" y="168" on="0"/>
        <pt x="193" y="173" on="1"/>
        <pt x="214" y="173" on="1"/>
        <pt x="217" y="175" on="0"/>
        <pt x="246" y="175" on="0"/>
        <pt x="260" y="169" on="1"/>
        <pt x="273" y="141" on="0"/>
        <pt x="297" y="30" on="0"/>
        <pt x="305" y="9" on="1"/>
      </contour>
      <contour>
        <pt x="345" y="753" on="1"/>
        <pt x="246" y="754" on="1"/>
        <pt x="243" y="754" on="1"/>
        <pt x="232" y="760" on="0"/>
        <pt x="232" y="792" on="1"/>
        <pt x="237" y="859" on="1"/>
        <pt x="240" y="865" on="1"/>
        <pt x="262" y="874" on="0"/>
        <pt x="348" y="874" on="0"/>
        <pt x="356" y="859" on="1"/>
        <pt x="354" y="848" on="0"/>
        <pt x="352" y="767" on="0"/>
      </contour>
      <contour>
        <pt x="171" y="753" on="1"/>
        <pt x="72" y="754" on="1"/>
        <pt x="69" y="754" on="1"/>
        <pt x="58" y="760" on="0"/>
        <pt x="58" y="792" on="1"/>
        <pt x="63" y="859" on="1"/>
        <pt x="66" y="865" on="1"/>
        <pt x="88" y="874" on="0"/>
        <pt x="174" y="874" on="0"/>
        <pt x="182" y="859" on="1"/>
        <pt x="180" y="848" on="0"/>
        <pt x="178" y="767" on="0"/>
      </contour>
      <contour>
        <pt x="260" y="281" on="1"/>
        <pt x="200" y="280" on="1"/>
        <pt x="188" y="280" on="0"/>
        <pt x="181" y="287" on="1"/>
        <pt x="200" y="500" on="0"/>
        <pt x="220" y="500" on="1"/>
        <pt x="224" y="500" on="1"/>
        <pt x="244" y="475" on="0"/>
        <pt x="253" y="407" on="1"/>
        <pt x="256" y="383" on="0"/>
        <pt x="263" y="299" on="0"/>
        <pt x="265" y="286" on="1"/>
      </contour>
      <contour>
        <pt x="72" y="764" on="1"/>
        <pt x="166" y="763" on="1"/>
        <pt x="166" y="827" on="0"/>
        <pt x="171" y="858" on="1"/>
        <pt x="155" y="864" on="0"/>
        <pt x="110" y="864" on="0"/>
        <pt x="73" y="857" on="1"/>
        <pt x="68" y="790" on="1"/>
        <pt x="68" y="773" on="0"/>
      </contour>
      <contour>
        <pt x="246" y="764" on="1"/>
        <pt x="340" y="763" on="1"/>
        <pt x="340" y="827" on="0"/>
        <pt x="345" y="858" on="1"/>
        <pt x="329" y="864" on="0"/>
        <pt x="284" y="864" on="0"/>
        <pt x="247" y="857" on="1"/>
        <pt x="242" y="790" on="1"/>
        <pt x="242" y="773" on="0"/>
      </contour>
      <contour>
        <pt x="191" y="290" on="1"/>
        <pt x="197" y="289" on="0"/>
        <pt x="224" y="289" on="0"/>
        <pt x="254" y="291" on="1"/>
        <pt x="242" y="392" on="0"/>
        <pt x="233" y="447" on="0"/>
        <pt x="232" y="457" on="1"/>
        <pt x="228" y="482" on="0"/>
        <pt x="222" y="488" on="1"/>
        <pt x="204" y="433" on="0"/>
        <pt x="192" y="300" on="0"/>
      </contour>
    </TTGlyph>
    <TTGlyph name="Agrave" xMin="-1" yMin="-10" xMax="442" yMax="927">
      <contour>
        <pt x="139" y="-6" on="1"/>
        <pt x="2" y="-3" on="1"/>
        <pt x="0" y="-1" on="0"/>
        <pt x="0" y="2" on="0"/>
        <pt x="-1" y="3" on="1"/>
        <pt x="-1" y="10" on="0"/>
        <pt x="38" y="214" on="0"/>
        <pt x="49" y="272" on="0"/>
        <pt x="72" y="391" on="0"/>
        <pt x="89" y="465" on="0"/>
        <pt x="101" y="516" on="1"/>
        <pt x="123" y="611" on="0"/>
        <pt x="152" y="701" on="1"/>
        <pt x="153" y="702" on="0"/>
        <pt x="156" y="704" on="0"/>
        <pt x="157" y="705" on="1"/>
        <pt x="162" y="705" on="1"/>
        <pt x="166" y="707" on="0"/>
        <pt x="270" y="709" on="0"/>
        <pt x="280" y="710" on="1"/>
        <pt x="290" y="699" on="0"/>
        <pt x="310" y="593" on="0"/>
        <pt x="360" y="385" on="0"/>
        <pt x="417" y="119" on="0"/>
        <pt x="442" y="3" on="1"/>
        <pt x="442" y="0" on="1"/>
        <pt x="437" y="-10" on="0"/>
        <pt x="309" y="-10" on="0"/>
        <pt x="298" y="2" on="1"/>
        <pt x="289" y="25" on="0"/>
        <pt x="265" y="136" on="0"/>
        <pt x="252" y="162" on="1"/>
        <pt x="242" y="164" on="0"/>
        <pt x="206" y="162" on="0"/>
        <pt x="196" y="163" on="1"/>
        <pt x="187" y="142" on="0"/>
        <pt x="170" y="24" on="0"/>
        <pt x="153" y="-2" on="1"/>
        <pt x="151" y="-3" on="1"/>
        <pt x="150" y="-4" on="0"/>
        <pt x="149" y="-4" on="1"/>
      </contour>
      <contour>
        <pt x="314" y="8" on="0"/>
        <pt x="348" y="3" on="0"/>
        <pt x="372" y="0" on="0"/>
        <pt x="410" y="0" on="0"/>
        <pt x="431" y="4" on="1"/>
        <pt x="413" y="87" on="0"/>
        <pt x="314" y="527" on="0"/>
        <pt x="288" y="652" on="0"/>
        <pt x="277" y="690" on="0"/>
        <pt x="276" y="700" on="1"/>
        <pt x="229" y="695" on="0"/>
        <pt x="161" y="695" on="1"/>
        <pt x="103" y="510" on="0"/>
        <pt x="38" y="157" on="1"/>
        <pt x="21" y="68" on="0"/>
        <pt x="9" y="7" on="0"/>
        <pt x="9" y="6" on="1"/>
        <pt x="72" y="3" on="0"/>
        <pt x="134" y="3" on="0"/>
        <pt x="145" y="5" on="1"/>
        <pt x="160" y="29" on="0"/>
        <pt x="170" y="88" on="1"/>
        <pt x="182" y="168" on="0"/>
        <pt x="193" y="173" on="1"/>
        <pt x="260" y="169" on="1"/>
        <pt x="273" y="141" on="0"/>
        <pt x="297" y="30" on="0"/>
        <pt x="305" y="9" on="1"/>
      </contour>
      <contour>
        <pt x="293" y="750" on="1"/>
        <pt x="276" y="741" on="0"/>
        <pt x="152" y="741" on="0"/>
        <pt x="152" y="748" on="1"/>
        <pt x="146" y="760" on="0"/>
        <pt x="87" y="807" on="0"/>
        <pt x="46" y="841" on="0"/>
        <pt x="46" y="846" on="1"/>
        <pt x="46" y="847" on="0"/>
        <pt x="72" y="872" on="1"/>
        <pt x="117" y="917" on="0"/>
        <pt x="124" y="927" on="1"/>
        <pt x="170" y="892" on="0"/>
        <pt x="251" y="800" on="1"/>
        <pt x="283" y="765" on="0"/>
        <pt x="293" y="758" on="1"/>
      </contour>
      <contour>
        <pt x="159" y="754" on="1"/>
        <pt x="173" y="750" on="0"/>
        <pt x="255" y="750" on="0"/>
        <pt x="279" y="756" on="1"/>
        <pt x="266" y="767" on="0"/>
        <pt x="244" y="793" on="1"/>
        <pt x="164" y="879" on="0"/>
        <pt x="123" y="910" on="1"/>
        <pt x="60" y="847" on="1"/>
        <pt x="64" y="843" on="0"/>
        <pt x="90" y="821" on="1"/>
        <pt x="150" y="771" on="0"/>
      </contour>
      <contour>
        <pt x="260" y="281" on="1"/>
        <pt x="200" y="280" on="1"/>
        <pt x="188" y="280" on="0"/>
        <pt x="181" y="287" on="1"/>
        <pt x="200" y="500" on="0"/>
        <pt x="220" y="500" on="1"/>
        <pt x="224" y="500" on="1"/>
        <pt x="244" y="475" on="0"/>
        <pt x="253" y="407" on="1"/>
        <pt x="256" y="383" on="0"/>
        <pt x="263" y="299" on="0"/>
        <pt x="265" y="286" on="1"/>
      </contour>
      <contour>
        <pt x="191" y="290" on="1"/>
        <pt x="197" y="289" on="0"/>
        <pt x="224" y="289" on="0"/>
        <pt x="254" y="291" on="1"/>
        <pt x="242" y="392" on="0"/>
        <pt x="233" y="447" on="0"/>
        <pt x="232" y="457" on="1"/>
        <pt x="228" y="482" on="0"/>
        <pt x="222" y="488" on="1"/>
        <pt x="204" y="433" on="0"/>
        <pt x="192" y="300" on="0"/>
      </contour>
    </TTGlyph>
    <TTGlyph name="Aring" xMin="-1" yMin="-10" xMax="442" yMax="940">
      <contour>
        <pt x="139" y="-6" on="1"/>
        <pt x="2" y="-3" on="1"/>
        <pt x="0" y="-1" on="0"/>
        <pt x="0" y="2" on="0"/>
        <pt x="-1" y="3" on="1"/>
        <pt x="2" y="15" on="0"/>
        <pt x="9" y="64" on="0"/>
        <pt x="10" y="70" on="1"/>
        <pt x="67" y="431" on="0"/>
        <pt x="152" y="701" on="1"/>
        <pt x="153" y="702" on="0"/>
        <pt x="156" y="704" on="0"/>
        <pt x="157" y="705" on="1"/>
        <pt x="162" y="705" on="1"/>
        <pt x="166" y="707" on="0"/>
        <pt x="270" y="709" on="0"/>
        <pt x="280" y="710" on="1"/>
        <pt x="290" y="698" on="0"/>
        <pt x="298" y="658" on="1"/>
        <pt x="307" y="614" on="1"/>
        <pt x="347" y="440" on="0"/>
        <pt x="442" y="3" on="1"/>
        <pt x="442" y="0" on="1"/>
        <pt x="437" y="-10" on="0"/>
        <pt x="309" y="-10" on="0"/>
        <pt x="298" y="2" on="1"/>
        <pt x="289" y="25" on="0"/>
        <pt x="265" y="136" on="0"/>
        <pt x="252" y="162" on="1"/>
        <pt x="218" y="164" on="1"/>
        <pt x="214" y="162" on="0"/>
        <pt x="208" y="162" on="1"/>
        <pt x="196" y="163" on="1"/>
        <pt x="187" y="142" on="0"/>
        <pt x="170" y="24" on="0"/>
        <pt x="153" y="-2" on="1"/>
        <pt x="151" y="-3" on="1"/>
        <pt x="150" y="-4" on="0"/>
        <pt x="149" y="-4" on="1"/>
      </contour>
      <contour>
        <pt x="314" y="8" on="0"/>
        <pt x="348" y="3" on="0"/>
        <pt x="372" y="0" on="0"/>
        <pt x="410" y="0" on="0"/>
        <pt x="431" y="4" on="1"/>
        <pt x="410" y="99" on="0"/>
        <pt x="320" y="505" on="0"/>
        <pt x="295" y="621" on="0"/>
        <pt x="278" y="683" on="0"/>
        <pt x="276" y="700" on="1"/>
        <pt x="229" y="695" on="0"/>
        <pt x="161" y="695" on="1"/>
        <pt x="71" y="409" on="0"/>
        <pt x="20" y="67" on="1"/>
        <pt x="12" y="14" on="0"/>
        <pt x="10" y="6" on="1"/>
        <pt x="76" y="3" on="0"/>
        <pt x="135" y="3" on="0"/>
        <pt x="145" y="5" on="1"/>
        <pt x="160" y="29" on="0"/>
        <pt x="170" y="88" on="1"/>
        <pt x="182" y="168" on="0"/>
        <pt x="193" y="173" on="1"/>
        <pt x="214" y="173" on="1"/>
        <pt x="217" y="175" on="0"/>
        <pt x="246" y="175" on="0"/>
        <pt x="260" y="169" on="1"/>
        <pt x="273" y="141" on="0"/>
        <pt x="297" y="30" on="0"/>
        <pt x="305" y="9" on="1"/>
      </contour>
      <contour>
        <pt x="296" y="774" on="1"/>
        <pt x="277" y="745" on="0"/>
        <pt x="151" y="745" on="0"/>
        <pt x="119" y="787" on="0"/>
        <pt x="119" y="865" on="0"/>
        <pt x="123" y="891" on="0"/>
        <pt x="132" y="908" on="1"/>
        <pt x="148" y="940" on="0"/>
        <pt x="220" y="940" on="1"/>
        <pt x="272" y="940" on="0"/>
        <pt x="311" y="901" on="0"/>
        <pt x="311" y="819" on="0"/>
        <pt x="297" y="775" on="1"/>
      </contour>
      <contour>
        <pt x="287" y="778" on="1"/>
        <pt x="301" y="818" on="0"/>
        <pt x="301" y="902" on="0"/>
        <pt x="256" y="931" on="0"/>
        <pt x="166" y="931" on="0"/>
        <pt x="128" y="892" on="0"/>
        <pt x="128" y="786" on="0"/>
        <pt x="162" y="754" on="0"/>
        <pt x="271" y="754" on="0"/>
      </contour>
      <contour>
        <pt x="260" y="281" on="1"/>
        <pt x="200" y="280" on="1"/>
        <pt x="188" y="280" on="0"/>
        <pt x="181" y="287" on="1"/>
        <pt x="200" y="500" on="0"/>
        <pt x="220" y="500" on="1"/>
        <pt x="224" y="500" on="1"/>
        <pt x="244" y="475" on="0"/>
        <pt x="253" y="407" on="1"/>
        <pt x="256" y="383" on="0"/>
        <pt x="263" y="299" on="0"/>
        <pt x="265" y="286" on="1"/>
      </contour>
      <contour>
        <pt x="184" y="890" on="1"/>
        <pt x="200" y="897" on="0"/>
        <pt x="236" y="897" on="0"/>
        <pt x="267" y="875" on="0"/>
        <pt x="267" y="834" on="0"/>
        <pt x="264" y="812" on="0"/>
        <pt x="243" y="790" on="0"/>
        <pt x="185" y="790" on="0"/>
        <pt x="164" y="814" on="0"/>
        <pt x="164" y="874" on="0"/>
        <pt x="183" y="889" on="1"/>
      </contour>
      <contour>
        <pt x="191" y="290" on="1"/>
        <pt x="197" y="289" on="0"/>
        <pt x="224" y="289" on="0"/>
        <pt x="254" y="291" on="1"/>
        <pt x="242" y="392" on="0"/>
        <pt x="233" y="447" on="0"/>
        <pt x="232" y="457" on="1"/>
        <pt x="228" y="482" on="0"/>
        <pt x="222" y="488" on="1"/>
        <pt x="204" y="433" on="0"/>
        <pt x="192" y="300" on="0"/>
      </contour>
      <contour>
        <pt x="172" y="839" on="1"/>
        <pt x="172" y="800" on="0"/>
        <pt x="211" y="800" on="1"/>
        <pt x="241" y="800" on="0"/>
        <pt x="257" y="822" on="0"/>
        <pt x="257" y="846" on="1"/>
        <pt x="257" y="887" on="0"/>
        <pt x="215" y="887" on="1"/>
        <pt x="200" y="887" on="0"/>
        <pt x="189" y="881" on="1"/>
        <pt x="172" y="864" on="0"/>
      </contour>
    </TTGlyph>
    <TTGlyph name="Atilde" xMin="-1" yMin="-10" xMax="442" yMax="927">
      <contour>
        <pt x="139" y="-6" on="1"/>
        <pt x="2" y="-3" on="1"/>
        <pt x="0" y="-1" on="0"/>
        <pt x="0" y="2" on="0"/>
        <pt x="-1" y="3" on="1"/>
        <pt x="2" y="15" on="0"/>
        <pt x="9" y="64" on="0"/>
        <pt x="10" y="70" on="1"/>
        <pt x="67" y="431" on="0"/>
        <pt x="152" y="701" on="1"/>
        <pt x="153" y="702" on="0"/>
        <pt x="156" y="704" on="0"/>
        <pt x="157" y="705" on="1"/>
        <pt x="162" y="705" on="1"/>
        <pt x="166" y="707" on="0"/>
        <pt x="270" y="709" on="0"/>
        <pt x="280" y="710" on="1"/>
        <pt x="290" y="699" on="0"/>
        <pt x="310" y="593" on="0"/>
        <pt x="360" y="385" on="0"/>
        <pt x="417" y="119" on="0"/>
        <pt x="442" y="3" on="1"/>
        <pt x="442" y="0" on="1"/>
        <pt x="437" y="-10" on="0"/>
        <pt x="309" y="-10" on="0"/>
        <pt x="298" y="2" on="1"/>
        <pt x="289" y="25" on="0"/>
        <pt x="265" y="136" on="0"/>
        <pt x="252" y="162" on="1"/>
        <pt x="252" y="164" on="0"/>
        <pt x="230" y="163" on="1"/>
        <pt x="208" y="162" on="1"/>
        <pt x="196" y="163" on="1"/>
        <pt x="187" y="142" on="0"/>
        <pt x="170" y="24" on="0"/>
        <pt x="153" y="-2" on="1"/>
        <pt x="151" y="-3" on="1"/>
        <pt x="150" y="-4" on="0"/>
        <pt x="149" y="-4" on="1"/>
      </contour>
      <contour>
        <pt x="314" y="8" on="0"/>
        <pt x="348" y="3" on="0"/>
        <pt x="372" y="0" on="0"/>
        <pt x="410" y="0" on="0"/>
        <pt x="431" y="4" on="1"/>
        <pt x="413" y="87" on="0"/>
        <pt x="314" y="527" on="0"/>
        <pt x="288" y="652" on="0"/>
        <pt x="277" y="690" on="0"/>
        <pt x="276" y="700" on="1"/>
        <pt x="229" y="695" on="0"/>
        <pt x="161" y="695" on="1"/>
        <pt x="71" y="409" on="0"/>
        <pt x="20" y="67" on="1"/>
        <pt x="12" y="14" on="0"/>
        <pt x="10" y="6" on="1"/>
        <pt x="76" y="3" on="0"/>
        <pt x="135" y="3" on="0"/>
        <pt x="145" y="5" on="1"/>
        <pt x="160" y="29" on="0"/>
        <pt x="170" y="88" on="1"/>
        <pt x="182" y="168" on="0"/>
        <pt x="193" y="173" on="1"/>
        <pt x="214" y="173" on="1"/>
        <pt x="221" y="176" on="0"/>
        <pt x="243" y="176" on="0"/>
        <pt x="260" y="169" on="1"/>
        <pt x="273" y="141" on="0"/>
        <pt x="297" y="30" on="0"/>
        <pt x="305" y="9" on="1"/>
      </contour>
      <contour>
        <pt x="135" y="777" on="1"/>
        <pt x="139" y="754" on="1"/>
        <pt x="134" y="749" on="1"/>
        <pt x="127" y="750" on="0"/>
        <pt x="93" y="750" on="0"/>
        <pt x="85" y="753" on="1"/>
        <pt x="17" y="752" on="1"/>
        <pt x="12" y="758" on="1"/>
        <pt x="29" y="824" on="0"/>
        <pt x="101" y="927" on="0"/>
        <pt x="154" y="927" on="1"/>
        <pt x="180" y="927" on="0"/>
        <pt x="219" y="906" on="0"/>
        <pt x="228" y="892" on="1"/>
        <pt x="254" y="856" on="0"/>
        <pt x="281" y="851" on="1"/>
        <pt x="318" y="858" on="0"/>
        <pt x="331" y="911" on="1"/>
        <pt x="345" y="918" on="0"/>
        <pt x="375" y="918" on="1"/>
        <pt x="403" y="917" on="1"/>
        <pt x="418" y="918" on="1"/>
        <pt x="423" y="915" on="1"/>
        <pt x="423" y="911" on="0"/>
        <pt x="425" y="911" on="1"/>
        <pt x="425" y="839" on="0"/>
        <pt x="365" y="744" on="0"/>
        <pt x="305" y="744" on="1"/>
        <pt x="278" y="744" on="0"/>
        <pt x="241" y="767" on="0"/>
        <pt x="226" y="794" on="0"/>
        <pt x="199" y="817" on="0"/>
        <pt x="163" y="817" on="0"/>
        <pt x="135" y="797" on="0"/>
      </contour>
      <contour>
        <pt x="24" y="762" on="1"/>
        <pt x="69" y="765" on="1"/>
        <pt x="80" y="765" on="0"/>
        <pt x="90" y="762" on="1"/>
        <pt x="114" y="762" on="0"/>
        <pt x="127" y="760" on="1"/>
        <pt x="125" y="768" on="0"/>
        <pt x="125" y="773" on="1"/>
        <pt x="125" y="796" on="0"/>
        <pt x="158" y="829" on="0"/>
        <pt x="200" y="829" on="0"/>
        <pt x="223" y="814" on="0"/>
        <pt x="236" y="792" on="0"/>
        <pt x="244" y="780" on="1"/>
        <pt x="261" y="754" on="0"/>
        <pt x="359" y="754" on="0"/>
        <pt x="415" y="841" on="0"/>
        <pt x="415" y="907" on="1"/>
        <pt x="340" y="905" on="1"/>
        <pt x="335" y="877" on="0"/>
        <pt x="294" y="841" on="0"/>
        <pt x="269" y="841" on="0"/>
        <pt x="247" y="860" on="0"/>
        <pt x="223" y="891" on="0"/>
        <pt x="215" y="897" on="1"/>
        <pt x="191" y="916" on="0"/>
        <pt x="130" y="916" on="0"/>
        <pt x="90" y="893" on="0"/>
        <pt x="67" y="868" on="0"/>
        <pt x="54" y="842" on="1"/>
        <pt x="39" y="809" on="0"/>
      </contour>
      <contour>
        <pt x="260" y="281" on="1"/>
        <pt x="200" y="280" on="1"/>
        <pt x="188" y="280" on="0"/>
        <pt x="181" y="287" on="1"/>
        <pt x="200" y="500" on="0"/>
        <pt x="220" y="500" on="1"/>
        <pt x="224" y="500" on="1"/>
        <pt x="244" y="475" on="0"/>
        <pt x="253" y="407" on="1"/>
        <pt x="256" y="383" on="0"/>
        <pt x="263" y="299" on="0"/>
        <pt x="265" y="286" on="1"/>
      </contour>
      <contour>
        <pt x="191" y="290" on="1"/>
        <pt x="197" y="289" on="0"/>
        <pt x="224" y="289" on="0"/>
        <pt x="254" y="291" on="1"/>
        <pt x="242" y="392" on="0"/>
        <pt x="233" y="447" on="0"/>
        <pt x="232" y="457" on="1"/>
        <pt x="228" y="482" on="0"/>
        <pt x="222" y="488" on="1"/>
        <pt x="204" y="433" on="0"/>
        <pt x="192" y="300" on="0"/>
      </contour>
    </TTGlyph>
    <TTGlyph name="B" xMin="37" yMin="-11" xMax="471" yMax="722">
      <contour>
        <pt x="38" y="178" on="1"/>
        <pt x="39" y="497" on="1"/>
        <pt x="39" y="627" on="0"/>
        <pt x="37" y="693" on="1"/>
        <pt x="52" y="708" on="0"/>
        <pt x="162" y="722" on="0"/>
        <pt x="216" y="722" on="1"/>
        <pt x="308" y="722" on="0"/>
        <pt x="391" y="663" on="0"/>
        <pt x="396" y="658" on="0"/>
        <pt x="444" y="592" on="0"/>
        <pt x="444" y="466" on="0"/>
        <pt x="406" y="387" on="0"/>
        <pt x="357" y="362" on="1"/>
        <pt x="349" y="358" on="0"/>
        <pt x="346" y="355" on="1"/>
        <pt x="346" y="353" on="0"/>
        <pt x="348" y="353" on="1"/>
        <pt x="417" y="321" on="0"/>
        <pt x="471" y="235" on="0"/>
        <pt x="471" y="160" on="1"/>
        <pt x="471" y="145" on="1"/>
        <pt x="459" y="78" on="0"/>
        <pt x="444" y="62" on="1"/>
        <pt x="378" y="-11" on="0"/>
        <pt x="242" y="-11" on="1"/>
        <pt x="222" y="-11" on="0"/>
        <pt x="172" y="-9" on="0"/>
        <pt x="135" y="-9" on="0"/>
        <pt x="102" y="-8" on="0"/>
        <pt x="84" y="-7" on="1"/>
        <pt x="44" y="-5" on="0"/>
        <pt x="40" y="3" on="1"/>
        <pt x="38" y="61" on="0"/>
      </contour>
      <contour>
        <pt x="86" y="8" on="1"/>
        <pt x="246" y="1" on="1"/>
        <pt x="422" y="1" on="0"/>
        <pt x="450" y="104" on="1"/>
        <pt x="456" y="124" on="0"/>
        <pt x="459" y="146" on="1"/>
        <pt x="459" y="161" on="1"/>
        <pt x="459" y="267" on="0"/>
        <pt x="398" y="313" on="1"/>
        <pt x="394" y="316" on="0"/>
        <pt x="339" y="341" on="0"/>
        <pt x="333" y="354" on="1"/>
        <pt x="333" y="361" on="0"/>
        <pt x="349" y="373" on="1"/>
        <pt x="403" y="414" on="0"/>
        <pt x="414" y="431" on="1"/>
        <pt x="436" y="469" on="0"/>
        <pt x="436" y="517" on="1"/>
        <pt x="436" y="606" on="0"/>
        <pt x="308" y="711" on="0"/>
        <pt x="210" y="711" on="1"/>
        <pt x="142" y="711" on="0"/>
        <pt x="49" y="689" on="1"/>
        <pt x="51" y="625" on="0"/>
        <pt x="51" y="496" on="1"/>
        <pt x="50" y="181" on="1"/>
        <pt x="50" y="66" on="0"/>
        <pt x="52" y="9" on="1"/>
        <pt x="60" y="7" on="0"/>
        <pt x="66" y="7" on="1"/>
      </contour>
      <contour>
        <pt x="319" y="197" on="1"/>
        <pt x="319" y="157" on="0"/>
        <pt x="263" y="127" on="0"/>
        <pt x="213" y="127" on="1"/>
        <pt x="200" y="127" on="0"/>
        <pt x="170" y="129" on="1"/>
        <pt x="155" y="158" on="0"/>
        <pt x="155" y="279" on="0"/>
        <pt x="167" y="302" on="1"/>
        <pt x="170" y="302" on="0"/>
        <pt x="200" y="302" on="0"/>
        <pt x="223" y="301" on="0"/>
        <pt x="261" y="295" on="0"/>
        <pt x="272" y="289" on="1"/>
        <pt x="300" y="273" on="0"/>
        <pt x="312" y="241" on="1"/>
        <pt x="319" y="217" on="0"/>
      </contour>
      <contour>
        <pt x="163" y="538" on="1"/>
        <pt x="162" y="560" on="1"/>
        <pt x="170" y="577" on="0"/>
        <pt x="249" y="577" on="0"/>
        <pt x="306" y="552" on="0"/>
        <pt x="317" y="529" on="1"/>
        <pt x="325" y="508" on="0"/>
        <pt x="325" y="494" on="1"/>
        <pt x="325" y="454" on="0"/>
        <pt x="243" y="409" on="0"/>
        <pt x="193" y="409" on="1"/>
        <pt x="175" y="409" on="0"/>
        <pt x="166" y="418" on="0"/>
        <pt x="162" y="421" on="0"/>
        <pt x="160" y="435" on="0"/>
        <pt x="160" y="437" on="1"/>
        <pt x="160" y="460" on="1"/>
      </contour>
      <contour>
        <pt x="173" y="290" on="1"/>
        <pt x="167" y="263" on="0"/>
        <pt x="167" y="206" on="0"/>
        <pt x="176" y="141" on="1"/>
        <pt x="221" y="138" on="0"/>
        <pt x="227" y="138" on="1"/>
        <pt x="263" y="138" on="0"/>
        <pt x="305" y="164" on="0"/>
        <pt x="305" y="222" on="0"/>
        <pt x="291" y="263" on="0"/>
        <pt x="250" y="287" on="0"/>
        <pt x="217" y="290" on="0"/>
        <pt x="196" y="290" on="1"/>
      </contour>
      <contour>
        <pt x="172" y="457" on="1"/>
        <pt x="171" y="441" on="1"/>
        <pt x="171" y="427" on="0"/>
        <pt x="186" y="423" on="0"/>
        <pt x="194" y="423" on="1"/>
        <pt x="239" y="423" on="0"/>
        <pt x="313" y="459" on="0"/>
        <pt x="313" y="493" on="1"/>
        <pt x="313" y="536" on="0"/>
        <pt x="270" y="554" on="1"/>
        <pt x="244" y="565" on="0"/>
        <pt x="192" y="565" on="0"/>
        <pt x="174" y="557" on="1"/>
        <pt x="175" y="534" on="1"/>
      </contour>
    </TTGlyph>
    <TTGlyph name="C" xMin="26" yMin="-18" xMax="475" yMax="733">
      <contour>
        <pt x="26" y="395" on="1"/>
        <pt x="28" y="536" on="1"/>
        <pt x="26" y="541" on="0"/>
        <pt x="26" y="572" on="0"/>
        <pt x="40" y="606" on="1"/>
        <pt x="67" y="673" on="0"/>
        <pt x="152" y="733" on="0"/>
        <pt x="232" y="733" on="1"/>
        <pt x="330" y="733" on="0"/>
        <pt x="475" y="586" on="0"/>
        <pt x="475" y="489" on="1"/>
        <pt x="475" y="451" on="0"/>
        <pt x="464" y="419" on="1"/>
        <pt x="454" y="409" on="0"/>
        <pt x="339" y="409" on="0"/>
        <pt x="308" y="424" on="1"/>
        <pt x="305" y="437" on="0"/>
        <pt x="302" y="490" on="0"/>
        <pt x="298" y="524" on="0"/>
        <pt x="270" y="553" on="0"/>
        <pt x="244" y="553" on="1"/>
        <pt x="239" y="551" on="0"/>
        <pt x="228" y="550" on="1"/>
        <pt x="206" y="548" on="0"/>
        <pt x="197" y="539" on="1"/>
        <pt x="193" y="532" on="0"/>
        <pt x="192" y="528" on="0"/>
        <pt x="192" y="528" on="1"/>
        <pt x="191" y="526" on="1"/>
        <pt x="190" y="525" on="1"/>
        <pt x="184" y="506" on="0"/>
        <pt x="184" y="474" on="1"/>
        <pt x="186" y="418" on="1"/>
        <pt x="182" y="307" on="1"/>
        <pt x="182" y="156" on="0"/>
        <pt x="252" y="156" on="1"/>
        <pt x="287" y="156" on="0"/>
        <pt x="305" y="185" on="1"/>
        <pt x="312" y="197" on="0"/>
        <pt x="317" y="287" on="0"/>
        <pt x="325" y="291" on="1"/>
        <pt x="334" y="288" on="0"/>
        <pt x="344" y="288" on="1"/>
        <pt x="394" y="293" on="1"/>
        <pt x="437" y="293" on="0"/>
        <pt x="459" y="285" on="1"/>
        <pt x="473" y="270" on="0"/>
        <pt x="473" y="211" on="1"/>
        <pt x="473" y="113" on="0"/>
        <pt x="341" y="-18" on="0"/>
        <pt x="230" y="-18" on="1"/>
        <pt x="106" y="-18" on="0"/>
        <pt x="56" y="52" on="1"/>
        <pt x="50" y="59" on="0"/>
        <pt x="42" y="78" on="0"/>
        <pt x="36" y="91" on="0"/>
        <pt x="32" y="115" on="0"/>
        <pt x="30" y="126" on="0"/>
        <pt x="29" y="154" on="0"/>
        <pt x="28" y="162" on="0"/>
        <pt x="28" y="178" on="1"/>
        <pt x="28" y="196" on="1"/>
        <pt x="26" y="254" on="0"/>
        <pt x="26" y="285" on="1"/>
      </contour>
      <contour>
        <pt x="176" y="427" on="1"/>
        <pt x="175" y="463" on="1"/>
        <pt x="175" y="526" on="0"/>
        <pt x="189" y="544" on="1"/>
        <pt x="190" y="546" on="1"/>
        <pt x="208" y="564" on="0"/>
        <pt x="264" y="564" on="0"/>
        <pt x="296" y="545" on="0"/>
        <pt x="309" y="511" on="0"/>
        <pt x="314" y="479" on="0"/>
        <pt x="315" y="437" on="0"/>
        <pt x="317" y="429" on="1"/>
        <pt x="373" y="419" on="0"/>
        <pt x="436" y="419" on="0"/>
        <pt x="455" y="425" on="1"/>
        <pt x="466" y="460" on="0"/>
        <pt x="466" y="492" on="1"/>
        <pt x="466" y="584" on="0"/>
        <pt x="321" y="722" on="0"/>
        <pt x="221" y="722" on="1"/>
        <pt x="143" y="722" on="0"/>
        <pt x="37" y="624" on="0"/>
        <pt x="37" y="541" on="1"/>
        <pt x="40" y="530" on="0"/>
        <pt x="40" y="465" on="0"/>
        <pt x="35" y="396" on="0"/>
        <pt x="35" y="379" on="1"/>
        <pt x="38" y="197" on="1"/>
        <pt x="38" y="174" on="1"/>
        <pt x="38" y="155" on="0"/>
        <pt x="39" y="145" on="0"/>
        <pt x="42" y="112" on="0"/>
        <pt x="46" y="97" on="0"/>
        <pt x="50" y="84" on="1"/>
        <pt x="56" y="66" on="0"/>
        <pt x="75" y="44" on="1"/>
        <pt x="123" y="-8" on="0"/>
        <pt x="335" y="-8" on="0"/>
        <pt x="463" y="113" on="0"/>
        <pt x="463" y="210" on="1"/>
        <pt x="463" y="244" on="0"/>
        <pt x="454" y="276" on="1"/>
        <pt x="445" y="278" on="0"/>
        <pt x="414" y="278" on="0"/>
        <pt x="408" y="281" on="1"/>
        <pt x="350" y="279" on="1"/>
        <pt x="335" y="279" on="0"/>
        <pt x="328" y="280" on="1"/>
        <pt x="325" y="267" on="0"/>
        <pt x="325" y="209" on="0"/>
        <pt x="312" y="171" on="0"/>
        <pt x="277" y="146" on="0"/>
        <pt x="256" y="146" on="1"/>
        <pt x="173" y="146" on="0"/>
        <pt x="173" y="316" on="1"/>
        <pt x="173" y="344" on="0"/>
        <pt x="176" y="420" on="0"/>
      </contour>
    </TTGlyph>
    <TTGlyph name="Ccedilla" xMin="28" yMin="-135" xMax="460" yMax="700">
      <contour>
        <pt x="183" y="440" on="1"/>
        <pt x="180" y="307" on="1"/>
        <pt x="180" y="150" on="0"/>
        <pt x="250" y="150" on="1"/>
        <pt x="307" y="150" on="0"/>
        <pt x="308" y="236" on="1"/>
        <pt x="309" y="264" on="0"/>
        <pt x="311" y="275" on="1"/>
        <pt x="328" y="283" on="0"/>
        <pt x="425" y="283" on="0"/>
        <pt x="447" y="275" on="1"/>
        <pt x="460" y="262" on="0"/>
        <pt x="460" y="204" on="1"/>
        <pt x="460" y="118" on="0"/>
        <pt x="358" y="-14" on="0"/>
        <pt x="274" y="-15" on="1"/>
        <pt x="254" y="-104" on="0"/>
        <pt x="246" y="-126" on="1"/>
        <pt x="246" y="-127" on="1"/>
        <pt x="238" y="-135" on="0"/>
        <pt x="169" y="-135" on="1"/>
        <pt x="150" y="-135" on="0"/>
        <pt x="146" y="-126" on="1"/>
        <pt x="146" y="-102" on="0"/>
        <pt x="170" y="-13" on="1"/>
        <pt x="100" y="-13" on="0"/>
        <pt x="71" y="34" on="1"/>
        <pt x="56" y="58" on="0"/>
        <pt x="37" y="104" on="0"/>
        <pt x="34" y="140" on="1"/>
        <pt x="28" y="198" on="0"/>
        <pt x="28" y="258" on="1"/>
        <pt x="28" y="408" on="1"/>
        <pt x="29" y="447" on="0"/>
        <pt x="33" y="525" on="1"/>
        <pt x="33" y="598" on="0"/>
        <pt x="109" y="700" on="0"/>
        <pt x="185" y="700" on="1"/>
        <pt x="245" y="698" on="1"/>
        <pt x="349" y="695" on="0"/>
        <pt x="460" y="567" on="0"/>
        <pt x="460" y="473" on="1"/>
        <pt x="460" y="404" on="0"/>
        <pt x="448" y="404" on="1"/>
        <pt x="449" y="404" on="1"/>
        <pt x="448" y="403" on="0"/>
        <pt x="447" y="403" on="1"/>
        <pt x="446" y="403" on="1"/>
        <pt x="446" y="402" on="0"/>
        <pt x="427" y="399" on="0"/>
        <pt x="402" y="395" on="0"/>
        <pt x="394" y="395" on="1"/>
        <pt x="330" y="395" on="0"/>
        <pt x="305" y="408" on="1"/>
        <pt x="301" y="420" on="0"/>
        <pt x="292" y="501" on="0"/>
        <pt x="279" y="521" on="1"/>
        <pt x="274" y="526" on="0"/>
        <pt x="251" y="534" on="0"/>
        <pt x="250" y="535" on="1"/>
        <pt x="204" y="535" on="0"/>
        <pt x="193" y="506" on="1"/>
        <pt x="183" y="480" on="0"/>
      </contour>
      <contour>
        <pt x="391" y="405" on="1"/>
        <pt x="442" y="412" on="1"/>
        <pt x="450" y="444" on="0"/>
        <pt x="450" y="531" on="0"/>
        <pt x="402" y="631" on="0"/>
        <pt x="313" y="689" on="0"/>
        <pt x="211" y="689" on="1"/>
        <pt x="149" y="689" on="0"/>
        <pt x="125" y="681" on="1"/>
        <pt x="85" y="668" on="0"/>
        <pt x="43" y="571" on="0"/>
        <pt x="43" y="524" on="1"/>
        <pt x="37" y="412" on="0"/>
        <pt x="37" y="357" on="1"/>
        <pt x="38" y="257" on="1"/>
        <pt x="38" y="158" on="0"/>
        <pt x="52" y="97" on="0"/>
        <pt x="70" y="47" on="0"/>
        <pt x="82" y="32" on="1"/>
        <pt x="113" y="-3" on="0"/>
        <pt x="159" y="-3" on="1"/>
        <pt x="171" y="-3" on="0"/>
        <pt x="177" y="-2" on="1"/>
        <pt x="182" y="-7" on="1"/>
        <pt x="182" y="-25" on="0"/>
        <pt x="174" y="-50" on="1"/>
        <pt x="166" y="-77" on="0"/>
        <pt x="156" y="-123" on="1"/>
        <pt x="166" y="-125" on="0"/>
        <pt x="172" y="-125" on="1"/>
        <pt x="236" y="-121" on="1"/>
        <pt x="238" y="-105" on="0"/>
        <pt x="266" y="-9" on="0"/>
        <pt x="266" y="-8" on="1"/>
        <pt x="268" y="-8" on="0"/>
        <pt x="274" y="-6" on="1"/>
        <pt x="272" y="-5" on="0"/>
        <pt x="271" y="-5" on="1"/>
        <pt x="351" y="-5" on="0"/>
        <pt x="451" y="122" on="0"/>
        <pt x="451" y="204" on="1"/>
        <pt x="451" y="236" on="0"/>
        <pt x="442" y="266" on="1"/>
        <pt x="434" y="268" on="0"/>
        <pt x="402" y="268" on="0"/>
        <pt x="396" y="271" on="1"/>
        <pt x="362" y="271" on="1"/>
        <pt x="353" y="268" on="0"/>
        <pt x="341" y="268" on="1"/>
        <pt x="320" y="269" on="1"/>
        <pt x="318" y="259" on="0"/>
        <pt x="318" y="239" on="1"/>
        <pt x="318" y="191" on="0"/>
        <pt x="280" y="140" on="0"/>
        <pt x="225" y="140" on="0"/>
        <pt x="191" y="170" on="0"/>
        <pt x="183" y="198" on="1"/>
        <pt x="169" y="246" on="0"/>
        <pt x="169" y="321" on="1"/>
        <pt x="173" y="441" on="1"/>
        <pt x="173" y="501" on="0"/>
        <pt x="189" y="522" on="1"/>
        <pt x="208" y="546" on="0"/>
        <pt x="268" y="546" on="0"/>
        <pt x="296" y="516" on="0"/>
        <pt x="304" y="482" on="0"/>
        <pt x="310" y="425" on="0"/>
        <pt x="313" y="414" on="1"/>
      </contour>
    </TTGlyph>
    <TTGlyph name="D" xMin="34" yMin="-10" xMax="465" yMax="708">
      <contour>
        <pt x="153" y="707" on="1"/>
        <pt x="224" y="708" on="1"/>
        <pt x="289" y="708" on="0"/>
        <pt x="319" y="691" on="0"/>
        <pt x="356" y="672" on="0"/>
        <pt x="383" y="641" on="0"/>
        <pt x="397" y="620" on="1"/>
        <pt x="438" y="547" on="0"/>
        <pt x="465" y="447" on="0"/>
        <pt x="465" y="362" on="0"/>
        <pt x="463" y="302" on="1"/>
        <pt x="453" y="218" on="1"/>
        <pt x="452" y="217" on="1"/>
        <pt x="451" y="208" on="0"/>
        <pt x="433" y="168" on="1"/>
        <pt x="387" y="66" on="0"/>
        <pt x="321" y="0" on="1"/>
        <pt x="262" y="-4" on="0"/>
        <pt x="190" y="-4" on="1"/>
        <pt x="61" y="-3" on="1"/>
        <pt x="61" y="-7" on="0"/>
        <pt x="62" y="-10" on="1"/>
        <pt x="60" y="-7" on="0"/>
        <pt x="58" y="-3" on="1"/>
        <pt x="35" y="-3" on="1"/>
        <pt x="42" y="-1" on="0"/>
        <pt x="56" y="-1" on="1"/>
        <pt x="54" y="0" on="0"/>
        <pt x="51" y="0" on="1"/>
        <pt x="34" y="138" on="0"/>
        <pt x="34" y="342" on="1"/>
        <pt x="36" y="600" on="1"/>
        <pt x="35" y="686" on="1"/>
        <pt x="35" y="688" on="0"/>
        <pt x="36" y="689" on="1"/>
        <pt x="38" y="707" on="0"/>
      </contour>
      <contour>
        <pt x="443" y="219" on="1"/>
        <pt x="453" y="303" on="1"/>
        <pt x="455" y="365" on="0"/>
        <pt x="455" y="448" on="0"/>
        <pt x="429" y="545" on="0"/>
        <pt x="389" y="615" on="1"/>
        <pt x="349" y="674" on="0"/>
        <pt x="283" y="696" on="1"/>
        <pt x="264" y="695" on="0"/>
        <pt x="63" y="695" on="0"/>
        <pt x="45" y="686" on="1"/>
        <pt x="45" y="685" on="1"/>
        <pt x="46" y="594" on="1"/>
        <pt x="44" y="345" on="1"/>
        <pt x="44" y="145" on="0"/>
        <pt x="60" y="7" on="1"/>
        <pt x="197" y="6" on="1"/>
        <pt x="264" y="6" on="0"/>
        <pt x="317" y="10" on="1"/>
        <pt x="414" y="132" on="0"/>
        <pt x="442" y="217" on="1"/>
        <pt x="444" y="219" on="1"/>
      </contour>
      <contour>
        <pt x="175" y="248" on="1"/>
        <pt x="177" y="291" on="1"/>
        <pt x="177" y="484" on="1"/>
        <pt x="187" y="494" on="0"/>
        <pt x="287" y="494" on="0"/>
        <pt x="310" y="445" on="1"/>
        <pt x="359" y="343" on="0"/>
        <pt x="306" y="252" on="1"/>
        <pt x="299" y="238" on="0"/>
        <pt x="266" y="210" on="0"/>
        <pt x="252" y="210" on="0"/>
        <pt x="251" y="211" on="1"/>
        <pt x="239" y="208" on="0"/>
        <pt x="191" y="208" on="0"/>
        <pt x="175" y="228" on="0"/>
      </contour>
      <contour>
        <pt x="204" y="218" on="1"/>
        <pt x="247" y="221" on="1"/>
        <pt x="253" y="221" on="0"/>
        <pt x="255" y="220" on="1"/>
        <pt x="256" y="220" on="1"/>
        <pt x="261" y="220" on="0"/>
        <pt x="293" y="248" on="0"/>
        <pt x="297" y="256" on="1"/>
        <pt x="324" y="300" on="0"/>
        <pt x="324" y="396" on="0"/>
        <pt x="277" y="485" on="0"/>
        <pt x="236" y="485" on="1"/>
        <pt x="187" y="480" on="1"/>
        <pt x="189" y="404" on="1"/>
        <pt x="185" y="283" on="1"/>
        <pt x="184" y="258" on="1"/>
        <pt x="184" y="224" on="0"/>
      </contour>
    </TTGlyph>
    <TTGlyph name="E" xMin="35" yMin="-6" xMax="469" yMax="706">
      <contour>
        <pt x="204" y="146" on="1"/>
        <pt x="404" y="139" on="1"/>
        <pt x="423" y="139" on="0"/>
        <pt x="463" y="141" on="1"/>
        <pt x="468" y="136" on="1"/>
        <pt x="468" y="134" on="1"/>
        <pt x="469" y="118" on="0"/>
        <pt x="469" y="88" on="1"/>
        <pt x="469" y="12" on="0"/>
        <pt x="455" y="-2" on="1"/>
        <pt x="200" y="-6" on="1"/>
        <pt x="122" y="-6" on="0"/>
        <pt x="45" y="0" on="1"/>
        <pt x="44" y="1" on="0"/>
        <pt x="41" y="5" on="0"/>
        <pt x="40" y="6" on="1"/>
        <pt x="35" y="450" on="1"/>
        <pt x="35" y="594" on="0"/>
        <pt x="41" y="690" on="1"/>
        <pt x="46" y="694" on="1"/>
        <pt x="93" y="697" on="0"/>
        <pt x="266" y="700" on="0"/>
        <pt x="293" y="701" on="1"/>
        <pt x="396" y="706" on="1"/>
        <pt x="430" y="706" on="0"/>
        <pt x="461" y="700" on="1"/>
        <pt x="468" y="685" on="0"/>
        <pt x="468" y="658" on="1"/>
        <pt x="465" y="552" on="1"/>
        <pt x="458" y="537" on="0"/>
        <pt x="371" y="537" on="1"/>
        <pt x="286" y="538" on="1"/>
        <pt x="199" y="535" on="1"/>
        <pt x="195" y="463" on="1"/>
        <pt x="195" y="442" on="0"/>
        <pt x="199" y="426" on="1"/>
        <pt x="224" y="422" on="0"/>
        <pt x="259" y="422" on="1"/>
        <pt x="319" y="423" on="1"/>
        <pt x="327" y="406" on="0"/>
        <pt x="327" y="376" on="1"/>
        <pt x="325" y="301" on="1"/>
        <pt x="325" y="285" on="0"/>
        <pt x="326" y="278" on="1"/>
        <pt x="320" y="267" on="0"/>
        <pt x="276" y="267" on="1"/>
        <pt x="234" y="268" on="1"/>
        <pt x="228" y="266" on="0"/>
        <pt x="209" y="265" on="0"/>
        <pt x="205" y="264" on="1"/>
        <pt x="199" y="234" on="0"/>
        <pt x="199" y="174" on="0"/>
      </contour>
      <contour>
        <pt x="202" y="4" on="1"/>
        <pt x="451" y="8" on="1"/>
        <pt x="459" y="43" on="0"/>
        <pt x="459" y="115" on="0"/>
        <pt x="458" y="130" on="1"/>
        <pt x="442" y="129" on="0"/>
        <pt x="410" y="129" on="1"/>
        <pt x="201" y="136" on="1"/>
        <pt x="190" y="136" on="0"/>
        <pt x="190" y="261" on="0"/>
        <pt x="210" y="280" on="0"/>
        <pt x="251" y="280" on="1"/>
        <pt x="293" y="278" on="1"/>
        <pt x="308" y="278" on="0"/>
        <pt x="316" y="281" on="1"/>
        <pt x="317" y="366" on="1"/>
        <pt x="317" y="389" on="0"/>
        <pt x="314" y="413" on="1"/>
        <pt x="257" y="414" on="1"/>
        <pt x="221" y="412" on="1"/>
        <pt x="183" y="412" on="0"/>
        <pt x="183" y="447" on="1"/>
        <pt x="183" y="535" on="0"/>
        <pt x="192" y="544" on="1"/>
        <pt x="297" y="548" on="1"/>
        <pt x="356" y="547" on="1"/>
        <pt x="411" y="547" on="0"/>
        <pt x="455" y="555" on="1"/>
        <pt x="458" y="651" on="1"/>
        <pt x="458" y="678" on="0"/>
        <pt x="456" y="691" on="1"/>
        <pt x="432" y="695" on="0"/>
        <pt x="397" y="695" on="1"/>
        <pt x="293" y="691" on="1"/>
        <pt x="266" y="690" on="0"/>
        <pt x="97" y="687" on="0"/>
        <pt x="51" y="684" on="1"/>
        <pt x="45" y="589" on="0"/>
        <pt x="45" y="447" on="1"/>
        <pt x="50" y="10" on="1"/>
        <pt x="126" y="4" on="0"/>
      </contour>
      <contour>
        <pt x="203" y="263" on="1"/>
        <pt x="201" y="263" on="1"/>
      </contour>
    </TTGlyph>
    <TTGlyph name="Eacute" xMin="35" yMin="-6" xMax="469" yMax="921">
      <contour>
        <pt x="204" y="146" on="1"/>
        <pt x="404" y="139" on="1"/>
        <pt x="423" y="139" on="0"/>
        <pt x="463" y="141" on="1"/>
        <pt x="468" y="136" on="1"/>
        <pt x="468" y="134" on="1"/>
        <pt x="469" y="118" on="0"/>
        <pt x="469" y="88" on="1"/>
        <pt x="469" y="12" on="0"/>
        <pt x="455" y="-2" on="1"/>
        <pt x="200" y="-6" on="1"/>
        <pt x="122" y="-6" on="0"/>
        <pt x="45" y="0" on="1"/>
        <pt x="44" y="1" on="0"/>
        <pt x="41" y="5" on="0"/>
        <pt x="40" y="6" on="1"/>
        <pt x="35" y="450" on="1"/>
        <pt x="35" y="594" on="0"/>
        <pt x="41" y="690" on="1"/>
        <pt x="46" y="694" on="1"/>
        <pt x="93" y="697" on="0"/>
        <pt x="266" y="700" on="0"/>
        <pt x="293" y="701" on="1"/>
        <pt x="396" y="706" on="1"/>
        <pt x="430" y="706" on="0"/>
        <pt x="461" y="700" on="1"/>
        <pt x="468" y="685" on="0"/>
        <pt x="468" y="658" on="1"/>
        <pt x="465" y="552" on="1"/>
        <pt x="458" y="537" on="0"/>
        <pt x="371" y="537" on="1"/>
        <pt x="286" y="538" on="1"/>
        <pt x="199" y="535" on="1"/>
        <pt x="195" y="463" on="1"/>
        <pt x="195" y="442" on="0"/>
        <pt x="199" y="426" on="1"/>
        <pt x="224" y="422" on="0"/>
        <pt x="259" y="422" on="1"/>
        <pt x="319" y="423" on="1"/>
        <pt x="327" y="406" on="0"/>
        <pt x="327" y="376" on="1"/>
        <pt x="325" y="301" on="1"/>
        <pt x="325" y="285" on="0"/>
        <pt x="326" y="278" on="1"/>
        <pt x="320" y="267" on="0"/>
        <pt x="276" y="267" on="1"/>
        <pt x="234" y="268" on="1"/>
        <pt x="228" y="266" on="0"/>
        <pt x="209" y="265" on="0"/>
        <pt x="205" y="264" on="1"/>
        <pt x="199" y="234" on="0"/>
        <pt x="199" y="174" on="0"/>
      </contour>
      <contour>
        <pt x="202" y="4" on="1"/>
        <pt x="451" y="8" on="1"/>
        <pt x="459" y="43" on="0"/>
        <pt x="459" y="115" on="0"/>
        <pt x="458" y="130" on="1"/>
        <pt x="442" y="129" on="0"/>
        <pt x="410" y="129" on="1"/>
        <pt x="201" y="136" on="1"/>
        <pt x="190" y="136" on="0"/>
        <pt x="190" y="261" on="0"/>
        <pt x="210" y="280" on="0"/>
        <pt x="251" y="280" on="1"/>
        <pt x="293" y="278" on="1"/>
        <pt x="308" y="278" on="0"/>
        <pt x="316" y="281" on="1"/>
        <pt x="317" y="366" on="1"/>
        <pt x="317" y="389" on="0"/>
        <pt x="314" y="413" on="1"/>
        <pt x="257" y="414" on="1"/>
        <pt x="221" y="412" on="1"/>
        <pt x="183" y="412" on="0"/>
        <pt x="183" y="447" on="1"/>
        <pt x="183" y="535" on="0"/>
        <pt x="192" y="544" on="1"/>
        <pt x="297" y="548" on="1"/>
        <pt x="356" y="547" on="1"/>
        <pt x="411" y="547" on="0"/>
        <pt x="455" y="555" on="1"/>
        <pt x="458" y="651" on="1"/>
        <pt x="458" y="678" on="0"/>
        <pt x="456" y="691" on="1"/>
        <pt x="432" y="695" on="0"/>
        <pt x="397" y="695" on="1"/>
        <pt x="293" y="691" on="1"/>
        <pt x="266" y="690" on="0"/>
        <pt x="97" y="687" on="0"/>
        <pt x="51" y="684" on="1"/>
        <pt x="45" y="589" on="0"/>
        <pt x="45" y="447" on="1"/>
        <pt x="50" y="10" on="1"/>
        <pt x="126" y="4" on="0"/>
      </contour>
      <contour>
        <pt x="299" y="748" on="1"/>
        <pt x="292" y="741" on="0"/>
        <pt x="166" y="741" on="0"/>
        <pt x="157" y="750" on="1"/>
        <pt x="157" y="758" on="1"/>
        <pt x="185" y="782" on="0"/>
        <pt x="292" y="895" on="0"/>
        <pt x="324" y="921" on="1"/>
        <pt x="343" y="911" on="0"/>
        <pt x="395" y="855" on="0"/>
        <pt x="400" y="850" on="1"/>
        <pt x="400" y="844" on="1"/>
        <pt x="392" y="836" on="0"/>
        <pt x="367" y="816" on="1"/>
        <pt x="308" y="767" on="0"/>
      </contour>
      <contour>
        <pt x="170" y="756" on="1"/>
        <pt x="203" y="750" on="0"/>
        <pt x="270" y="750" on="0"/>
        <pt x="290" y="754" on="1"/>
        <pt x="300" y="773" on="0"/>
        <pt x="380" y="838" on="0"/>
        <pt x="389" y="847" on="1"/>
        <pt x="347" y="889" on="0"/>
        <pt x="327" y="910" on="1"/>
        <pt x="295" y="884" on="0"/>
        <pt x="189" y="774" on="0"/>
      </contour>
      <contour>
        <pt x="203" y="263" on="1"/>
        <pt x="201" y="263" on="1"/>
      </contour>
    </TTGlyph>
    <TTGlyph name="Ecircumflex" xMin="35" yMin="-6" xMax="469" yMax="922">
      <contour>
        <pt x="204" y="146" on="1"/>
        <pt x="404" y="139" on="1"/>
        <pt x="423" y="139" on="0"/>
        <pt x="463" y="141" on="1"/>
        <pt x="468" y="136" on="1"/>
        <pt x="468" y="134" on="1"/>
        <pt x="469" y="118" on="0"/>
        <pt x="469" y="88" on="1"/>
        <pt x="469" y="12" on="0"/>
        <pt x="455" y="-2" on="1"/>
        <pt x="200" y="-6" on="1"/>
        <pt x="122" y="-6" on="0"/>
        <pt x="45" y="0" on="1"/>
        <pt x="44" y="1" on="0"/>
        <pt x="41" y="5" on="0"/>
        <pt x="40" y="6" on="1"/>
        <pt x="35" y="450" on="1"/>
        <pt x="35" y="594" on="0"/>
        <pt x="41" y="690" on="1"/>
        <pt x="46" y="694" on="1"/>
        <pt x="93" y="697" on="0"/>
        <pt x="266" y="700" on="0"/>
        <pt x="293" y="701" on="1"/>
        <pt x="396" y="706" on="1"/>
        <pt x="430" y="706" on="0"/>
        <pt x="461" y="700" on="1"/>
        <pt x="468" y="685" on="0"/>
        <pt x="468" y="658" on="1"/>
        <pt x="465" y="552" on="1"/>
        <pt x="458" y="537" on="0"/>
        <pt x="371" y="537" on="1"/>
        <pt x="286" y="538" on="1"/>
        <pt x="199" y="535" on="1"/>
        <pt x="195" y="463" on="1"/>
        <pt x="195" y="442" on="0"/>
        <pt x="199" y="426" on="1"/>
        <pt x="224" y="422" on="0"/>
        <pt x="259" y="422" on="1"/>
        <pt x="319" y="423" on="1"/>
        <pt x="327" y="406" on="0"/>
        <pt x="327" y="376" on="1"/>
        <pt x="325" y="301" on="1"/>
        <pt x="325" y="285" on="0"/>
        <pt x="326" y="278" on="1"/>
        <pt x="320" y="267" on="0"/>
        <pt x="276" y="267" on="1"/>
        <pt x="234" y="268" on="1"/>
        <pt x="228" y="266" on="0"/>
        <pt x="209" y="265" on="0"/>
        <pt x="205" y="264" on="1"/>
        <pt x="199" y="234" on="0"/>
        <pt x="199" y="174" on="0"/>
      </contour>
      <contour>
        <pt x="202" y="4" on="1"/>
        <pt x="451" y="8" on="1"/>
        <pt x="459" y="43" on="0"/>
        <pt x="459" y="115" on="0"/>
        <pt x="458" y="130" on="1"/>
        <pt x="442" y="129" on="0"/>
        <pt x="410" y="129" on="1"/>
        <pt x="201" y="136" on="1"/>
        <pt x="190" y="136" on="0"/>
        <pt x="190" y="261" on="0"/>
        <pt x="210" y="280" on="0"/>
        <pt x="251" y="280" on="1"/>
        <pt x="293" y="278" on="1"/>
        <pt x="308" y="278" on="0"/>
        <pt x="316" y="281" on="1"/>
        <pt x="317" y="366" on="1"/>
        <pt x="317" y="389" on="0"/>
        <pt x="314" y="413" on="1"/>
        <pt x="257" y="414" on="1"/>
        <pt x="221" y="412" on="1"/>
        <pt x="183" y="412" on="0"/>
        <pt x="183" y="447" on="1"/>
        <pt x="183" y="535" on="0"/>
        <pt x="192" y="544" on="1"/>
        <pt x="297" y="548" on="1"/>
        <pt x="356" y="547" on="1"/>
        <pt x="411" y="547" on="0"/>
        <pt x="455" y="555" on="1"/>
        <pt x="458" y="651" on="1"/>
        <pt x="458" y="678" on="0"/>
        <pt x="456" y="691" on="1"/>
        <pt x="432" y="695" on="0"/>
        <pt x="397" y="695" on="1"/>
        <pt x="293" y="691" on="1"/>
        <pt x="266" y="690" on="0"/>
        <pt x="97" y="687" on="0"/>
        <pt x="51" y="684" on="1"/>
        <pt x="45" y="589" on="0"/>
        <pt x="45" y="447" on="1"/>
        <pt x="50" y="10" on="1"/>
        <pt x="126" y="4" on="0"/>
      </contour>
      <contour>
        <pt x="256" y="921" on="1"/>
        <pt x="419" y="759" on="1"/>
        <pt x="415" y="751" on="1"/>
        <pt x="404" y="751" on="0"/>
        <pt x="357" y="742" on="0"/>
        <pt x="335" y="742" on="1"/>
        <pt x="279" y="742" on="0"/>
        <pt x="257" y="786" on="1"/>
        <pt x="249" y="794" on="1"/>
        <pt x="236" y="784" on="0"/>
        <pt x="211" y="755" on="0"/>
        <pt x="188" y="744" on="0"/>
        <pt x="123" y="744" on="0"/>
        <pt x="90" y="750" on="1"/>
        <pt x="87" y="759" on="1"/>
        <pt x="123" y="806" on="0"/>
        <pt x="243" y="917" on="0"/>
        <pt x="249" y="922" on="1"/>
        <pt x="251" y="921" on="0"/>
      </contour>
      <contour>
        <pt x="300" y="756" on="1"/>
        <pt x="340" y="754" on="0"/>
        <pt x="367" y="754" on="0"/>
        <pt x="395" y="759" on="0"/>
        <pt x="403" y="760" on="1"/>
        <pt x="380" y="782" on="0"/>
        <pt x="330" y="833" on="0"/>
        <pt x="300" y="864" on="1"/>
        <pt x="252" y="911" on="1"/>
        <pt x="213" y="875" on="1"/>
        <pt x="132" y="800" on="0"/>
        <pt x="99" y="759" on="1"/>
        <pt x="131" y="755" on="0"/>
        <pt x="192" y="755" on="0"/>
        <pt x="216" y="770" on="0"/>
        <pt x="236" y="797" on="0"/>
        <pt x="246" y="804" on="1"/>
        <pt x="252" y="804" on="1"/>
        <pt x="261" y="798" on="0"/>
        <pt x="288" y="765" on="0"/>
        <pt x="291" y="762" on="1"/>
      </contour>
      <contour>
        <pt x="203" y="263" on="1"/>
        <pt x="201" y="263" on="1"/>
      </contour>
    </TTGlyph>
    <TTGlyph name="Edieresis" xMin="35" yMin="-6" xMax="469" yMax="874">
      <contour>
        <pt x="204" y="146" on="1"/>
        <pt x="404" y="139" on="1"/>
        <pt x="423" y="139" on="0"/>
        <pt x="463" y="141" on="1"/>
        <pt x="468" y="136" on="1"/>
        <pt x="468" y="134" on="1"/>
        <pt x="469" y="118" on="0"/>
        <pt x="469" y="88" on="1"/>
        <pt x="469" y="12" on="0"/>
        <pt x="455" y="-2" on="1"/>
        <pt x="200" y="-6" on="1"/>
        <pt x="122" y="-6" on="0"/>
        <pt x="45" y="0" on="1"/>
        <pt x="44" y="1" on="0"/>
        <pt x="41" y="5" on="0"/>
        <pt x="40" y="6" on="1"/>
        <pt x="35" y="450" on="1"/>
        <pt x="35" y="594" on="0"/>
        <pt x="41" y="690" on="1"/>
        <pt x="46" y="694" on="1"/>
        <pt x="93" y="697" on="0"/>
        <pt x="266" y="700" on="0"/>
        <pt x="293" y="701" on="1"/>
        <pt x="396" y="706" on="1"/>
        <pt x="430" y="706" on="0"/>
        <pt x="461" y="700" on="1"/>
        <pt x="468" y="685" on="0"/>
        <pt x="468" y="658" on="1"/>
        <pt x="465" y="552" on="1"/>
        <pt x="458" y="537" on="0"/>
        <pt x="371" y="537" on="1"/>
        <pt x="286" y="538" on="1"/>
        <pt x="199" y="535" on="1"/>
        <pt x="195" y="463" on="1"/>
        <pt x="195" y="442" on="0"/>
        <pt x="199" y="426" on="1"/>
        <pt x="224" y="422" on="0"/>
        <pt x="259" y="422" on="1"/>
        <pt x="319" y="423" on="1"/>
        <pt x="327" y="406" on="0"/>
        <pt x="327" y="376" on="1"/>
        <pt x="325" y="301" on="1"/>
        <pt x="325" y="285" on="0"/>
        <pt x="326" y="278" on="1"/>
        <pt x="320" y="267" on="0"/>
        <pt x="276" y="267" on="1"/>
        <pt x="234" y="268" on="1"/>
        <pt x="228" y="266" on="0"/>
        <pt x="209" y="265" on="0"/>
        <pt x="205" y="264" on="1"/>
        <pt x="199" y="234" on="0"/>
        <pt x="199" y="174" on="0"/>
      </contour>
      <contour>
        <pt x="202" y="4" on="1"/>
        <pt x="451" y="8" on="1"/>
        <pt x="459" y="43" on="0"/>
        <pt x="459" y="115" on="0"/>
        <pt x="458" y="130" on="1"/>
        <pt x="442" y="129" on="0"/>
        <pt x="410" y="129" on="1"/>
        <pt x="201" y="136" on="1"/>
        <pt x="190" y="136" on="0"/>
        <pt x="190" y="261" on="0"/>
        <pt x="210" y="280" on="0"/>
        <pt x="251" y="280" on="1"/>
        <pt x="293" y="278" on="1"/>
        <pt x="308" y="278" on="0"/>
        <pt x="316" y="281" on="1"/>
        <pt x="317" y="366" on="1"/>
        <pt x="317" y="389" on="0"/>
        <pt x="314" y="413" on="1"/>
        <pt x="257" y="414" on="1"/>
        <pt x="221" y="412" on="1"/>
        <pt x="183" y="412" on="0"/>
        <pt x="183" y="447" on="1"/>
        <pt x="183" y="535" on="0"/>
        <pt x="192" y="544" on="1"/>
        <pt x="297" y="548" on="1"/>
        <pt x="356" y="547" on="1"/>
        <pt x="411" y="547" on="0"/>
        <pt x="455" y="555" on="1"/>
        <pt x="458" y="651" on="1"/>
        <pt x="458" y="678" on="0"/>
        <pt x="456" y="691" on="1"/>
        <pt x="432" y="695" on="0"/>
        <pt x="397" y="695" on="1"/>
        <pt x="293" y="691" on="1"/>
        <pt x="266" y="690" on="0"/>
        <pt x="97" y="687" on="0"/>
        <pt x="51" y="684" on="1"/>
        <pt x="45" y="589" on="0"/>
        <pt x="45" y="447" on="1"/>
        <pt x="50" y="10" on="1"/>
        <pt x="126" y="4" on="0"/>
      </contour>
      <contour>
        <pt x="384" y="753" on="1"/>
        <pt x="285" y="754" on="1"/>
        <pt x="282" y="754" on="1"/>
        <pt x="271" y="760" on="0"/>
        <pt x="271" y="792" on="1"/>
        <pt x="276" y="859" on="1"/>
        <pt x="279" y="865" on="1"/>
        <pt x="301" y="874" on="0"/>
        <pt x="388" y="874" on="0"/>
        <pt x="395" y="859" on="1"/>
        <pt x="393" y="848" on="0"/>
        <pt x="391" y="767" on="0"/>
      </contour>
      <contour>
        <pt x="210" y="753" on="1"/>
        <pt x="111" y="754" on="1"/>
        <pt x="108" y="754" on="1"/>
        <pt x="97" y="760" on="0"/>
        <pt x="97" y="792" on="1"/>
        <pt x="102" y="859" on="1"/>
        <pt x="105" y="865" on="1"/>
        <pt x="127" y="874" on="0"/>
        <pt x="214" y="874" on="0"/>
        <pt x="221" y="859" on="1"/>
        <pt x="219" y="848" on="0"/>
        <pt x="217" y="767" on="0"/>
      </contour>
      <contour>
        <pt x="111" y="764" on="1"/>
        <pt x="205" y="763" on="1"/>
        <pt x="205" y="827" on="0"/>
        <pt x="210" y="858" on="1"/>
        <pt x="194" y="864" on="0"/>
        <pt x="149" y="864" on="0"/>
        <pt x="112" y="857" on="1"/>
        <pt x="107" y="790" on="1"/>
        <pt x="107" y="773" on="0"/>
      </contour>
      <contour>
        <pt x="285" y="764" on="1"/>
        <pt x="379" y="763" on="1"/>
        <pt x="379" y="827" on="0"/>
        <pt x="384" y="858" on="1"/>
        <pt x="367" y="864" on="0"/>
        <pt x="323" y="864" on="0"/>
        <pt x="286" y="857" on="1"/>
        <pt x="281" y="790" on="1"/>
        <pt x="281" y="773" on="0"/>
      </contour>
      <contour>
        <pt x="203" y="263" on="1"/>
        <pt x="201" y="263" on="1"/>
      </contour>
    </TTGlyph>
    <TTGlyph name="Egrave" xMin="35" yMin="-6" xMax="469" yMax="921">
      <contour>
        <pt x="204" y="146" on="1"/>
        <pt x="404" y="139" on="1"/>
        <pt x="423" y="139" on="0"/>
        <pt x="463" y="141" on="1"/>
        <pt x="468" y="136" on="1"/>
        <pt x="468" y="134" on="1"/>
        <pt x="469" y="118" on="0"/>
        <pt x="469" y="88" on="1"/>
        <pt x="469" y="12" on="0"/>
        <pt x="455" y="-2" on="1"/>
        <pt x="200" y="-6" on="1"/>
        <pt x="122" y="-6" on="0"/>
        <pt x="45" y="0" on="1"/>
        <pt x="44" y="1" on="0"/>
        <pt x="41" y="5" on="0"/>
        <pt x="40" y="6" on="1"/>
        <pt x="35" y="450" on="1"/>
        <pt x="35" y="594" on="0"/>
        <pt x="41" y="690" on="1"/>
        <pt x="46" y="694" on="1"/>
        <pt x="93" y="697" on="0"/>
        <pt x="266" y="700" on="0"/>
        <pt x="293" y="701" on="1"/>
        <pt x="396" y="706" on="1"/>
        <pt x="430" y="706" on="0"/>
        <pt x="461" y="700" on="1"/>
        <pt x="468" y="685" on="0"/>
        <pt x="468" y="658" on="1"/>
        <pt x="465" y="552" on="1"/>
        <pt x="458" y="537" on="0"/>
        <pt x="371" y="537" on="1"/>
        <pt x="286" y="538" on="1"/>
        <pt x="199" y="535" on="1"/>
        <pt x="195" y="463" on="1"/>
        <pt x="195" y="442" on="0"/>
        <pt x="199" y="426" on="1"/>
        <pt x="224" y="422" on="0"/>
        <pt x="259" y="422" on="1"/>
        <pt x="319" y="423" on="1"/>
        <pt x="327" y="406" on="0"/>
        <pt x="327" y="376" on="1"/>
        <pt x="325" y="301" on="1"/>
        <pt x="325" y="285" on="0"/>
        <pt x="326" y="278" on="1"/>
        <pt x="320" y="267" on="0"/>
        <pt x="276" y="267" on="1"/>
        <pt x="234" y="268" on="1"/>
        <pt x="228" y="266" on="0"/>
        <pt x="209" y="265" on="0"/>
        <pt x="205" y="264" on="1"/>
        <pt x="199" y="234" on="0"/>
        <pt x="199" y="174" on="0"/>
      </contour>
      <contour>
        <pt x="202" y="4" on="1"/>
        <pt x="451" y="8" on="1"/>
        <pt x="459" y="43" on="0"/>
        <pt x="459" y="115" on="0"/>
        <pt x="458" y="130" on="1"/>
        <pt x="442" y="129" on="0"/>
        <pt x="410" y="129" on="1"/>
        <pt x="201" y="136" on="1"/>
        <pt x="190" y="136" on="0"/>
        <pt x="190" y="261" on="0"/>
        <pt x="210" y="280" on="0"/>
        <pt x="251" y="280" on="1"/>
        <pt x="293" y="278" on="1"/>
        <pt x="308" y="278" on="0"/>
        <pt x="316" y="281" on="1"/>
        <pt x="317" y="366" on="1"/>
        <pt x="317" y="389" on="0"/>
        <pt x="314" y="413" on="1"/>
        <pt x="257" y="414" on="1"/>
        <pt x="221" y="412" on="1"/>
        <pt x="183" y="412" on="0"/>
        <pt x="183" y="447" on="1"/>
        <pt x="183" y="535" on="0"/>
        <pt x="192" y="544" on="1"/>
        <pt x="297" y="548" on="1"/>
        <pt x="356" y="547" on="1"/>
        <pt x="411" y="547" on="0"/>
        <pt x="455" y="555" on="1"/>
        <pt x="458" y="651" on="1"/>
        <pt x="458" y="678" on="0"/>
        <pt x="456" y="691" on="1"/>
        <pt x="432" y="695" on="0"/>
        <pt x="397" y="695" on="1"/>
        <pt x="293" y="691" on="1"/>
        <pt x="266" y="690" on="0"/>
        <pt x="97" y="687" on="0"/>
        <pt x="51" y="684" on="1"/>
        <pt x="45" y="589" on="0"/>
        <pt x="45" y="447" on="1"/>
        <pt x="50" y="10" on="1"/>
        <pt x="126" y="4" on="0"/>
      </contour>
      <contour>
        <pt x="350" y="750" on="1"/>
        <pt x="333" y="741" on="0"/>
        <pt x="209" y="741" on="0"/>
        <pt x="209" y="748" on="1"/>
        <pt x="201" y="762" on="0"/>
        <pt x="108" y="836" on="0"/>
        <pt x="108" y="843" on="1"/>
        <pt x="108" y="851" on="1"/>
        <pt x="154" y="897" on="0"/>
        <pt x="177" y="921" on="1"/>
        <pt x="183" y="921" on="1"/>
        <pt x="223" y="891" on="0"/>
        <pt x="340" y="765" on="0"/>
        <pt x="350" y="758" on="1"/>
      </contour>
      <contour>
        <pt x="216" y="754" on="1"/>
        <pt x="230" y="750" on="0"/>
        <pt x="312" y="750" on="0"/>
        <pt x="336" y="756" on="1"/>
        <pt x="323" y="767" on="0"/>
        <pt x="301" y="793" on="1"/>
        <pt x="221" y="879" on="0"/>
        <pt x="180" y="910" on="1"/>
        <pt x="117" y="847" on="1"/>
        <pt x="121" y="843" on="0"/>
        <pt x="148" y="821" on="1"/>
        <pt x="207" y="771" on="0"/>
      </contour>
      <contour>
        <pt x="203" y="263" on="1"/>
        <pt x="201" y="263" on="1"/>
      </contour>
    </TTGlyph>
    <TTGlyph name="Eth" xMin="-11" yMin="-5" xMax="465" yMax="711">
      <contour>
        <pt x="-5" y="415" on="1"/>
        <pt x="-5" y="415" on="0"/>
        <pt x="47" y="414" on="1"/>
        <pt x="48" y="569" on="1"/>
        <pt x="48" y="608" on="0"/>
        <pt x="46" y="686" on="1"/>
        <pt x="47" y="687" on="0"/>
        <pt x="50" y="691" on="0"/>
        <pt x="51" y="692" on="1"/>
        <pt x="59" y="693" on="0"/>
        <pt x="99" y="700" on="1"/>
        <pt x="170" y="711" on="0"/>
        <pt x="287" y="711" on="0"/>
        <pt x="389" y="645" on="0"/>
        <pt x="416" y="590" on="1"/>
        <pt x="465" y="486" on="0"/>
        <pt x="465" y="356" on="1"/>
        <pt x="465" y="270" on="0"/>
        <pt x="442" y="181" on="1"/>
        <pt x="411" y="60" on="0"/>
        <pt x="359" y="21" on="1"/>
        <pt x="325" y="-5" on="0"/>
        <pt x="253" y="-5" on="1"/>
        <pt x="56" y="-1" on="1"/>
        <pt x="45" y="4" on="0"/>
        <pt x="45" y="78" on="1"/>
        <pt x="47" y="266" on="1"/>
        <pt x="26" y="265" on="1"/>
        <pt x="2" y="265" on="0"/>
        <pt x="-6" y="273" on="1"/>
        <pt x="-11" y="400" on="1"/>
        <pt x="-11" y="411" on="0"/>
      </contour>
      <contour>
        <pt x="52" y="404" on="1"/>
        <pt x="0" y="405" on="1"/>
        <pt x="-1" y="387" on="1"/>
        <pt x="4" y="277" on="1"/>
        <pt x="22" y="277" on="1"/>
        <pt x="50" y="277" on="0"/>
        <pt x="57" y="271" on="1"/>
        <pt x="57" y="59" on="0"/>
        <pt x="61" y="9" on="1"/>
        <pt x="253" y="5" on="1"/>
        <pt x="322" y="5" on="0"/>
        <pt x="353" y="29" on="1"/>
        <pt x="403" y="68" on="0"/>
        <pt x="456" y="282" on="0"/>
        <pt x="456" y="365" on="0"/>
        <pt x="449" y="442" on="0"/>
        <pt x="431" y="532" on="0"/>
        <pt x="396" y="605" on="0"/>
        <pt x="371" y="636" on="1"/>
        <pt x="319" y="701" on="0"/>
        <pt x="218" y="701" on="1"/>
        <pt x="173" y="701" on="0"/>
        <pt x="56" y="683" on="1"/>
        <pt x="58" y="603" on="0"/>
        <pt x="58" y="565" on="1"/>
        <pt x="57" y="409" on="1"/>
      </contour>
      <contour>
        <pt x="163" y="407" on="1"/>
        <pt x="164" y="477" on="1"/>
        <pt x="164" y="493" on="0"/>
        <pt x="162" y="523" on="1"/>
        <pt x="165" y="529" on="1"/>
        <pt x="193" y="542" on="0"/>
        <pt x="217" y="542" on="1"/>
        <pt x="280" y="542" on="0"/>
        <pt x="338" y="423" on="0"/>
        <pt x="338" y="248" on="0"/>
        <pt x="310" y="202" on="1"/>
        <pt x="292" y="179" on="0"/>
        <pt x="246" y="158" on="0"/>
        <pt x="171" y="158" on="0"/>
        <pt x="164" y="172" on="1"/>
        <pt x="162" y="277" on="1"/>
        <pt x="167" y="283" on="1"/>
        <pt x="225" y="282" on="1"/>
        <pt x="221" y="380" on="1"/>
        <pt x="222" y="400" on="1"/>
        <pt x="198" y="399" on="1"/>
        <pt x="171" y="399" on="0"/>
      </contour>
      <contour>
        <pt x="175" y="172" on="1"/>
        <pt x="212" y="170" on="1"/>
        <pt x="275" y="170" on="0"/>
        <pt x="302" y="207" on="1"/>
        <pt x="328" y="252" on="0"/>
        <pt x="328" y="330" on="1"/>
        <pt x="328" y="529" on="0"/>
        <pt x="215" y="529" on="1"/>
        <pt x="193" y="529" on="0"/>
        <pt x="172" y="521" on="1"/>
        <pt x="174" y="491" on="0"/>
        <pt x="174" y="477" on="1"/>
        <pt x="173" y="411" on="1"/>
        <pt x="198" y="411" on="1"/>
        <pt x="225" y="411" on="0"/>
        <pt x="232" y="405" on="1"/>
        <pt x="232" y="371" on="1"/>
        <pt x="236" y="359" on="0"/>
        <pt x="236" y="284" on="0"/>
        <pt x="230" y="272" on="1"/>
        <pt x="172" y="273" on="1"/>
        <pt x="171" y="218" on="1"/>
        <pt x="171" y="176" on="0"/>
      </contour>
    </TTGlyph>
    <TTGlyph name="Euro" xMin="22" yMin="-8" xMax="470" yMax="714">
      <contour>
        <pt x="470" y="109" on="1"/>
        <pt x="469" y="65" on="1"/>
        <pt x="469" y="48" on="1"/>
        <pt x="469" y="11" on="0"/>
        <pt x="460" y="2" on="1"/>
        <pt x="404" y="-8" on="0"/>
        <pt x="280" y="-8" on="0"/>
        <pt x="226" y="-2" on="1"/>
        <pt x="102" y="18" on="0"/>
        <pt x="60" y="116" on="1"/>
        <pt x="45" y="151" on="0"/>
        <pt x="30" y="203" on="0"/>
        <pt x="26" y="249" on="1"/>
        <pt x="22" y="308" on="0"/>
        <pt x="22" y="412" on="1"/>
        <pt x="22" y="568" on="0"/>
        <pt x="76" y="631" on="1"/>
        <pt x="117" y="680" on="0"/>
        <pt x="241" y="713" on="0"/>
        <pt x="324" y="713" on="1"/>
        <pt x="379" y="712" on="1"/>
        <pt x="453" y="714" on="1"/>
        <pt x="463" y="693" on="0"/>
        <pt x="463" y="634" on="1"/>
        <pt x="463" y="634" on="0"/>
        <pt x="459" y="556" on="1"/>
        <pt x="458" y="555" on="1"/>
        <pt x="454" y="553" on="1"/>
        <pt x="356" y="557" on="1"/>
        <pt x="272" y="557" on="0"/>
        <pt x="238" y="512" on="1"/>
        <pt x="248" y="512" on="1"/>
        <pt x="258" y="513" on="0"/>
        <pt x="268" y="513" on="1"/>
        <pt x="315" y="513" on="0"/>
        <pt x="322" y="502" on="1"/>
        <pt x="322" y="401" on="1"/>
        <pt x="315" y="387" on="0"/>
        <pt x="251" y="387" on="1"/>
        <pt x="230" y="387" on="0"/>
        <pt x="194" y="389" on="1"/>
        <pt x="194" y="369" on="0"/>
        <pt x="195" y="366" on="1"/>
        <pt x="277" y="364" on="0"/>
        <pt x="317" y="364" on="1"/>
        <pt x="328" y="353" on="0"/>
        <pt x="328" y="264" on="0"/>
        <pt x="319" y="255" on="1"/>
        <pt x="292" y="250" on="0"/>
        <pt x="221" y="250" on="0"/>
        <pt x="208" y="249" on="1"/>
        <pt x="217" y="215" on="0"/>
        <pt x="282" y="178" on="0"/>
        <pt x="347" y="172" on="0"/>
        <pt x="446" y="169" on="0"/>
        <pt x="462" y="167" on="1"/>
        <pt x="470" y="150" on="0"/>
      </contour>
      <contour>
        <pt x="379" y="702" on="1"/>
        <pt x="322" y="703" on="1"/>
        <pt x="148" y="703" on="0"/>
        <pt x="83" y="624" on="1"/>
        <pt x="32" y="562" on="0"/>
        <pt x="32" y="414" on="1"/>
        <pt x="32" y="338" on="1"/>
        <pt x="32" y="254" on="0"/>
        <pt x="55" y="146" on="0"/>
        <pt x="75" y="109" on="0"/>
        <pt x="104" y="64" on="0"/>
        <pt x="123" y="50" on="1"/>
        <pt x="167" y="17" on="0"/>
        <pt x="227" y="8" on="1"/>
        <pt x="290" y="1" on="0"/>
        <pt x="402" y="1" on="0"/>
        <pt x="455" y="11" on="1"/>
        <pt x="459" y="34" on="0"/>
        <pt x="459" y="63" on="1"/>
        <pt x="456" y="157" on="1"/>
        <pt x="438" y="159" on="0"/>
        <pt x="360" y="161" on="0"/>
        <pt x="307" y="166" on="0"/>
        <pt x="276" y="174" on="1"/>
        <pt x="213" y="190" on="0"/>
        <pt x="197" y="253" on="1"/>
        <pt x="206" y="262" on="0"/>
        <pt x="255" y="262" on="1"/>
        <pt x="284" y="262" on="1"/>
        <pt x="300" y="262" on="0"/>
        <pt x="314" y="264" on="1"/>
        <pt x="318" y="279" on="0"/>
        <pt x="318" y="329" on="0"/>
        <pt x="313" y="354" on="1"/>
        <pt x="186" y="357" on="1"/>
        <pt x="184" y="358" on="0"/>
        <pt x="184" y="372" on="1"/>
        <pt x="184" y="386" on="1"/>
        <pt x="184" y="394" on="0"/>
        <pt x="189" y="399" on="1"/>
        <pt x="253" y="397" on="1"/>
        <pt x="285" y="397" on="0"/>
        <pt x="312" y="404" on="1"/>
        <pt x="312" y="498" on="1"/>
        <pt x="302" y="500" on="0"/>
        <pt x="280" y="500" on="1"/>
        <pt x="228" y="500" on="0"/>
        <pt x="224" y="509" on="1"/>
        <pt x="258" y="567" on="0"/>
        <pt x="356" y="567" on="1"/>
        <pt x="450" y="563" on="1"/>
        <pt x="453" y="633" on="1"/>
        <pt x="448" y="704" on="1"/>
      </contour>
    </TTGlyph>
    <TTGlyph name="F" xMin="35" yMin="-8" xMax="498" yMax="704">
      <contour>
        <pt x="359" y="306" on="1"/>
        <pt x="361" y="272" on="1"/>
        <pt x="361" y="262" on="0"/>
        <pt x="355" y="256" on="1"/>
        <pt x="354" y="256" on="1"/>
        <pt x="318" y="250" on="0"/>
        <pt x="229" y="241" on="1"/>
        <pt x="221" y="134" on="0"/>
        <pt x="221" y="1" on="1"/>
        <pt x="216" y="-8" on="0"/>
        <pt x="98" y="-8" on="0"/>
        <pt x="84" y="-7" on="1"/>
        <pt x="61" y="-8" on="1"/>
        <pt x="42" y="-8" on="0"/>
        <pt x="36" y="3" on="1"/>
        <pt x="36" y="3" on="0"/>
        <pt x="35" y="267" on="1"/>
        <pt x="38" y="538" on="1"/>
        <pt x="38" y="679" on="1"/>
        <pt x="41" y="685" on="1"/>
        <pt x="73" y="695" on="0"/>
        <pt x="153" y="696" on="0"/>
        <pt x="250" y="704" on="0"/>
        <pt x="416" y="704" on="0"/>
        <pt x="491" y="687" on="1"/>
        <pt x="498" y="672" on="0"/>
        <pt x="498" y="552" on="0"/>
        <pt x="495" y="544" on="1"/>
        <pt x="495" y="534" on="1"/>
        <pt x="490" y="525" on="0"/>
        <pt x="453" y="525" on="1"/>
        <pt x="438" y="525" on="1"/>
        <pt x="301" y="525" on="0"/>
        <pt x="227" y="514" on="1"/>
        <pt x="218" y="491" on="0"/>
        <pt x="218" y="440" on="0"/>
        <pt x="244" y="426" on="0"/>
        <pt x="319" y="426" on="0"/>
        <pt x="353" y="432" on="1"/>
        <pt x="363" y="421" on="0"/>
        <pt x="363" y="391" on="1"/>
      </contour>
      <contour>
        <pt x="230" y="251" on="1"/>
        <pt x="232" y="251" on="0"/>
        <pt x="264" y="256" on="0"/>
        <pt x="332" y="263" on="0"/>
        <pt x="350" y="265" on="1"/>
        <pt x="347" y="277" on="0"/>
        <pt x="347" y="293" on="1"/>
        <pt x="353" y="389" on="1"/>
        <pt x="353" y="410" on="0"/>
        <pt x="349" y="421" on="1"/>
        <pt x="319" y="416" on="0"/>
        <pt x="240" y="416" on="0"/>
        <pt x="208" y="433" on="0"/>
        <pt x="208" y="516" on="0"/>
        <pt x="223" y="523" on="1"/>
        <pt x="269" y="529" on="0"/>
        <pt x="337" y="532" on="1"/>
        <pt x="434" y="535" on="0"/>
        <pt x="473" y="535" on="0"/>
        <pt x="485" y="538" on="1"/>
        <pt x="485" y="545" on="0"/>
        <pt x="486" y="549" on="1"/>
        <pt x="485" y="678" on="1"/>
        <pt x="407" y="695" on="0"/>
        <pt x="194" y="695" on="0"/>
        <pt x="48" y="676" on="1"/>
        <pt x="46" y="5" on="1"/>
        <pt x="86" y="0" on="0"/>
        <pt x="163" y="0" on="0"/>
        <pt x="211" y="5" on="1"/>
        <pt x="211" y="140" on="0"/>
        <pt x="219" y="247" on="1"/>
        <pt x="220" y="248" on="0"/>
        <pt x="223" y="250" on="0"/>
        <pt x="224" y="251" on="1"/>
        <pt x="228" y="251" on="1"/>
        <pt x="228" y="252" on="0"/>
        <pt x="229" y="252" on="1"/>
        <pt x="230" y="254" on="1"/>
      </contour>
    </TTGlyph>
    <TTGlyph name="G" xMin="21" yMin="-20" xMax="464" yMax="706">
      <contour>
        <pt x="237" y="304" on="1"/>
        <pt x="235" y="346" on="1"/>
        <pt x="241" y="353" on="1"/>
        <pt x="267" y="366" on="0"/>
        <pt x="313" y="366" on="1"/>
        <pt x="450" y="357" on="1"/>
        <pt x="454" y="355" on="1"/>
        <pt x="464" y="345" on="0"/>
        <pt x="464" y="194" on="0"/>
        <pt x="462" y="148" on="0"/>
        <pt x="446" y="73" on="0"/>
        <pt x="429" y="50" on="1"/>
        <pt x="379" y="-20" on="0"/>
        <pt x="222" y="-20" on="1"/>
        <pt x="132" y="-20" on="0"/>
        <pt x="84" y="35" on="1"/>
        <pt x="54" y="68" on="0"/>
        <pt x="40" y="136" on="1"/>
        <pt x="23" y="219" on="0"/>
        <pt x="21" y="343" on="0"/>
        <pt x="21" y="353" on="1"/>
        <pt x="21" y="424" on="1"/>
        <pt x="21" y="627" on="0"/>
        <pt x="112" y="679" on="1"/>
        <pt x="160" y="706" on="0"/>
        <pt x="345" y="706" on="0"/>
        <pt x="457" y="593" on="0"/>
        <pt x="457" y="510" on="1"/>
        <pt x="452" y="471" on="1"/>
        <pt x="441" y="465" on="0"/>
        <pt x="420" y="465" on="1"/>
        <pt x="404" y="466" on="1"/>
        <pt x="394" y="463" on="0"/>
        <pt x="338" y="463" on="0"/>
        <pt x="321" y="469" on="1"/>
        <pt x="318" y="475" on="0"/>
        <pt x="304" y="509" on="0"/>
        <pt x="299" y="518" on="1"/>
        <pt x="284" y="545" on="0"/>
        <pt x="260" y="552" on="1"/>
        <pt x="217" y="553" on="1"/>
        <pt x="167" y="535" on="0"/>
        <pt x="167" y="280" on="1"/>
        <pt x="167" y="155" on="0"/>
        <pt x="228" y="137" on="1"/>
        <pt x="274" y="137" on="0"/>
        <pt x="316" y="174" on="0"/>
        <pt x="316" y="233" on="1"/>
        <pt x="291" y="233" on="1"/>
        <pt x="284" y="229" on="0"/>
        <pt x="247" y="229" on="0"/>
        <pt x="234" y="250" on="0"/>
        <pt x="234" y="298" on="0"/>
      </contour>
      <contour>
        <pt x="446" y="347" on="1"/>
        <pt x="313" y="355" on="1"/>
        <pt x="268" y="355" on="0"/>
        <pt x="246" y="344" on="1"/>
        <pt x="245" y="343" on="1"/>
        <pt x="245" y="342" on="1"/>
        <pt x="249" y="330" on="0"/>
        <pt x="249" y="315" on="1"/>
        <pt x="245" y="258" on="1"/>
        <pt x="245" y="240" on="0"/>
        <pt x="262" y="240" on="1"/>
        <pt x="300" y="244" on="1"/>
        <pt x="317" y="244" on="0"/>
        <pt x="328" y="234" on="0"/>
        <pt x="328" y="222" on="1"/>
        <pt x="328" y="177" on="0"/>
        <pt x="280" y="126" on="0"/>
        <pt x="212" y="126" on="0"/>
        <pt x="176" y="159" on="0"/>
        <pt x="169" y="190" on="1"/>
        <pt x="158" y="240" on="0"/>
        <pt x="158" y="337" on="0"/>
        <pt x="160" y="393" on="0"/>
        <pt x="162" y="439" on="0"/>
        <pt x="164" y="459" on="0"/>
        <pt x="169" y="501" on="0"/>
        <pt x="178" y="524" on="0"/>
        <pt x="185" y="537" on="1"/>
        <pt x="198" y="562" on="0"/>
        <pt x="235" y="562" on="1"/>
        <pt x="306" y="562" on="0"/>
        <pt x="327" y="478" on="1"/>
        <pt x="399" y="475" on="1"/>
        <pt x="407" y="477" on="0"/>
        <pt x="411" y="477" on="1"/>
        <pt x="427" y="476" on="1"/>
        <pt x="429" y="477" on="0"/>
        <pt x="434" y="477" on="1"/>
        <pt x="447" y="477" on="0"/>
        <pt x="447" y="498" on="1"/>
        <pt x="447" y="517" on="1"/>
        <pt x="447" y="603" on="0"/>
        <pt x="320" y="696" on="0"/>
        <pt x="138" y="696" on="0"/>
        <pt x="84" y="645" on="1"/>
        <pt x="47" y="610" on="0"/>
        <pt x="38" y="514" on="1"/>
        <pt x="32" y="448" on="0"/>
        <pt x="32" y="349" on="1"/>
        <pt x="32" y="114" on="0"/>
        <pt x="91" y="42" on="1"/>
        <pt x="134" y="-10" on="0"/>
        <pt x="222" y="-10" on="1"/>
        <pt x="396" y="-10" on="0"/>
        <pt x="433" y="74" on="1"/>
        <pt x="456" y="125" on="0"/>
        <pt x="456" y="206" on="1"/>
        <pt x="456" y="237" on="0"/>
      </contour>
    </TTGlyph>
    <TTGlyph name="H" xMin="32" yMin="-6" xMax="474" yMax="715">
      <contour>
        <pt x="80" y="702" on="1"/>
        <pt x="139" y="705" on="1"/>
        <pt x="170" y="705" on="0"/>
        <pt x="175" y="696" on="1"/>
        <pt x="181" y="657" on="0"/>
        <pt x="186" y="494" on="0"/>
        <pt x="193" y="453" on="1"/>
        <pt x="192" y="453" on="0"/>
        <pt x="192" y="456" on="1"/>
        <pt x="193" y="449" on="0"/>
        <pt x="195" y="437" on="1"/>
        <pt x="215" y="433" on="0"/>
        <pt x="268" y="433" on="0"/>
        <pt x="296" y="438" on="1"/>
        <pt x="303" y="531" on="0"/>
        <pt x="303" y="646" on="0"/>
        <pt x="300" y="694" on="1"/>
        <pt x="309" y="703" on="0"/>
        <pt x="375" y="715" on="0"/>
        <pt x="419" y="715" on="0"/>
        <pt x="430" y="711" on="1"/>
        <pt x="442" y="711" on="1"/>
        <pt x="447" y="706" on="1"/>
        <pt x="459" y="350" on="0"/>
        <pt x="474" y="6" on="1"/>
        <pt x="470" y="1" on="1"/>
        <pt x="446" y="-5" on="0"/>
        <pt x="407" y="-5" on="1"/>
        <pt x="343" y="-4" on="1"/>
        <pt x="340" y="-5" on="0"/>
        <pt x="330" y="-5" on="0"/>
        <pt x="323" y="-1" on="1"/>
        <pt x="316" y="46" on="0"/>
        <pt x="314" y="229" on="0"/>
        <pt x="308" y="272" on="1"/>
        <pt x="280" y="277" on="0"/>
        <pt x="230" y="277" on="0"/>
        <pt x="200" y="271" on="1"/>
        <pt x="196" y="243" on="0"/>
        <pt x="196" y="207" on="1"/>
        <pt x="200" y="77" on="1"/>
        <pt x="200" y="35" on="0"/>
        <pt x="195" y="5" on="1"/>
        <pt x="193" y="5" on="0"/>
        <pt x="193" y="3" on="1"/>
        <pt x="179" y="-6" on="0"/>
        <pt x="156" y="-6" on="1"/>
        <pt x="82" y="2" on="1"/>
        <pt x="69" y="2" on="0"/>
        <pt x="57" y="-3" on="1"/>
        <pt x="40" y="3" on="0"/>
        <pt x="40" y="110" on="1"/>
        <pt x="40" y="168" on="1"/>
        <pt x="32" y="579" on="1"/>
        <pt x="32" y="699" on="0"/>
        <pt x="35" y="699" on="1"/>
        <pt x="35" y="698" on="1"/>
        <pt x="40" y="704" on="1"/>
      </contour>
      <contour>
        <pt x="190" y="84" on="1"/>
        <pt x="187" y="210" on="1"/>
        <pt x="187" y="247" on="0"/>
        <pt x="191" y="276" on="1"/>
        <pt x="215" y="288" on="0"/>
        <pt x="305" y="288" on="0"/>
        <pt x="316" y="280" on="1"/>
        <pt x="323" y="274" on="0"/>
        <pt x="323" y="72" on="0"/>
        <pt x="332" y="5" on="1"/>
        <pt x="338" y="5" on="1"/>
        <pt x="351" y="9" on="0"/>
        <pt x="373" y="9" on="1"/>
        <pt x="430" y="7" on="1"/>
        <pt x="447" y="7" on="0"/>
        <pt x="464" y="10" on="1"/>
        <pt x="437" y="701" on="1"/>
        <pt x="430" y="701" on="0"/>
        <pt x="365" y="702" on="0"/>
        <pt x="310" y="691" on="1"/>
        <pt x="313" y="646" on="0"/>
        <pt x="313" y="530" on="0"/>
        <pt x="306" y="434" on="1"/>
        <pt x="301" y="429" on="1"/>
        <pt x="295" y="428" on="0"/>
        <pt x="243" y="423" on="0"/>
        <pt x="204" y="423" on="0"/>
        <pt x="186" y="432" on="1"/>
        <pt x="179" y="477" on="0"/>
        <pt x="171" y="650" on="0"/>
        <pt x="165" y="692" on="1"/>
        <pt x="158" y="693" on="0"/>
        <pt x="144" y="693" on="1"/>
        <pt x="74" y="689" on="1"/>
        <pt x="57" y="689" on="0"/>
        <pt x="45" y="693" on="1"/>
        <pt x="42" y="621" on="0"/>
        <pt x="42" y="550" on="1"/>
        <pt x="42" y="241" on="0"/>
        <pt x="55" y="68" on="1"/>
        <pt x="58" y="8" on="1"/>
        <pt x="68" y="11" on="0"/>
        <pt x="79" y="11" on="1"/>
        <pt x="154" y="3" on="1"/>
        <pt x="172" y="3" on="0"/>
        <pt x="185" y="10" on="1"/>
        <pt x="190" y="40" on="0"/>
      </contour>
    </TTGlyph>
    <TTGlyph name="H18533" xMin="45" yMin="2" xMax="538" yMax="497">
      <contour>
        <pt x="459" y="53" on="0"/>
        <pt x="501" y="99" on="0"/>
        <pt x="515" y="138" on="0"/>
        <pt x="515" y="169" on="0"/>
        <pt x="530" y="267" on="0"/>
        <pt x="530" y="293" on="1"/>
        <pt x="530" y="487" on="0"/>
        <pt x="294" y="487" on="1"/>
        <pt x="251" y="487" on="0"/>
        <pt x="190" y="480" on="0"/>
        <pt x="123" y="454" on="0"/>
        <pt x="102" y="432" on="1"/>
        <pt x="55" y="379" on="0"/>
        <pt x="55" y="271" on="1"/>
        <pt x="55" y="231" on="1"/>
        <pt x="55" y="106" on="0"/>
        <pt x="158" y="12" on="0"/>
        <pt x="256" y="12" on="1"/>
        <pt x="382" y="12" on="0"/>
        <pt x="436" y="41" on="1"/>
      </contour>
      <contour>
        <pt x="98" y="53" on="1"/>
        <pt x="65" y="83" on="0"/>
        <pt x="45" y="171" on="0"/>
        <pt x="45" y="232" on="1"/>
        <pt x="45" y="273" on="1"/>
        <pt x="45" y="433" on="0"/>
        <pt x="146" y="474" on="1"/>
        <pt x="201" y="497" on="0"/>
        <pt x="286" y="497" on="1"/>
        <pt x="422" y="497" on="0"/>
        <pt x="463" y="456" on="1"/>
        <pt x="538" y="430" on="0"/>
        <pt x="538" y="285" on="1"/>
        <pt x="538" y="261" on="0"/>
        <pt x="525" y="135" on="0"/>
        <pt x="522" y="128" on="1"/>
        <pt x="490" y="45" on="0"/>
        <pt x="414" y="21" on="1"/>
        <pt x="354" y="2" on="0"/>
        <pt x="155" y="2" on="0"/>
      </contour>
    </TTGlyph>
    <TTGlyph name="I" xMin="32" yMin="-11" xMax="227" yMax="713">
      <contour>
        <pt x="227" y="703" on="1"/>
        <pt x="220" y="227" on="1"/>
        <pt x="220" y="94" on="0"/>
        <pt x="226" y="5" on="1"/>
        <pt x="210" y="-11" on="0"/>
        <pt x="168" y="-11" on="1"/>
        <pt x="65" y="-4" on="1"/>
        <pt x="50" y="-4" on="0"/>
        <pt x="43" y="-7" on="1"/>
        <pt x="34" y="-3" on="1"/>
        <pt x="38" y="73" on="0"/>
        <pt x="38" y="167" on="1"/>
        <pt x="32" y="521" on="1"/>
        <pt x="32" y="571" on="0"/>
        <pt x="39" y="705" on="0"/>
        <pt x="47" y="713" on="1"/>
        <pt x="160" y="707" on="1"/>
        <pt x="222" y="708" on="1"/>
      </contour>
      <contour>
        <pt x="164" y="0" on="1"/>
        <pt x="216" y="7" on="1"/>
        <pt x="210" y="95" on="0"/>
        <pt x="210" y="226" on="1"/>
        <pt x="217" y="698" on="1"/>
        <pt x="159" y="697" on="1"/>
        <pt x="52" y="703" on="1"/>
        <pt x="43" y="627" on="0"/>
        <pt x="43" y="527" on="1"/>
        <pt x="49" y="207" on="1"/>
        <pt x="49" y="117" on="0"/>
        <pt x="44" y="2" on="1"/>
        <pt x="58" y="4" on="0"/>
        <pt x="69" y="4" on="1"/>
      </contour>
    </TTGlyph>
    <TTGlyph name="Iacute" xMin="32" yMin="-11" xMax="301" yMax="921">
      <contour>
        <pt x="230" y="709" on="1"/>
        <pt x="220" y="227" on="1"/>
        <pt x="220" y="94" on="0"/>
        <pt x="226" y="5" on="1"/>
        <pt x="210" y="-11" on="0"/>
        <pt x="168" y="-11" on="1"/>
        <pt x="59" y="-7" on="1"/>
        <pt x="40" y="-7" on="0"/>
        <pt x="33" y="-9" on="1"/>
        <pt x="38" y="86" on="0"/>
        <pt x="38" y="167" on="1"/>
        <pt x="32" y="521" on="1"/>
        <pt x="32" y="571" on="0"/>
        <pt x="39" y="705" on="0"/>
        <pt x="47" y="713" on="1"/>
        <pt x="160" y="707" on="1"/>
        <pt x="222" y="708" on="1"/>
      </contour>
      <contour>
        <pt x="164" y="0" on="1"/>
        <pt x="216" y="7" on="1"/>
        <pt x="210" y="95" on="0"/>
        <pt x="210" y="226" on="1"/>
        <pt x="217" y="698" on="1"/>
        <pt x="159" y="697" on="1"/>
        <pt x="52" y="703" on="1"/>
        <pt x="43" y="627" on="0"/>
        <pt x="43" y="527" on="1"/>
        <pt x="49" y="207" on="1"/>
        <pt x="49" y="117" on="0"/>
        <pt x="44" y="2" on="1"/>
        <pt x="58" y="4" on="0"/>
        <pt x="69" y="4" on="1"/>
      </contour>
      <contour>
        <pt x="198" y="748" on="1"/>
        <pt x="191" y="741" on="0"/>
        <pt x="57" y="741" on="0"/>
        <pt x="47" y="751" on="1"/>
        <pt x="56" y="758" on="1"/>
        <pt x="84" y="782" on="0"/>
        <pt x="191" y="895" on="0"/>
        <pt x="223" y="921" on="1"/>
        <pt x="243" y="911" on="0"/>
        <pt x="295" y="853" on="0"/>
        <pt x="301" y="847" on="1"/>
      </contour>
      <contour>
        <pt x="69" y="756" on="1"/>
        <pt x="102" y="750" on="0"/>
        <pt x="169" y="750" on="0"/>
        <pt x="189" y="754" on="1"/>
        <pt x="199" y="773" on="0"/>
        <pt x="279" y="838" on="0"/>
        <pt x="288" y="847" on="1"/>
        <pt x="246" y="889" on="0"/>
        <pt x="226" y="910" on="1"/>
        <pt x="194" y="884" on="0"/>
        <pt x="88" y="774" on="0"/>
      </contour>
    </TTGlyph>
    <TTGlyph name="Icircumflex" xMin="-33" yMin="-11" xMax="320" yMax="927">
      <contour>
        <pt x="227" y="703" on="1"/>
        <pt x="220" y="227" on="1"/>
        <pt x="220" y="94" on="0"/>
        <pt x="226" y="5" on="1"/>
        <pt x="210" y="-11" on="0"/>
        <pt x="168" y="-11" on="1"/>
        <pt x="65" y="-4" on="1"/>
        <pt x="34" y="-5" on="1"/>
        <pt x="38" y="71" on="0"/>
        <pt x="38" y="167" on="1"/>
        <pt x="32" y="521" on="1"/>
        <pt x="32" y="571" on="0"/>
        <pt x="39" y="705" on="0"/>
        <pt x="47" y="713" on="1"/>
        <pt x="160" y="707" on="1"/>
        <pt x="222" y="708" on="1"/>
      </contour>
      <contour>
        <pt x="164" y="0" on="1"/>
        <pt x="216" y="7" on="1"/>
        <pt x="210" y="95" on="0"/>
        <pt x="210" y="226" on="1"/>
        <pt x="217" y="698" on="1"/>
        <pt x="159" y="697" on="1"/>
        <pt x="52" y="703" on="1"/>
        <pt x="43" y="627" on="0"/>
        <pt x="43" y="527" on="1"/>
        <pt x="49" y="207" on="1"/>
        <pt x="49" y="117" on="0"/>
        <pt x="44" y="2" on="1"/>
        <pt x="58" y="4" on="0"/>
        <pt x="69" y="4" on="1"/>
      </contour>
      <contour>
        <pt x="309" y="751" on="0"/>
        <pt x="249" y="742" on="0"/>
        <pt x="195" y="742" on="0"/>
        <pt x="158" y="766" on="0"/>
        <pt x="141" y="794" on="1"/>
        <pt x="128" y="784" on="0"/>
        <pt x="103" y="755" on="0"/>
        <pt x="80" y="744" on="0"/>
        <pt x="15" y="744" on="0"/>
        <pt x="-18" y="750" on="1"/>
        <pt x="-33" y="752" on="1"/>
        <pt x="2" y="799" on="0"/>
        <pt x="138" y="919" on="0"/>
        <pt x="146" y="927" on="1"/>
        <pt x="175" y="893" on="0"/>
        <pt x="299" y="772" on="0"/>
        <pt x="311" y="759" on="1"/>
        <pt x="320" y="751" on="1"/>
      </contour>
      <contour>
        <pt x="-9" y="759" on="1"/>
        <pt x="23" y="755" on="0"/>
        <pt x="84" y="755" on="0"/>
        <pt x="109" y="772" on="0"/>
        <pt x="131" y="802" on="0"/>
        <pt x="141" y="809" on="1"/>
        <pt x="185" y="751" on="0"/>
        <pt x="231" y="751" on="1"/>
        <pt x="242" y="751" on="0"/>
        <pt x="252" y="754" on="1"/>
        <pt x="259" y="754" on="0"/>
        <pt x="287" y="759" on="0"/>
        <pt x="295" y="760" on="1"/>
        <pt x="144" y="911" on="1"/>
        <pt x="105" y="875" on="1"/>
        <pt x="24" y="800" on="0"/>
      </contour>
    </TTGlyph>
    <TTGlyph name="Idieresis" xMin="-9" yMin="-11" xMax="289" yMax="874">
      <contour>
        <pt x="160" y="707" on="1"/>
        <pt x="222" y="708" on="1"/>
        <pt x="226" y="708" on="1"/>
        <pt x="220" y="227" on="1"/>
        <pt x="220" y="94" on="0"/>
        <pt x="226" y="5" on="1"/>
        <pt x="210" y="-11" on="0"/>
        <pt x="168" y="-11" on="1"/>
        <pt x="65" y="-4" on="1"/>
        <pt x="41" y="-4" on="0"/>
        <pt x="34" y="-3" on="1"/>
        <pt x="38" y="73" on="0"/>
        <pt x="38" y="167" on="1"/>
        <pt x="32" y="521" on="1"/>
        <pt x="32" y="571" on="0"/>
        <pt x="39" y="705" on="0"/>
        <pt x="47" y="713" on="1"/>
      </contour>
      <contour>
        <pt x="164" y="0" on="1"/>
        <pt x="216" y="7" on="1"/>
        <pt x="210" y="95" on="0"/>
        <pt x="210" y="226" on="1"/>
        <pt x="217" y="698" on="1"/>
        <pt x="159" y="697" on="1"/>
        <pt x="52" y="703" on="1"/>
        <pt x="43" y="627" on="0"/>
        <pt x="43" y="527" on="1"/>
        <pt x="49" y="207" on="1"/>
        <pt x="49" y="117" on="0"/>
        <pt x="44" y="2" on="1"/>
        <pt x="58" y="4" on="0"/>
        <pt x="69" y="4" on="1"/>
      </contour>
      <contour>
        <pt x="104" y="753" on="1"/>
        <pt x="5" y="754" on="1"/>
        <pt x="2" y="754" on="1"/>
        <pt x="-9" y="760" on="0"/>
        <pt x="-9" y="792" on="1"/>
        <pt x="-4" y="859" on="1"/>
        <pt x="-4" y="865" on="1"/>
        <pt x="18" y="874" on="0"/>
        <pt x="108" y="874" on="0"/>
        <pt x="115" y="859" on="1"/>
        <pt x="113" y="848" on="0"/>
        <pt x="111" y="767" on="0"/>
      </contour>
      <contour>
        <pt x="278" y="753" on="1"/>
        <pt x="179" y="754" on="1"/>
        <pt x="176" y="754" on="1"/>
        <pt x="165" y="760" on="0"/>
        <pt x="165" y="792" on="1"/>
        <pt x="170" y="859" on="1"/>
        <pt x="170" y="865" on="1"/>
        <pt x="192" y="874" on="0"/>
        <pt x="282" y="874" on="0"/>
        <pt x="289" y="859" on="1"/>
        <pt x="287" y="848" on="0"/>
        <pt x="285" y="767" on="0"/>
      </contour>
      <contour>
        <pt x="179" y="764" on="1"/>
        <pt x="273" y="763" on="1"/>
        <pt x="273" y="827" on="0"/>
        <pt x="278" y="858" on="1"/>
        <pt x="262" y="864" on="0"/>
        <pt x="217" y="864" on="0"/>
        <pt x="180" y="857" on="1"/>
        <pt x="175" y="790" on="1"/>
        <pt x="175" y="773" on="0"/>
      </contour>
      <contour>
        <pt x="5" y="764" on="1"/>
        <pt x="99" y="763" on="1"/>
        <pt x="99" y="827" on="0"/>
        <pt x="104" y="858" on="1"/>
        <pt x="88" y="864" on="0"/>
        <pt x="43" y="864" on="0"/>
        <pt x="6" y="857" on="1"/>
        <pt x="1" y="790" on="1"/>
        <pt x="1" y="773" on="0"/>
      </contour>
    </TTGlyph>
    <TTGlyph name="Igrave" xMin="-19" yMin="-11" xMax="230" yMax="924">
      <contour>
        <pt x="229" y="709" on="1"/>
        <pt x="220" y="227" on="1"/>
        <pt x="220" y="94" on="0"/>
        <pt x="226" y="5" on="1"/>
        <pt x="210" y="-11" on="0"/>
        <pt x="168" y="-11" on="1"/>
        <pt x="73" y="-4" on="1"/>
        <pt x="59" y="-4" on="0"/>
        <pt x="34" y="-8" on="1"/>
        <pt x="38" y="68" on="0"/>
        <pt x="38" y="167" on="1"/>
        <pt x="32" y="521" on="1"/>
        <pt x="32" y="571" on="0"/>
        <pt x="39" y="705" on="0"/>
        <pt x="47" y="713" on="1"/>
        <pt x="160" y="707" on="1"/>
        <pt x="222" y="708" on="1"/>
      </contour>
      <contour>
        <pt x="164" y="0" on="1"/>
        <pt x="216" y="7" on="1"/>
        <pt x="210" y="95" on="0"/>
        <pt x="210" y="226" on="1"/>
        <pt x="217" y="698" on="1"/>
        <pt x="159" y="697" on="1"/>
        <pt x="52" y="703" on="1"/>
        <pt x="43" y="627" on="0"/>
        <pt x="43" y="527" on="1"/>
        <pt x="49" y="207" on="1"/>
        <pt x="49" y="117" on="0"/>
        <pt x="44" y="2" on="1"/>
        <pt x="58" y="4" on="0"/>
        <pt x="69" y="4" on="1"/>
      </contour>
      <contour>
        <pt x="-19" y="851" on="1"/>
        <pt x="53" y="924" on="1"/>
        <pt x="94" y="894" on="0"/>
        <pt x="154" y="830" on="1"/>
        <pt x="206" y="773" on="0"/>
        <pt x="230" y="752" on="1"/>
        <pt x="210" y="741" on="0"/>
        <pt x="82" y="741" on="0"/>
        <pt x="82" y="748" on="1"/>
        <pt x="74" y="762" on="0"/>
        <pt x="-19" y="836" on="0"/>
        <pt x="-19" y="843" on="1"/>
      </contour>
      <contour>
        <pt x="89" y="754" on="1"/>
        <pt x="103" y="750" on="0"/>
        <pt x="185" y="750" on="0"/>
        <pt x="209" y="756" on="1"/>
        <pt x="196" y="767" on="0"/>
        <pt x="174" y="793" on="1"/>
        <pt x="94" y="879" on="0"/>
        <pt x="53" y="910" on="1"/>
        <pt x="-10" y="847" on="1"/>
        <pt x="-6" y="843" on="0"/>
        <pt x="20" y="821" on="1"/>
        <pt x="80" y="771" on="0"/>
      </contour>
    </TTGlyph>
    <TTGlyph name="J" xMin="-5" yMin="-14" xMax="434" yMax="717">
      <contour>
        <pt x="430" y="712" on="1"/>
        <pt x="429" y="662" on="1"/>
        <pt x="434" y="464" on="1"/>
        <pt x="431" y="277" on="1"/>
        <pt x="430" y="229" on="0"/>
        <pt x="428" y="180" on="0"/>
        <pt x="409" y="99" on="0"/>
        <pt x="391" y="73" on="1"/>
        <pt x="331" y="-14" on="0"/>
        <pt x="192" y="-14" on="1"/>
        <pt x="-5" y="-14" on="0"/>
        <pt x="-5" y="268" on="1"/>
        <pt x="-5" y="285" on="0"/>
        <pt x="20" y="299" on="0"/>
        <pt x="61" y="299" on="1"/>
        <pt x="158" y="299" on="0"/>
        <pt x="164" y="286" on="1"/>
        <pt x="164" y="182" on="0"/>
        <pt x="214" y="172" on="1"/>
        <pt x="221" y="170" on="0"/>
        <pt x="223" y="170" on="1"/>
        <pt x="237" y="170" on="1"/>
        <pt x="275" y="185" on="0"/>
        <pt x="275" y="251" on="1"/>
        <pt x="272" y="404" on="1"/>
        <pt x="274" y="709" on="1"/>
        <pt x="275" y="710" on="0"/>
        <pt x="278" y="714" on="0"/>
        <pt x="279" y="715" on="1"/>
        <pt x="327" y="717" on="0"/>
        <pt x="425" y="717" on="1"/>
      </contour>
      <contour>
        <pt x="280" y="526" on="1"/>
        <pt x="285" y="249" on="1"/>
        <pt x="285" y="159" on="0"/>
        <pt x="230" y="159" on="1"/>
        <pt x="154" y="159" on="0"/>
        <pt x="154" y="282" on="1"/>
        <pt x="107" y="289" on="0"/>
        <pt x="41" y="289" on="0"/>
        <pt x="8" y="284" on="1"/>
        <pt x="6" y="264" on="0"/>
        <pt x="6" y="249" on="1"/>
        <pt x="6" y="183" on="0"/>
        <pt x="46" y="52" on="0"/>
        <pt x="123" y="-2" on="0"/>
        <pt x="194" y="-2" on="1"/>
        <pt x="336" y="-2" on="0"/>
        <pt x="383" y="78" on="1"/>
        <pt x="416" y="130" on="0"/>
        <pt x="420" y="226" on="1"/>
        <pt x="423" y="313" on="0"/>
        <pt x="423" y="373" on="1"/>
        <pt x="417" y="637" on="1"/>
        <pt x="417" y="661" on="0"/>
        <pt x="419" y="707" on="1"/>
        <pt x="397" y="706" on="0"/>
        <pt x="307" y="706" on="0"/>
        <pt x="284" y="705" on="1"/>
      </contour>
      <contour>
        <pt x="158" y="-1" on="1"/>
        <pt x="157" y="-1" on="1"/>
      </contour>
    </TTGlyph>
    <TTGlyph name="K" xMin="32" yMin="-9" xMax="468" yMax="704">
      <contour>
        <pt x="363" y="700" on="1"/>
        <pt x="439" y="702" on="1"/>
        <pt x="464" y="702" on="0"/>
        <pt x="467" y="693" on="1"/>
        <pt x="447" y="626" on="0"/>
        <pt x="317" y="407" on="0"/>
        <pt x="297" y="359" on="1"/>
        <pt x="411" y="123" on="0"/>
        <pt x="468" y="6" on="1"/>
        <pt x="464" y="-1" on="1"/>
        <pt x="434" y="-6" on="0"/>
        <pt x="391" y="-6" on="1"/>
        <pt x="321" y="-2" on="1"/>
        <pt x="276" y="53" on="0"/>
        <pt x="199" y="227" on="0"/>
        <pt x="190" y="245" on="1"/>
        <pt x="189" y="231" on="0"/>
        <pt x="189" y="203" on="1"/>
        <pt x="194" y="5" on="1"/>
        <pt x="188" y="-9" on="0"/>
        <pt x="51" y="-9" on="0"/>
        <pt x="38" y="4" on="1"/>
        <pt x="32" y="109" on="0"/>
        <pt x="32" y="215" on="1"/>
        <pt x="40" y="698" on="1"/>
        <pt x="41" y="699" on="0"/>
        <pt x="44" y="703" on="0"/>
        <pt x="45" y="704" on="1"/>
        <pt x="45" y="704" on="0"/>
        <pt x="179" y="702" on="1"/>
        <pt x="184" y="697" on="1"/>
        <pt x="186" y="623" on="0"/>
        <pt x="186" y="475" on="1"/>
        <pt x="212" y="509" on="0"/>
        <pt x="240" y="556" on="0"/>
        <pt x="258" y="590" on="1"/>
        <pt x="298" y="665" on="0"/>
        <pt x="322" y="700" on="1"/>
        <pt x="323" y="701" on="0"/>
        <pt x="327" y="703" on="1"/>
        <pt x="345" y="700" on="0"/>
      </contour>
      <contour>
        <pt x="184" y="9" on="1"/>
        <pt x="179" y="202" on="1"/>
        <pt x="179" y="222" on="0"/>
        <pt x="181" y="262" on="1"/>
        <pt x="179" y="264" on="0"/>
        <pt x="179" y="266" on="1"/>
        <pt x="191" y="265" on="1"/>
        <pt x="206" y="237" on="0"/>
        <pt x="230" y="182" on="1"/>
        <pt x="285" y="60" on="0"/>
        <pt x="327" y="7" on="1"/>
        <pt x="358" y="4" on="0"/>
        <pt x="427" y="4" on="0"/>
        <pt x="456" y="8" on="1"/>
        <pt x="344" y="240" on="0"/>
        <pt x="288" y="357" on="1"/>
        <pt x="288" y="361" on="1"/>
        <pt x="307" y="409" on="0"/>
        <pt x="437" y="626" on="0"/>
        <pt x="456" y="691" on="1"/>
        <pt x="436" y="693" on="0"/>
        <pt x="426" y="693" on="1"/>
        <pt x="357" y="690" on="1"/>
        <pt x="346" y="690" on="0"/>
        <pt x="328" y="692" on="1"/>
        <pt x="299" y="651" on="0"/>
        <pt x="270" y="595" on="0"/>
        <pt x="241" y="536" on="0"/>
        <pt x="234" y="524" on="1"/>
        <pt x="214" y="484" on="0"/>
        <pt x="187" y="457" on="1"/>
        <pt x="187" y="456" on="0"/>
        <pt x="186" y="454" on="1"/>
        <pt x="179" y="454" on="0"/>
        <pt x="176" y="457" on="1"/>
        <pt x="174" y="465" on="0"/>
        <pt x="174" y="541" on="1"/>
        <pt x="175" y="628" on="1"/>
        <pt x="175" y="671" on="0"/>
        <pt x="174" y="692" on="1"/>
        <pt x="50" y="694" on="1"/>
        <pt x="42" y="204" on="1"/>
        <pt x="42" y="89" on="0"/>
        <pt x="47" y="8" on="1"/>
        <pt x="61" y="2" on="0"/>
        <pt x="164" y="2" on="0"/>
      </contour>
    </TTGlyph>
    <TTGlyph name="L" xMin="31" yMin="-9" xMax="465" yMax="718">
      <contour>
        <pt x="456" y="38" on="1"/>
        <pt x="452" y="90" on="1"/>
        <pt x="450" y="102" on="0"/>
        <pt x="450" y="131" on="0"/>
        <pt x="454" y="142" on="1"/>
        <pt x="454" y="146" on="1"/>
        <pt x="447" y="145" on="0"/>
        <pt x="434" y="145" on="1"/>
        <pt x="434" y="145" on="0"/>
        <pt x="220" y="154" on="1"/>
        <pt x="207" y="154" on="0"/>
        <pt x="201" y="153" on="1"/>
        <pt x="195" y="159" on="1"/>
        <pt x="191" y="600" on="1"/>
        <pt x="191" y="665" on="0"/>
        <pt x="194" y="697" on="1"/>
        <pt x="160" y="707" on="0"/>
        <pt x="84" y="707" on="0"/>
        <pt x="44" y="699" on="1"/>
        <pt x="49" y="373" on="1"/>
        <pt x="41" y="4" on="1"/>
        <pt x="449" y="5" on="1"/>
        <pt x="456" y="19" on="0"/>
      </contour>
      <contour>
        <pt x="464" y="144" on="1"/>
        <pt x="460" y="105" on="1"/>
        <pt x="460" y="101" on="0"/>
        <pt x="462" y="93" on="1"/>
        <pt x="462" y="91" on="1"/>
        <pt x="465" y="36" on="1"/>
        <pt x="465" y="34" on="0"/>
        <pt x="465" y="13" on="0"/>
        <pt x="462" y="6" on="1"/>
        <pt x="457" y="-7" on="0"/>
        <pt x="400" y="-7" on="1"/>
        <pt x="258" y="-9" on="1"/>
        <pt x="36" y="-6" on="1"/>
        <pt x="35" y="-5" on="0"/>
        <pt x="32" y="-1" on="0"/>
        <pt x="31" y="0" on="1"/>
        <pt x="39" y="375" on="1"/>
        <pt x="34" y="702" on="1"/>
        <pt x="37" y="708" on="1"/>
        <pt x="60" y="718" on="0"/>
        <pt x="102" y="718" on="1"/>
        <pt x="194" y="718" on="0"/>
        <pt x="204" y="700" on="1"/>
        <pt x="201" y="668" on="0"/>
        <pt x="201" y="603" on="1"/>
        <pt x="205" y="164" on="1"/>
        <pt x="438" y="155" on="1"/>
        <pt x="445" y="155" on="0"/>
        <pt x="459" y="157" on="1"/>
      </contour>
    </TTGlyph>
    <TTGlyph name="M" xMin="36" yMin="-6" xMax="466" yMax="702">
      <contour>
        <pt x="417" y="-3" on="1"/>
        <pt x="351" y="-6" on="1"/>
        <pt x="324" y="-6" on="0"/>
        <pt x="315" y="10" on="0"/>
        <pt x="315" y="45" on="1"/>
        <pt x="316" y="125" on="1"/>
        <pt x="316" y="280" on="0"/>
        <pt x="307" y="372" on="1"/>
        <pt x="302" y="359" on="0"/>
        <pt x="292" y="328" on="1"/>
        <pt x="271" y="261" on="0"/>
        <pt x="248" y="238" on="1"/>
        <pt x="225" y="238" on="0"/>
        <pt x="192" y="344" on="1"/>
        <pt x="189" y="353" on="0"/>
        <pt x="187" y="358" on="1"/>
        <pt x="183" y="307" on="0"/>
        <pt x="183" y="165" on="0"/>
        <pt x="193" y="3" on="1"/>
        <pt x="188" y="-6" on="0"/>
        <pt x="144" y="-6" on="1"/>
        <pt x="95" y="-5" on="1"/>
        <pt x="57" y="-6" on="1"/>
        <pt x="43" y="-6" on="0"/>
        <pt x="36" y="28" on="0"/>
        <pt x="36" y="68" on="1"/>
        <pt x="36" y="273" on="1"/>
        <pt x="39" y="685" on="1"/>
        <pt x="42" y="691" on="1"/>
        <pt x="56" y="698" on="0"/>
        <pt x="100" y="698" on="1"/>
        <pt x="181" y="696" on="1"/>
        <pt x="201" y="676" on="0"/>
        <pt x="236" y="560" on="0"/>
        <pt x="252" y="542" on="1"/>
        <pt x="260" y="558" on="0"/>
        <pt x="290" y="675" on="0"/>
        <pt x="313" y="698" on="1"/>
        <pt x="323" y="696" on="0"/>
        <pt x="330" y="696" on="1"/>
        <pt x="460" y="702" on="1"/>
        <pt x="465" y="697" on="1"/>
        <pt x="463" y="667" on="0"/>
        <pt x="463" y="608" on="1"/>
        <pt x="466" y="394" on="1"/>
        <pt x="461" y="-1" on="1"/>
        <pt x="456" y="-6" on="1"/>
      </contour>
      <contour>
        <pt x="326" y="126" on="1"/>
        <pt x="325" y="60" on="1"/>
        <pt x="325" y="32" on="0"/>
        <pt x="328" y="5" on="1"/>
        <pt x="365" y="5" on="1"/>
        <pt x="377" y="8" on="0"/>
        <pt x="428" y="8" on="0"/>
        <pt x="451" y="5" on="1"/>
        <pt x="456" y="376" on="1"/>
        <pt x="453" y="604" on="1"/>
        <pt x="453" y="663" on="0"/>
        <pt x="455" y="692" on="1"/>
        <pt x="337" y="685" on="1"/>
        <pt x="326" y="685" on="0"/>
        <pt x="314" y="687" on="1"/>
        <pt x="300" y="670" on="0"/>
        <pt x="267" y="543" on="0"/>
        <pt x="258" y="534" on="1"/>
        <pt x="254" y="532" on="1"/>
        <pt x="240" y="532" on="0"/>
        <pt x="220" y="588" on="0"/>
        <pt x="196" y="667" on="0"/>
        <pt x="179" y="686" on="1"/>
        <pt x="118" y="687" on="1"/>
        <pt x="76" y="687" on="0"/>
        <pt x="49" y="682" on="1"/>
        <pt x="43" y="117" on="1"/>
        <pt x="43" y="61" on="0"/>
        <pt x="49" y="7" on="1"/>
        <pt x="49" y="5" on="1"/>
        <pt x="126" y="4" on="1"/>
        <pt x="164" y="4" on="0"/>
        <pt x="183" y="7" on="1"/>
        <pt x="173" y="165" on="0"/>
        <pt x="173" y="317" on="0"/>
        <pt x="180" y="381" on="1"/>
        <pt x="180" y="383" on="1"/>
        <pt x="182" y="382" on="0"/>
        <pt x="187" y="382" on="0"/>
        <pt x="190" y="385" on="1"/>
        <pt x="189" y="382" on="1"/>
        <pt x="190" y="382" on="1"/>
        <pt x="190" y="371" on="0"/>
        <pt x="238" y="248" on="0"/>
        <pt x="246" y="248" on="1"/>
        <pt x="259" y="264" on="0"/>
        <pt x="293" y="379" on="0"/>
        <pt x="307" y="393" on="1"/>
        <pt x="309" y="391" on="0"/>
        <pt x="315" y="389" on="1"/>
        <pt x="326" y="303" on="0"/>
      </contour>
    </TTGlyph>
    <TTGlyph name="N" xMin="33" yMin="-13" xMax="462" yMax="715">
      <contour>
        <pt x="461" y="704" on="1"/>
        <pt x="462" y="0" on="1"/>
        <pt x="457" y="-5" on="1"/>
        <pt x="456" y="-5" on="1"/>
        <pt x="445" y="-10" on="0"/>
        <pt x="424" y="-10" on="1"/>
        <pt x="332" y="-5" on="1"/>
        <pt x="330" y="-4" on="0"/>
        <pt x="328" y="-2" on="1"/>
        <pt x="323" y="10" on="0"/>
        <pt x="253" y="156" on="0"/>
        <pt x="228" y="217" on="0"/>
        <pt x="198" y="301" on="0"/>
        <pt x="190" y="321" on="1"/>
        <pt x="184" y="255" on="0"/>
        <pt x="184" y="29" on="0"/>
        <pt x="187" y="0" on="1"/>
        <pt x="174" y="-13" on="0"/>
        <pt x="102" y="-13" on="0"/>
        <pt x="43" y="-4" on="0"/>
        <pt x="37" y="2" on="1"/>
        <pt x="37" y="2" on="0"/>
        <pt x="33" y="401" on="1"/>
        <pt x="33" y="576" on="0"/>
        <pt x="43" y="701" on="1"/>
        <pt x="61" y="710" on="0"/>
        <pt x="97" y="710" on="0"/>
        <pt x="103" y="708" on="1"/>
        <pt x="174" y="708" on="0"/>
        <pt x="181" y="695" on="1"/>
        <pt x="181" y="683" on="0"/>
        <pt x="233" y="593" on="0"/>
        <pt x="233" y="582" on="1"/>
        <pt x="237" y="570" on="0"/>
        <pt x="259" y="531" on="0"/>
        <pt x="265" y="518" on="1"/>
        <pt x="290" y="464" on="0"/>
        <pt x="311" y="426" on="1"/>
        <pt x="315" y="458" on="0"/>
        <pt x="315" y="498" on="1"/>
        <pt x="310" y="650" on="1"/>
        <pt x="310" y="678" on="0"/>
        <pt x="313" y="705" on="1"/>
        <pt x="334" y="715" on="0"/>
        <pt x="455" y="715" on="0"/>
      </contour>
      <contour>
        <pt x="335" y="5" on="1"/>
        <pt x="424" y="0" on="1"/>
        <pt x="452" y="5" on="1"/>
        <pt x="451" y="700" on="1"/>
        <pt x="416" y="705" on="0"/>
        <pt x="360" y="705" on="0"/>
        <pt x="323" y="700" on="1"/>
        <pt x="320" y="667" on="0"/>
        <pt x="320" y="635" on="1"/>
        <pt x="325" y="459" on="1"/>
        <pt x="325" y="422" on="0"/>
        <pt x="313" y="410" on="1"/>
        <pt x="312" y="410" on="1"/>
        <pt x="303" y="410" on="0"/>
        <pt x="280" y="459" on="0"/>
        <pt x="267" y="488" on="0"/>
        <pt x="255" y="517" on="0"/>
        <pt x="252" y="524" on="0"/>
        <pt x="244" y="537" on="1"/>
        <pt x="225" y="566" on="0"/>
        <pt x="223" y="580" on="1"/>
        <pt x="221" y="585" on="0"/>
        <pt x="174" y="676" on="0"/>
        <pt x="171" y="691" on="1"/>
        <pt x="161" y="693" on="0"/>
        <pt x="104" y="696" on="0"/>
        <pt x="99" y="699" on="1"/>
        <pt x="82" y="699" on="1"/>
        <pt x="79" y="697" on="0"/>
        <pt x="71" y="697" on="1"/>
        <pt x="63" y="697" on="1"/>
        <pt x="56" y="697" on="0"/>
        <pt x="53" y="696" on="1"/>
        <pt x="43" y="574" on="0"/>
        <pt x="43" y="401" on="1"/>
        <pt x="47" y="6" on="1"/>
        <pt x="145" y="0" on="1"/>
        <pt x="150" y="2" on="0"/>
        <pt x="171" y="2" on="0"/>
        <pt x="176" y="3" on="1"/>
        <pt x="173" y="42" on="0"/>
        <pt x="173" y="82" on="1"/>
        <pt x="178" y="253" on="1"/>
        <pt x="178" y="264" on="1"/>
        <pt x="177" y="274" on="0"/>
        <pt x="177" y="282" on="1"/>
        <pt x="177" y="342" on="0"/>
        <pt x="188" y="342" on="1"/>
        <pt x="189" y="342" on="1"/>
        <pt x="190" y="341" on="0"/>
        <pt x="194" y="339" on="1"/>
        <pt x="203" y="317" on="0"/>
        <pt x="236" y="223" on="0"/>
        <pt x="262" y="162" on="0"/>
        <pt x="326" y="25" on="0"/>
      </contour>
    </TTGlyph>
    <TTGlyph name="Ntilde" xMin="32" yMin="-14" xMax="482" yMax="925">
      <contour>
        <pt x="478" y="534" on="1"/>
        <pt x="482" y="60" on="1"/>
        <pt x="482" y="39" on="0"/>
        <pt x="480" y="3" on="1"/>
        <pt x="480" y="1" on="1"/>
        <pt x="472" y="-14" on="0"/>
        <pt x="437" y="-14" on="1"/>
        <pt x="364" y="-8" on="1"/>
        <pt x="327" y="-10" on="1"/>
        <pt x="325" y="-9" on="0"/>
        <pt x="323" y="-7" on="1"/>
        <pt x="275" y="87" on="0"/>
        <pt x="210" y="270" on="1"/>
        <pt x="204" y="186" on="0"/>
        <pt x="204" y="51" on="0"/>
        <pt x="207" y="0" on="1"/>
        <pt x="207" y="-10" on="0"/>
        <pt x="178" y="-10" on="1"/>
        <pt x="42" y="-5" on="1"/>
        <pt x="41" y="-4" on="0"/>
        <pt x="38" y="0" on="0"/>
        <pt x="37" y="1" on="1"/>
        <pt x="32" y="406" on="1"/>
        <pt x="32" y="564" on="0"/>
        <pt x="43" y="696" on="1"/>
        <pt x="55" y="708" on="0"/>
        <pt x="116" y="708" on="0"/>
        <pt x="196" y="695" on="0"/>
        <pt x="199" y="688" on="1"/>
        <pt x="199" y="686" on="1"/>
        <pt x="204" y="668" on="0"/>
        <pt x="236" y="617" on="0"/>
        <pt x="308" y="496" on="0"/>
        <pt x="314" y="487" on="1"/>
        <pt x="315" y="499" on="0"/>
        <pt x="315" y="523" on="1"/>
        <pt x="308" y="610" on="1"/>
        <pt x="313" y="698" on="1"/>
        <pt x="327" y="712" on="0"/>
        <pt x="370" y="712" on="1"/>
        <pt x="405" y="711" on="1"/>
        <pt x="470" y="711" on="0"/>
        <pt x="479" y="702" on="1"/>
      </contour>
      <contour>
        <pt x="352" y="4" on="1"/>
        <pt x="436" y="-4" on="1"/>
        <pt x="456" y="-4" on="0"/>
        <pt x="468" y="2" on="1"/>
        <pt x="470" y="4" on="1"/>
        <pt x="471" y="22" on="0"/>
        <pt x="471" y="60" on="1"/>
        <pt x="469" y="200" on="1"/>
        <pt x="469" y="697" on="1"/>
        <pt x="375" y="702" on="1"/>
        <pt x="345" y="702" on="0"/>
        <pt x="323" y="695" on="1"/>
        <pt x="317" y="664" on="0"/>
        <pt x="317" y="630" on="1"/>
        <pt x="326" y="513" on="1"/>
        <pt x="326" y="488" on="0"/>
        <pt x="321" y="472" on="1"/>
        <pt x="312" y="472" on="1"/>
        <pt x="288" y="506" on="0"/>
        <pt x="222" y="622" on="1"/>
        <pt x="220" y="624" on="0"/>
        <pt x="210" y="638" on="1"/>
        <pt x="191" y="665" on="0"/>
        <pt x="189" y="684" on="1"/>
        <pt x="180" y="685" on="0"/>
        <pt x="160" y="690" on="1"/>
        <pt x="121" y="698" on="0"/>
        <pt x="72" y="698" on="0"/>
        <pt x="53" y="692" on="1"/>
        <pt x="42" y="577" on="0"/>
        <pt x="42" y="409" on="1"/>
        <pt x="47" y="5" on="1"/>
        <pt x="70" y="7" on="1"/>
        <pt x="165" y="-2" on="1"/>
        <pt x="183" y="-2" on="0"/>
        <pt x="196" y="2" on="1"/>
        <pt x="194" y="32" on="0"/>
        <pt x="194" y="188" on="0"/>
        <pt x="202" y="295" on="1"/>
        <pt x="209" y="295" on="0"/>
        <pt x="212" y="296" on="1"/>
        <pt x="279" y="103" on="0"/>
        <pt x="329" y="1" on="1"/>
        <pt x="340" y="4" on="0"/>
      </contour>
      <contour>
        <pt x="179" y="778" on="1"/>
        <pt x="184" y="747" on="1"/>
        <pt x="176" y="747" on="1"/>
        <pt x="143" y="749" on="0"/>
        <pt x="80" y="749" on="0"/>
        <pt x="51" y="748" on="1"/>
        <pt x="66" y="808" on="0"/>
        <pt x="99" y="862" on="1"/>
        <pt x="116" y="891" on="0"/>
        <pt x="167" y="925" on="0"/>
        <pt x="222" y="925" on="0"/>
        <pt x="261" y="904" on="0"/>
        <pt x="270" y="890" on="1"/>
        <pt x="296" y="854" on="0"/>
        <pt x="323" y="849" on="1"/>
        <pt x="360" y="856" on="0"/>
        <pt x="373" y="909" on="1"/>
        <pt x="387" y="916" on="0"/>
        <pt x="449" y="916" on="0"/>
        <pt x="466" y="915" on="1"/>
        <pt x="468" y="888" on="1"/>
        <pt x="468" y="832" on="0"/>
        <pt x="404" y="742" on="0"/>
        <pt x="350" y="742" on="1"/>
        <pt x="318" y="742" on="0"/>
        <pt x="266" y="770" on="0"/>
        <pt x="260" y="796" on="1"/>
        <pt x="249" y="815" on="0"/>
        <pt x="208" y="815" on="0"/>
        <pt x="192" y="807" on="1"/>
        <pt x="187" y="802" on="1"/>
        <pt x="179" y="786" on="0"/>
      </contour>
      <contour>
        <pt x="457" y="906" on="1"/>
        <pt x="430" y="903" on="0"/>
        <pt x="382" y="903" on="1"/>
        <pt x="377" y="875" on="0"/>
        <pt x="336" y="839" on="0"/>
        <pt x="311" y="839" on="0"/>
        <pt x="289" y="858" on="0"/>
        <pt x="265" y="889" on="0"/>
        <pt x="257" y="895" on="1"/>
        <pt x="233" y="914" on="0"/>
        <pt x="172" y="914" on="0"/>
        <pt x="132" y="891" on="0"/>
        <pt x="109" y="866" on="0"/>
        <pt x="96" y="840" on="1"/>
        <pt x="81" y="807" on="0"/>
        <pt x="66" y="760" on="1"/>
        <pt x="169" y="758" on="1"/>
        <pt x="167" y="768" on="0"/>
        <pt x="167" y="775" on="1"/>
        <pt x="167" y="799" on="0"/>
        <pt x="207" y="828" on="0"/>
        <pt x="246" y="828" on="0"/>
        <pt x="275" y="790" on="0"/>
        <pt x="316" y="752" on="0"/>
        <pt x="348" y="752" on="1"/>
        <pt x="397" y="752" on="0"/>
        <pt x="459" y="834" on="0"/>
        <pt x="459" y="885" on="1"/>
        <pt x="459" y="892" on="0"/>
      </contour>
      <contour>
        <pt x="240" y="609" on="1"/>
        <pt x="238" y="611" on="1"/>
      </contour>
    </TTGlyph>
    <TTGlyph name="O" xMin="23" yMin="-21" xMax="460" yMax="706">
      <contour>
        <pt x="448" y="389" on="1"/>
        <pt x="451" y="486" on="1"/>
        <pt x="451" y="548" on="0"/>
        <pt x="433" y="590" on="1"/>
        <pt x="386" y="696" on="0"/>
        <pt x="242" y="696" on="1"/>
        <pt x="187" y="696" on="0"/>
        <pt x="93" y="661" on="0"/>
        <pt x="71" y="628" on="1"/>
        <pt x="33" y="572" on="0"/>
        <pt x="33" y="332" on="0"/>
        <pt x="39" y="232" on="0"/>
        <pt x="39" y="173" on="0"/>
        <pt x="40" y="155" on="1"/>
        <pt x="43" y="103" on="0"/>
        <pt x="59" y="69" on="1"/>
        <pt x="92" y="-10" on="0"/>
        <pt x="213" y="-10" on="1"/>
        <pt x="273" y="-10" on="0"/>
        <pt x="381" y="28" on="0"/>
        <pt x="405" y="61" on="1"/>
        <pt x="449" y="122" on="0"/>
        <pt x="449" y="303" on="1"/>
      </contour>
      <contour>
        <pt x="458" y="399" on="1"/>
        <pt x="459" y="290" on="1"/>
        <pt x="459" y="122" on="0"/>
        <pt x="413" y="55" on="1"/>
        <pt x="388" y="20" on="0"/>
        <pt x="275" y="-21" on="0"/>
        <pt x="177" y="-21" on="0"/>
        <pt x="118" y="-6" on="0"/>
        <pt x="80" y="15" on="0"/>
        <pt x="53" y="55" on="0"/>
        <pt x="39" y="86" on="0"/>
        <pt x="31" y="141" on="0"/>
        <pt x="30" y="173" on="0"/>
        <pt x="29" y="233" on="0"/>
        <pt x="23" y="329" on="0"/>
        <pt x="23" y="574" on="0"/>
        <pt x="63" y="633" on="1"/>
        <pt x="111" y="706" on="0"/>
        <pt x="341" y="706" on="0"/>
        <pt x="405" y="652" on="1"/>
        <pt x="423" y="636" on="0"/>
        <pt x="460" y="552" on="0"/>
        <pt x="460" y="487" on="1"/>
      </contour>
      <contour>
        <pt x="334" y="361" on="1"/>
        <pt x="331" y="203" on="1"/>
        <pt x="331" y="165" on="0"/>
        <pt x="271" y="121" on="0"/>
        <pt x="209" y="121" on="0"/>
        <pt x="172" y="142" on="0"/>
        <pt x="151" y="176" on="0"/>
        <pt x="145" y="200" on="1"/>
        <pt x="138" y="229" on="0"/>
        <pt x="135" y="270" on="1"/>
        <pt x="130" y="341" on="0"/>
        <pt x="130" y="421" on="0"/>
        <pt x="148" y="501" on="0"/>
        <pt x="203" y="566" on="0"/>
        <pt x="246" y="566" on="1"/>
        <pt x="294" y="566" on="0"/>
        <pt x="309" y="530" on="1"/>
        <pt x="322" y="501" on="0"/>
        <pt x="331" y="429" on="0"/>
        <pt x="333" y="418" on="1"/>
        <pt x="333" y="416" on="1"/>
      </contour>
      <contour>
        <pt x="324" y="361" on="1"/>
        <pt x="323" y="415" on="1"/>
        <pt x="322" y="419" on="0"/>
        <pt x="316" y="502" on="0"/>
        <pt x="304" y="522" on="1"/>
        <pt x="281" y="557" on="0"/>
        <pt x="243" y="557" on="1"/>
        <pt x="190" y="557" on="0"/>
        <pt x="140" y="450" on="0"/>
        <pt x="140" y="379" on="1"/>
        <pt x="140" y="364" on="0"/>
        <pt x="149" y="261" on="0"/>
        <pt x="150" y="232" on="0"/>
        <pt x="152" y="215" on="0"/>
        <pt x="154" y="203" on="1"/>
        <pt x="158" y="176" on="0"/>
        <pt x="167" y="161" on="1"/>
        <pt x="197" y="131" on="0"/>
        <pt x="272" y="131" on="0"/>
        <pt x="321" y="169" on="0"/>
        <pt x="321" y="204" on="1"/>
      </contour>
    </TTGlyph>
    <TTGlyph name="OE" xMin="19" yMin="-21" xMax="819" yMax="703">
      <contour>
        <pt x="656" y="269" on="1"/>
        <pt x="578" y="266" on="1"/>
        <pt x="566" y="266" on="0"/>
        <pt x="554" y="268" on="1"/>
        <pt x="547" y="253" on="0"/>
        <pt x="547" y="166" on="0"/>
        <pt x="557" y="147" on="1"/>
        <pt x="743" y="147" on="0"/>
        <pt x="813" y="142" on="1"/>
        <pt x="814" y="141" on="0"/>
        <pt x="816" y="138" on="0"/>
        <pt x="817" y="137" on="1"/>
        <pt x="817" y="135" on="1"/>
        <pt x="819" y="101" on="0"/>
        <pt x="819" y="82" on="1"/>
        <pt x="819" y="14" on="0"/>
        <pt x="803" y="-2" on="1"/>
        <pt x="435" y="-7" on="1"/>
        <pt x="408" y="-7" on="0"/>
        <pt x="274" y="-21" on="0"/>
        <pt x="182" y="-21" on="0"/>
        <pt x="102" y="11" on="0"/>
        <pt x="56" y="61" on="0"/>
        <pt x="42" y="98" on="1"/>
        <pt x="19" y="160" on="0"/>
        <pt x="19" y="254" on="1"/>
        <pt x="19" y="275" on="0"/>
        <pt x="29" y="427" on="0"/>
        <pt x="30" y="464" on="1"/>
        <pt x="32" y="531" on="0"/>
        <pt x="42" y="570" on="1"/>
        <pt x="59" y="630" on="0"/>
        <pt x="161" y="703" on="0"/>
        <pt x="224" y="703" on="1"/>
        <pt x="448" y="699" on="1"/>
        <pt x="811" y="703" on="1"/>
        <pt x="818" y="688" on="0"/>
        <pt x="818" y="585" on="0"/>
        <pt x="813" y="551" on="1"/>
        <pt x="807" y="538" on="0"/>
        <pt x="733" y="538" on="1"/>
        <pt x="693" y="539" on="1"/>
        <pt x="588" y="539" on="0"/>
        <pt x="547" y="533" on="1"/>
        <pt x="543" y="469" on="1"/>
        <pt x="543" y="444" on="0"/>
        <pt x="550" y="426" on="1"/>
        <pt x="568" y="423" on="0"/>
        <pt x="587" y="423" on="1"/>
        <pt x="646" y="424" on="1"/>
        <pt x="669" y="424" on="0"/>
        <pt x="674" y="417" on="1"/>
        <pt x="674" y="416" on="1"/>
        <pt x="674" y="415" on="0"/>
        <pt x="675" y="415" on="1"/>
        <pt x="676" y="267" on="1"/>
        <pt x="673" y="269" on="0"/>
      </contour>
      <contour>
        <pt x="447" y="689" on="1"/>
        <pt x="222" y="694" on="1"/>
        <pt x="145" y="694" on="0"/>
        <pt x="96" y="642" on="1"/>
        <pt x="77" y="621" on="0"/>
        <pt x="57" y="588" on="0"/>
        <pt x="50" y="555" on="1"/>
        <pt x="39" y="497" on="0"/>
        <pt x="39" y="435" on="1"/>
        <pt x="31" y="272" on="0"/>
        <pt x="31" y="208" on="0"/>
        <pt x="39" y="139" on="0"/>
        <pt x="64" y="66" on="0"/>
        <pt x="86" y="43" on="1"/>
        <pt x="135" y="-10" on="0"/>
        <pt x="234" y="-10" on="1"/>
        <pt x="278" y="-10" on="0"/>
        <pt x="346" y="-4" on="1"/>
        <pt x="482" y="8" on="0"/>
        <pt x="799" y="8" on="1"/>
        <pt x="808" y="40" on="0"/>
        <pt x="808" y="116" on="0"/>
        <pt x="807" y="132" on="1"/>
        <pt x="737" y="137" on="0"/>
        <pt x="554" y="137" on="1"/>
        <pt x="538" y="144" on="0"/>
        <pt x="538" y="278" on="0"/>
        <pt x="552" y="278" on="1"/>
        <pt x="592" y="278" on="1"/>
        <pt x="602" y="279" on="0"/>
        <pt x="638" y="279" on="0"/>
        <pt x="665" y="278" on="1"/>
        <pt x="668" y="368" on="1"/>
        <pt x="668" y="390" on="0"/>
        <pt x="665" y="413" on="1"/>
        <pt x="654" y="415" on="0"/>
        <pt x="632" y="415" on="1"/>
        <pt x="632" y="415" on="0"/>
        <pt x="584" y="414" on="1"/>
        <pt x="565" y="414" on="0"/>
        <pt x="547" y="417" on="1"/>
        <pt x="533" y="423" on="0"/>
        <pt x="533" y="469" on="1"/>
        <pt x="537" y="536" on="1"/>
        <pt x="544" y="548" on="0"/>
        <pt x="587" y="548" on="1"/>
        <pt x="681" y="547" on="1"/>
        <pt x="749" y="547" on="0"/>
        <pt x="804" y="555" on="1"/>
        <pt x="807" y="584" on="0"/>
        <pt x="807" y="614" on="1"/>
        <pt x="806" y="693" on="1"/>
      </contour>
      <contour>
        <pt x="154" y="380" on="1"/>
        <pt x="151" y="455" on="1"/>
        <pt x="151" y="508" on="0"/>
        <pt x="203" y="571" on="0"/>
        <pt x="276" y="571" on="0"/>
        <pt x="307" y="548" on="1"/>
        <pt x="321" y="538" on="0"/>
        <pt x="328" y="522" on="1"/>
        <pt x="337" y="502" on="0"/>
        <pt x="339" y="500" on="1"/>
        <pt x="348" y="468" on="0"/>
        <pt x="348" y="388" on="0"/>
        <pt x="344" y="348" on="0"/>
        <pt x="341" y="295" on="0"/>
        <pt x="339" y="271" on="0"/>
        <pt x="336" y="250" on="1"/>
        <pt x="332" y="209" on="0"/>
        <pt x="307" y="155" on="0"/>
        <pt x="257" y="116" on="0"/>
        <pt x="234" y="116" on="1"/>
        <pt x="192" y="116" on="0"/>
        <pt x="150" y="217" on="0"/>
        <pt x="150" y="274" on="1"/>
      </contour>
      <contour>
        <pt x="164" y="377" on="1"/>
        <pt x="162" y="281" on="1"/>
        <pt x="162" y="216" on="0"/>
        <pt x="199" y="128" on="0"/>
        <pt x="238" y="128" on="1"/>
        <pt x="338" y="128" on="0"/>
        <pt x="338" y="400" on="1"/>
        <pt x="338" y="464" on="0"/>
        <pt x="329" y="497" on="1"/>
        <pt x="316" y="519" on="0"/>
        <pt x="307" y="531" on="1"/>
        <pt x="283" y="561" on="0"/>
        <pt x="206" y="561" on="0"/>
        <pt x="161" y="503" on="0"/>
        <pt x="161" y="453" on="1"/>
      </contour>
    </TTGlyph>
    <TTGlyph name="Oacute" xMin="24" yMin="-16" xMax="461" yMax="921">
      <contour>
        <pt x="459" y="404" on="1"/>
        <pt x="460" y="294" on="1"/>
        <pt x="460" y="127" on="0"/>
        <pt x="414" y="60" on="1"/>
        <pt x="389" y="25" on="0"/>
        <pt x="276" y="-16" on="0"/>
        <pt x="178" y="-16" on="0"/>
        <pt x="119" y="-1" on="0"/>
        <pt x="81" y="20" on="0"/>
        <pt x="54" y="60" on="0"/>
        <pt x="40" y="91" on="0"/>
        <pt x="32" y="146" on="0"/>
        <pt x="31" y="178" on="0"/>
        <pt x="30" y="238" on="0"/>
        <pt x="24" y="334" on="0"/>
        <pt x="24" y="579" on="0"/>
        <pt x="64" y="638" on="1"/>
        <pt x="112" y="711" on="0"/>
        <pt x="342" y="711" on="0"/>
        <pt x="406" y="657" on="1"/>
        <pt x="424" y="641" on="0"/>
        <pt x="461" y="557" on="0"/>
        <pt x="461" y="492" on="1"/>
      </contour>
      <contour>
        <pt x="449" y="394" on="1"/>
        <pt x="452" y="491" on="1"/>
        <pt x="452" y="553" on="0"/>
        <pt x="434" y="595" on="1"/>
        <pt x="387" y="701" on="0"/>
        <pt x="243" y="701" on="1"/>
        <pt x="188" y="701" on="0"/>
        <pt x="94" y="666" on="0"/>
        <pt x="72" y="633" on="1"/>
        <pt x="34" y="577" on="0"/>
        <pt x="34" y="337" on="0"/>
        <pt x="40" y="237" on="0"/>
        <pt x="40" y="178" on="0"/>
        <pt x="41" y="160" on="1"/>
        <pt x="44" y="108" on="0"/>
        <pt x="60" y="74" on="1"/>
        <pt x="94" y="-6" on="0"/>
        <pt x="215" y="-6" on="1"/>
        <pt x="274" y="-6" on="0"/>
        <pt x="382" y="33" on="0"/>
        <pt x="406" y="66" on="1"/>
        <pt x="450" y="127" on="0"/>
        <pt x="450" y="308" on="1"/>
      </contour>
      <contour>
        <pt x="335" y="366" on="1"/>
        <pt x="332" y="208" on="1"/>
        <pt x="332" y="170" on="0"/>
        <pt x="272" y="126" on="0"/>
        <pt x="210" y="126" on="0"/>
        <pt x="173" y="147" on="0"/>
        <pt x="152" y="181" on="0"/>
        <pt x="146" y="204" on="1"/>
        <pt x="139" y="234" on="0"/>
        <pt x="136" y="275" on="1"/>
        <pt x="131" y="346" on="0"/>
        <pt x="131" y="426" on="0"/>
        <pt x="149" y="506" on="0"/>
        <pt x="204" y="571" on="0"/>
        <pt x="247" y="571" on="1"/>
        <pt x="295" y="571" on="0"/>
        <pt x="310" y="536" on="1"/>
        <pt x="323" y="506" on="0"/>
        <pt x="332" y="434" on="0"/>
        <pt x="334" y="423" on="1"/>
        <pt x="334" y="421" on="1"/>
      </contour>
      <contour>
        <pt x="325" y="366" on="1"/>
        <pt x="324" y="420" on="1"/>
        <pt x="323" y="424" on="0"/>
        <pt x="317" y="507" on="0"/>
        <pt x="305" y="527" on="1"/>
        <pt x="282" y="562" on="0"/>
        <pt x="244" y="562" on="1"/>
        <pt x="191" y="562" on="0"/>
        <pt x="141" y="455" on="0"/>
        <pt x="141" y="384" on="1"/>
        <pt x="141" y="369" on="0"/>
        <pt x="150" y="266" on="0"/>
        <pt x="151" y="237" on="0"/>
        <pt x="153" y="220" on="0"/>
        <pt x="155" y="208" on="1"/>
        <pt x="159" y="181" on="0"/>
        <pt x="168" y="166" on="1"/>
        <pt x="198" y="136" on="0"/>
        <pt x="273" y="136" on="0"/>
        <pt x="322" y="174" on="0"/>
        <pt x="322" y="209" on="1"/>
      </contour>
      <contour>
        <pt x="305" y="748" on="1"/>
        <pt x="298" y="741" on="0"/>
        <pt x="172" y="741" on="0"/>
        <pt x="163" y="750" on="1"/>
        <pt x="163" y="758" on="1"/>
        <pt x="191" y="782" on="0"/>
        <pt x="298" y="895" on="0"/>
        <pt x="330" y="921" on="1"/>
        <pt x="349" y="911" on="0"/>
        <pt x="401" y="855" on="0"/>
        <pt x="406" y="850" on="1"/>
        <pt x="406" y="844" on="1"/>
        <pt x="398" y="836" on="0"/>
        <pt x="373" y="816" on="1"/>
        <pt x="314" y="767" on="0"/>
      </contour>
      <contour>
        <pt x="176" y="756" on="1"/>
        <pt x="209" y="750" on="0"/>
        <pt x="276" y="750" on="0"/>
        <pt x="296" y="754" on="1"/>
        <pt x="306" y="773" on="0"/>
        <pt x="386" y="838" on="0"/>
        <pt x="395" y="847" on="1"/>
        <pt x="353" y="889" on="0"/>
        <pt x="333" y="910" on="1"/>
        <pt x="301" y="884" on="0"/>
        <pt x="195" y="774" on="0"/>
      </contour>
    </TTGlyph>
    <TTGlyph name="Ocircumflex" xMin="23" yMin="-16" xMax="460" yMax="922">
      <contour>
        <pt x="458" y="404" on="1"/>
        <pt x="459" y="294" on="1"/>
        <pt x="459" y="127" on="0"/>
        <pt x="413" y="60" on="1"/>
        <pt x="388" y="25" on="0"/>
        <pt x="275" y="-16" on="0"/>
        <pt x="177" y="-16" on="0"/>
        <pt x="118" y="-1" on="0"/>
        <pt x="80" y="20" on="0"/>
        <pt x="53" y="60" on="0"/>
        <pt x="39" y="91" on="0"/>
        <pt x="31" y="146" on="0"/>
        <pt x="30" y="178" on="0"/>
        <pt x="29" y="238" on="0"/>
        <pt x="23" y="334" on="0"/>
        <pt x="23" y="579" on="0"/>
        <pt x="63" y="638" on="1"/>
        <pt x="111" y="711" on="0"/>
        <pt x="341" y="711" on="0"/>
        <pt x="405" y="657" on="1"/>
        <pt x="423" y="641" on="0"/>
        <pt x="460" y="557" on="0"/>
        <pt x="460" y="492" on="1"/>
      </contour>
      <contour>
        <pt x="448" y="394" on="1"/>
        <pt x="451" y="491" on="1"/>
        <pt x="451" y="553" on="0"/>
        <pt x="433" y="595" on="1"/>
        <pt x="386" y="701" on="0"/>
        <pt x="242" y="701" on="1"/>
        <pt x="187" y="701" on="0"/>
        <pt x="93" y="666" on="0"/>
        <pt x="71" y="633" on="1"/>
        <pt x="33" y="577" on="0"/>
        <pt x="33" y="337" on="0"/>
        <pt x="39" y="237" on="0"/>
        <pt x="39" y="178" on="0"/>
        <pt x="40" y="160" on="1"/>
        <pt x="43" y="108" on="0"/>
        <pt x="59" y="74" on="1"/>
        <pt x="93" y="-6" on="0"/>
        <pt x="214" y="-6" on="1"/>
        <pt x="273" y="-6" on="0"/>
        <pt x="381" y="33" on="0"/>
        <pt x="405" y="66" on="1"/>
        <pt x="449" y="127" on="0"/>
        <pt x="449" y="308" on="1"/>
      </contour>
      <contour>
        <pt x="334" y="366" on="1"/>
        <pt x="331" y="208" on="1"/>
        <pt x="331" y="170" on="0"/>
        <pt x="271" y="126" on="0"/>
        <pt x="209" y="126" on="0"/>
        <pt x="172" y="147" on="0"/>
        <pt x="151" y="181" on="0"/>
        <pt x="145" y="204" on="1"/>
        <pt x="138" y="234" on="0"/>
        <pt x="135" y="275" on="1"/>
        <pt x="130" y="346" on="0"/>
        <pt x="130" y="426" on="0"/>
        <pt x="148" y="506" on="0"/>
        <pt x="203" y="571" on="0"/>
        <pt x="246" y="571" on="1"/>
        <pt x="294" y="571" on="0"/>
        <pt x="309" y="536" on="1"/>
        <pt x="322" y="506" on="0"/>
        <pt x="331" y="434" on="0"/>
        <pt x="333" y="423" on="1"/>
        <pt x="333" y="421" on="1"/>
      </contour>
      <contour>
        <pt x="324" y="366" on="1"/>
        <pt x="323" y="420" on="1"/>
        <pt x="322" y="424" on="0"/>
        <pt x="316" y="507" on="0"/>
        <pt x="304" y="527" on="1"/>
        <pt x="281" y="562" on="0"/>
        <pt x="243" y="562" on="1"/>
        <pt x="190" y="562" on="0"/>
        <pt x="140" y="455" on="0"/>
        <pt x="140" y="384" on="1"/>
        <pt x="140" y="369" on="0"/>
        <pt x="149" y="266" on="0"/>
        <pt x="150" y="237" on="0"/>
        <pt x="152" y="220" on="0"/>
        <pt x="154" y="208" on="1"/>
        <pt x="158" y="181" on="0"/>
        <pt x="167" y="166" on="1"/>
        <pt x="197" y="136" on="0"/>
        <pt x="272" y="136" on="0"/>
        <pt x="321" y="174" on="0"/>
        <pt x="321" y="209" on="1"/>
      </contour>
      <contour>
        <pt x="251" y="921" on="1"/>
        <pt x="414" y="759" on="1"/>
        <pt x="410" y="751" on="1"/>
        <pt x="399" y="751" on="0"/>
        <pt x="352" y="742" on="0"/>
        <pt x="330" y="742" on="1"/>
        <pt x="274" y="742" on="0"/>
        <pt x="252" y="786" on="1"/>
        <pt x="244" y="794" on="1"/>
        <pt x="231" y="784" on="0"/>
        <pt x="206" y="755" on="0"/>
        <pt x="183" y="744" on="0"/>
        <pt x="118" y="744" on="0"/>
        <pt x="85" y="750" on="1"/>
        <pt x="82" y="759" on="1"/>
        <pt x="118" y="806" on="0"/>
        <pt x="238" y="917" on="0"/>
        <pt x="244" y="922" on="1"/>
        <pt x="246" y="921" on="0"/>
      </contour>
      <contour>
        <pt x="295" y="756" on="1"/>
        <pt x="335" y="754" on="0"/>
        <pt x="362" y="754" on="0"/>
        <pt x="390" y="759" on="0"/>
        <pt x="398" y="760" on="1"/>
        <pt x="247" y="911" on="1"/>
        <pt x="208" y="875" on="1"/>
        <pt x="127" y="800" on="0"/>
        <pt x="94" y="759" on="1"/>
        <pt x="126" y="755" on="0"/>
        <pt x="187" y="755" on="0"/>
        <pt x="211" y="770" on="0"/>
        <pt x="231" y="797" on="0"/>
        <pt x="241" y="804" on="1"/>
        <pt x="247" y="804" on="1"/>
        <pt x="256" y="798" on="0"/>
        <pt x="283" y="765" on="0"/>
        <pt x="286" y="762" on="1"/>
      </contour>
    </TTGlyph>
    <TTGlyph name="Odieresis" xMin="23" yMin="-16" xMax="460" yMax="874">
      <contour>
        <pt x="458" y="404" on="1"/>
        <pt x="459" y="294" on="1"/>
        <pt x="459" y="127" on="0"/>
        <pt x="413" y="60" on="1"/>
        <pt x="388" y="25" on="0"/>
        <pt x="275" y="-16" on="0"/>
        <pt x="177" y="-16" on="0"/>
        <pt x="118" y="-1" on="0"/>
        <pt x="80" y="20" on="0"/>
        <pt x="53" y="60" on="0"/>
        <pt x="39" y="91" on="0"/>
        <pt x="31" y="146" on="0"/>
        <pt x="30" y="178" on="0"/>
        <pt x="29" y="238" on="0"/>
        <pt x="23" y="334" on="0"/>
        <pt x="23" y="579" on="0"/>
        <pt x="63" y="638" on="1"/>
        <pt x="111" y="711" on="0"/>
        <pt x="341" y="711" on="0"/>
        <pt x="405" y="657" on="1"/>
        <pt x="423" y="641" on="0"/>
        <pt x="460" y="557" on="0"/>
        <pt x="460" y="492" on="1"/>
      </contour>
      <contour>
        <pt x="448" y="394" on="1"/>
        <pt x="451" y="491" on="1"/>
        <pt x="451" y="553" on="0"/>
        <pt x="433" y="595" on="1"/>
        <pt x="386" y="701" on="0"/>
        <pt x="242" y="701" on="1"/>
        <pt x="187" y="701" on="0"/>
        <pt x="93" y="666" on="0"/>
        <pt x="71" y="633" on="1"/>
        <pt x="33" y="577" on="0"/>
        <pt x="33" y="337" on="0"/>
        <pt x="39" y="237" on="0"/>
        <pt x="39" y="178" on="0"/>
        <pt x="40" y="160" on="1"/>
        <pt x="43" y="108" on="0"/>
        <pt x="59" y="74" on="1"/>
        <pt x="93" y="-6" on="0"/>
        <pt x="214" y="-6" on="1"/>
        <pt x="273" y="-6" on="0"/>
        <pt x="381" y="33" on="0"/>
        <pt x="405" y="66" on="1"/>
        <pt x="449" y="127" on="0"/>
        <pt x="449" y="308" on="1"/>
      </contour>
      <contour>
        <pt x="334" y="366" on="1"/>
        <pt x="331" y="208" on="1"/>
        <pt x="331" y="170" on="0"/>
        <pt x="271" y="126" on="0"/>
        <pt x="209" y="126" on="0"/>
        <pt x="172" y="147" on="0"/>
        <pt x="151" y="181" on="0"/>
        <pt x="145" y="204" on="1"/>
        <pt x="138" y="234" on="0"/>
        <pt x="135" y="275" on="1"/>
        <pt x="130" y="346" on="0"/>
        <pt x="130" y="426" on="0"/>
        <pt x="148" y="506" on="0"/>
        <pt x="203" y="571" on="0"/>
        <pt x="246" y="571" on="1"/>
        <pt x="294" y="571" on="0"/>
        <pt x="309" y="536" on="1"/>
        <pt x="322" y="506" on="0"/>
        <pt x="331" y="434" on="0"/>
        <pt x="333" y="423" on="1"/>
        <pt x="333" y="421" on="1"/>
      </contour>
      <contour>
        <pt x="324" y="366" on="1"/>
        <pt x="323" y="420" on="1"/>
        <pt x="322" y="424" on="0"/>
        <pt x="316" y="507" on="0"/>
        <pt x="304" y="527" on="1"/>
        <pt x="281" y="562" on="0"/>
        <pt x="243" y="562" on="1"/>
        <pt x="190" y="562" on="0"/>
        <pt x="140" y="455" on="0"/>
        <pt x="140" y="384" on="1"/>
        <pt x="140" y="369" on="0"/>
        <pt x="149" y="266" on="0"/>
        <pt x="150" y="237" on="0"/>
        <pt x="152" y="220" on="0"/>
        <pt x="154" y="208" on="1"/>
        <pt x="158" y="181" on="0"/>
        <pt x="167" y="166" on="1"/>
        <pt x="197" y="136" on="0"/>
        <pt x="272" y="136" on="0"/>
        <pt x="321" y="174" on="0"/>
        <pt x="321" y="209" on="1"/>
      </contour>
      <contour>
        <pt x="208" y="753" on="1"/>
        <pt x="109" y="754" on="1"/>
        <pt x="106" y="754" on="1"/>
        <pt x="95" y="760" on="0"/>
        <pt x="95" y="792" on="1"/>
        <pt x="100" y="859" on="1"/>
        <pt x="103" y="865" on="1"/>
        <pt x="125" y="874" on="0"/>
        <pt x="212" y="874" on="0"/>
        <pt x="219" y="859" on="1"/>
        <pt x="217" y="848" on="0"/>
        <pt x="215" y="767" on="0"/>
      </contour>
      <contour>
        <pt x="382" y="753" on="1"/>
        <pt x="283" y="754" on="1"/>
        <pt x="280" y="754" on="1"/>
        <pt x="269" y="760" on="0"/>
        <pt x="269" y="792" on="1"/>
        <pt x="274" y="859" on="1"/>
        <pt x="277" y="865" on="1"/>
        <pt x="299" y="874" on="0"/>
        <pt x="386" y="874" on="0"/>
        <pt x="393" y="859" on="1"/>
        <pt x="391" y="848" on="0"/>
        <pt x="389" y="767" on="0"/>
      </contour>
      <contour>
        <pt x="283" y="764" on="1"/>
        <pt x="377" y="763" on="1"/>
        <pt x="377" y="827" on="0"/>
        <pt x="382" y="858" on="1"/>
        <pt x="365" y="864" on="0"/>
        <pt x="321" y="864" on="0"/>
        <pt x="284" y="857" on="1"/>
        <pt x="279" y="790" on="1"/>
        <pt x="279" y="773" on="0"/>
      </contour>
      <contour>
        <pt x="109" y="764" on="1"/>
        <pt x="203" y="763" on="1"/>
        <pt x="203" y="827" on="0"/>
        <pt x="208" y="858" on="1"/>
        <pt x="191" y="864" on="0"/>
        <pt x="147" y="864" on="0"/>
        <pt x="110" y="857" on="1"/>
        <pt x="105" y="790" on="1"/>
        <pt x="105" y="773" on="0"/>
      </contour>
    </TTGlyph>
    <TTGlyph name="Ograve" xMin="24" yMin="-16" xMax="461" yMax="921">
      <contour>
        <pt x="459" y="404" on="1"/>
        <pt x="460" y="294" on="1"/>
        <pt x="460" y="127" on="0"/>
        <pt x="414" y="60" on="1"/>
        <pt x="389" y="25" on="0"/>
        <pt x="276" y="-16" on="0"/>
        <pt x="178" y="-16" on="0"/>
        <pt x="119" y="-1" on="0"/>
        <pt x="81" y="20" on="0"/>
        <pt x="54" y="60" on="0"/>
        <pt x="40" y="91" on="0"/>
        <pt x="32" y="146" on="0"/>
        <pt x="31" y="178" on="0"/>
        <pt x="30" y="238" on="0"/>
        <pt x="24" y="334" on="0"/>
        <pt x="24" y="579" on="0"/>
        <pt x="64" y="638" on="1"/>
        <pt x="112" y="711" on="0"/>
        <pt x="342" y="711" on="0"/>
        <pt x="406" y="657" on="1"/>
        <pt x="424" y="641" on="0"/>
        <pt x="461" y="557" on="0"/>
        <pt x="461" y="492" on="1"/>
      </contour>
      <contour>
        <pt x="449" y="394" on="1"/>
        <pt x="452" y="491" on="1"/>
        <pt x="452" y="553" on="0"/>
        <pt x="434" y="595" on="1"/>
        <pt x="387" y="701" on="0"/>
        <pt x="243" y="701" on="1"/>
        <pt x="188" y="701" on="0"/>
        <pt x="94" y="666" on="0"/>
        <pt x="72" y="633" on="1"/>
        <pt x="34" y="577" on="0"/>
        <pt x="34" y="337" on="0"/>
        <pt x="40" y="237" on="0"/>
        <pt x="40" y="178" on="0"/>
        <pt x="41" y="160" on="1"/>
        <pt x="44" y="108" on="0"/>
        <pt x="60" y="74" on="1"/>
        <pt x="94" y="-6" on="0"/>
        <pt x="215" y="-6" on="1"/>
        <pt x="274" y="-6" on="0"/>
        <pt x="382" y="33" on="0"/>
        <pt x="406" y="66" on="1"/>
        <pt x="450" y="127" on="0"/>
        <pt x="450" y="308" on="1"/>
      </contour>
      <contour>
        <pt x="335" y="366" on="1"/>
        <pt x="332" y="208" on="1"/>
        <pt x="332" y="170" on="0"/>
        <pt x="272" y="126" on="0"/>
        <pt x="210" y="126" on="0"/>
        <pt x="173" y="147" on="0"/>
        <pt x="152" y="181" on="0"/>
        <pt x="146" y="204" on="1"/>
        <pt x="139" y="234" on="0"/>
        <pt x="136" y="275" on="1"/>
        <pt x="131" y="346" on="0"/>
        <pt x="131" y="426" on="0"/>
        <pt x="149" y="506" on="0"/>
        <pt x="204" y="571" on="0"/>
        <pt x="247" y="571" on="1"/>
        <pt x="295" y="571" on="0"/>
        <pt x="310" y="536" on="1"/>
        <pt x="323" y="506" on="0"/>
        <pt x="332" y="434" on="0"/>
        <pt x="334" y="423" on="1"/>
        <pt x="334" y="421" on="1"/>
      </contour>
      <contour>
        <pt x="325" y="366" on="1"/>
        <pt x="324" y="420" on="1"/>
        <pt x="323" y="424" on="0"/>
        <pt x="317" y="507" on="0"/>
        <pt x="305" y="527" on="1"/>
        <pt x="282" y="562" on="0"/>
        <pt x="244" y="562" on="1"/>
        <pt x="191" y="562" on="0"/>
        <pt x="141" y="455" on="0"/>
        <pt x="141" y="384" on="1"/>
        <pt x="141" y="369" on="0"/>
        <pt x="150" y="266" on="0"/>
        <pt x="151" y="237" on="0"/>
        <pt x="153" y="220" on="0"/>
        <pt x="155" y="208" on="1"/>
        <pt x="159" y="181" on="0"/>
        <pt x="168" y="166" on="1"/>
        <pt x="198" y="136" on="0"/>
        <pt x="273" y="136" on="0"/>
        <pt x="322" y="174" on="0"/>
        <pt x="322" y="209" on="1"/>
      </contour>
      <contour>
        <pt x="305" y="750" on="1"/>
        <pt x="288" y="741" on="0"/>
        <pt x="164" y="741" on="0"/>
        <pt x="164" y="748" on="1"/>
        <pt x="156" y="762" on="0"/>
        <pt x="63" y="836" on="0"/>
        <pt x="63" y="843" on="1"/>
        <pt x="63" y="851" on="1"/>
        <pt x="109" y="897" on="0"/>
        <pt x="132" y="921" on="1"/>
        <pt x="138" y="921" on="1"/>
        <pt x="178" y="891" on="0"/>
        <pt x="295" y="765" on="0"/>
        <pt x="305" y="758" on="1"/>
      </contour>
      <contour>
        <pt x="171" y="754" on="1"/>
        <pt x="185" y="750" on="0"/>
        <pt x="267" y="750" on="0"/>
        <pt x="291" y="756" on="1"/>
        <pt x="278" y="767" on="0"/>
        <pt x="256" y="793" on="1"/>
        <pt x="176" y="879" on="0"/>
        <pt x="135" y="910" on="1"/>
        <pt x="72" y="847" on="1"/>
        <pt x="76" y="843" on="0"/>
        <pt x="102" y="821" on="1"/>
        <pt x="162" y="771" on="0"/>
      </contour>
    </TTGlyph>
    <TTGlyph name="Oslash" xMin="23" yMin="-28" xMax="458" yMax="729">
      <contour>
        <pt x="410" y="653" on="1"/>
        <pt x="411" y="647" on="1"/>
        <pt x="458" y="587" on="0"/>
        <pt x="458" y="485" on="1"/>
        <pt x="458" y="468" on="0"/>
        <pt x="454" y="383" on="0"/>
        <pt x="454" y="236" on="0"/>
        <pt x="448" y="167" on="0"/>
        <pt x="426" y="85" on="0"/>
        <pt x="386" y="32" on="0"/>
        <pt x="313" y="-4" on="0"/>
        <pt x="262" y="-4" on="1"/>
        <pt x="257" y="-4" on="0"/>
        <pt x="223" y="-2" on="0"/>
        <pt x="205" y="-4" on="0"/>
        <pt x="194" y="-6" on="1"/>
        <pt x="164" y="-13" on="0"/>
        <pt x="166" y="-23" on="1"/>
        <pt x="149" y="-28" on="0"/>
        <pt x="113" y="-28" on="1"/>
        <pt x="59" y="-25" on="1"/>
        <pt x="42" y="-25" on="0"/>
        <pt x="34" y="-26" on="1"/>
        <pt x="33" y="-25" on="0"/>
        <pt x="30" y="-25" on="1"/>
        <pt x="28" y="-23" on="0"/>
        <pt x="28" y="-20" on="0"/>
        <pt x="27" y="-8" on="0"/>
        <pt x="51" y="68" on="0"/>
        <pt x="55" y="68" on="1"/>
        <pt x="23" y="193" on="0"/>
        <pt x="23" y="339" on="1"/>
        <pt x="23" y="537" on="0"/>
        <pt x="45" y="597" on="1"/>
        <pt x="67" y="656" on="0"/>
        <pt x="100" y="678" on="1"/>
        <pt x="150" y="709" on="0"/>
        <pt x="219" y="709" on="1"/>
        <pt x="251" y="709" on="0"/>
        <pt x="275" y="705" on="1"/>
        <pt x="276" y="728" on="0"/>
        <pt x="285" y="728" on="1"/>
        <pt x="332" y="726" on="1"/>
        <pt x="385" y="729" on="1"/>
        <pt x="415" y="729" on="0"/>
        <pt x="429" y="716" on="1"/>
        <pt x="429" y="705" on="0"/>
        <pt x="410" y="663" on="0"/>
      </contour>
      <contour>
        <pt x="444" y="290" on="1"/>
        <pt x="448" y="485" on="1"/>
        <pt x="448" y="543" on="0"/>
        <pt x="432" y="590" on="1"/>
        <pt x="429" y="598" on="0"/>
        <pt x="400" y="642" on="0"/>
        <pt x="400" y="665" on="0"/>
        <pt x="419" y="702" on="0"/>
        <pt x="419" y="713" on="1"/>
        <pt x="406" y="720" on="0"/>
        <pt x="383" y="720" on="1"/>
        <pt x="314" y="714" on="1"/>
        <pt x="299" y="714" on="0"/>
        <pt x="288" y="718" on="1"/>
        <pt x="286" y="716" on="0"/>
        <pt x="286" y="709" on="0"/>
        <pt x="285" y="702" on="0"/>
        <pt x="283" y="700" on="0"/>
        <pt x="279" y="697" on="0"/>
        <pt x="278" y="696" on="1"/>
        <pt x="250" y="699" on="0"/>
        <pt x="173" y="699" on="0"/>
        <pt x="105" y="672" on="0"/>
        <pt x="68" y="634" on="0"/>
        <pt x="58" y="603" on="1"/>
        <pt x="42" y="557" on="0"/>
        <pt x="40" y="487" on="1"/>
        <pt x="34" y="365" on="1"/>
        <pt x="34" y="287" on="1"/>
        <pt x="34" y="205" on="0"/>
        <pt x="55" y="112" on="1"/>
        <pt x="64" y="71" on="1"/>
        <pt x="64" y="67" on="1"/>
        <pt x="64" y="57" on="0"/>
        <pt x="38" y="-2" on="0"/>
        <pt x="37" y="-15" on="1"/>
        <pt x="55" y="-13" on="0"/>
        <pt x="66" y="-13" on="1"/>
        <pt x="125" y="-17" on="1"/>
        <pt x="159" y="-17" on="0"/>
        <pt x="178" y="3" on="1"/>
        <pt x="278" y="3" on="0"/>
        <pt x="361" y="23" on="0"/>
        <pt x="415" y="79" on="0"/>
        <pt x="426" y="124" on="1"/>
        <pt x="444" y="196" on="0"/>
      </contour>
      <contour>
        <pt x="327" y="395" on="1"/>
        <pt x="333" y="263" on="1"/>
        <pt x="333" y="197" on="0"/>
        <pt x="305" y="154" on="0"/>
        <pt x="251" y="125" on="0"/>
        <pt x="230" y="125" on="1"/>
        <pt x="224" y="132" on="1"/>
        <pt x="295" y="342" on="0"/>
        <pt x="318" y="397" on="1"/>
      </contour>
      <contour>
        <pt x="137" y="277" on="1"/>
        <pt x="131" y="289" on="0"/>
        <pt x="131" y="330" on="0"/>
        <pt x="145" y="415" on="0"/>
        <pt x="147" y="434" on="0"/>
        <pt x="149" y="486" on="0"/>
        <pt x="151" y="496" on="1"/>
        <pt x="158" y="529" on="0"/>
        <pt x="183" y="549" on="1"/>
        <pt x="209" y="568" on="0"/>
        <pt x="234" y="568" on="1"/>
        <pt x="239" y="563" on="1"/>
        <pt x="239" y="551" on="0"/>
        <pt x="210" y="468" on="1"/>
        <pt x="163" y="335" on="0"/>
        <pt x="146" y="277" on="1"/>
      </contour>
      <contour>
        <pt x="321" y="233" on="1"/>
        <pt x="323" y="246" on="0"/>
        <pt x="323" y="285" on="0"/>
        <pt x="322" y="302" on="1"/>
        <pt x="320" y="339" on="0"/>
        <pt x="317" y="369" on="1"/>
        <pt x="281" y="278" on="0"/>
        <pt x="236" y="136" on="1"/>
        <pt x="282" y="148" on="0"/>
        <pt x="305" y="174" on="1"/>
        <pt x="316" y="186" on="0"/>
      </contour>
      <contour>
        <pt x="154" y="461" on="0"/>
        <pt x="154" y="383" on="0"/>
        <pt x="148" y="363" on="1"/>
        <pt x="148" y="354" on="0"/>
        <pt x="141" y="308" on="0"/>
        <pt x="141" y="297" on="1"/>
        <pt x="153" y="334" on="0"/>
        <pt x="213" y="511" on="0"/>
        <pt x="228" y="558" on="1"/>
        <pt x="212" y="558" on="0"/>
        <pt x="166" y="523" on="0"/>
      </contour>
    </TTGlyph>
    <TTGlyph name="Otilde" xMin="23" yMin="-16" xMax="460" yMax="916">
      <contour>
        <pt x="458" y="404" on="1"/>
        <pt x="459" y="294" on="1"/>
        <pt x="459" y="127" on="0"/>
        <pt x="413" y="60" on="1"/>
        <pt x="388" y="25" on="0"/>
        <pt x="275" y="-16" on="0"/>
        <pt x="177" y="-16" on="0"/>
        <pt x="118" y="-1" on="0"/>
        <pt x="80" y="20" on="0"/>
        <pt x="53" y="60" on="0"/>
        <pt x="39" y="91" on="0"/>
        <pt x="31" y="146" on="0"/>
        <pt x="30" y="178" on="0"/>
        <pt x="29" y="238" on="0"/>
        <pt x="23" y="334" on="0"/>
        <pt x="23" y="579" on="0"/>
        <pt x="63" y="638" on="1"/>
        <pt x="111" y="711" on="0"/>
        <pt x="341" y="711" on="0"/>
        <pt x="405" y="657" on="1"/>
        <pt x="423" y="641" on="0"/>
        <pt x="460" y="557" on="0"/>
        <pt x="460" y="492" on="1"/>
      </contour>
      <contour>
        <pt x="448" y="394" on="1"/>
        <pt x="451" y="491" on="1"/>
        <pt x="451" y="553" on="0"/>
        <pt x="433" y="595" on="1"/>
        <pt x="386" y="701" on="0"/>
        <pt x="242" y="701" on="1"/>
        <pt x="187" y="701" on="0"/>
        <pt x="93" y="666" on="0"/>
        <pt x="71" y="633" on="1"/>
        <pt x="33" y="577" on="0"/>
        <pt x="33" y="337" on="0"/>
        <pt x="39" y="237" on="0"/>
        <pt x="39" y="178" on="0"/>
        <pt x="40" y="160" on="1"/>
        <pt x="43" y="108" on="0"/>
        <pt x="59" y="74" on="1"/>
        <pt x="93" y="-6" on="0"/>
        <pt x="214" y="-6" on="1"/>
        <pt x="273" y="-6" on="0"/>
        <pt x="381" y="33" on="0"/>
        <pt x="405" y="66" on="1"/>
        <pt x="449" y="127" on="0"/>
        <pt x="449" y="308" on="1"/>
      </contour>
      <contour>
        <pt x="334" y="366" on="1"/>
        <pt x="331" y="208" on="1"/>
        <pt x="331" y="170" on="0"/>
        <pt x="271" y="126" on="0"/>
        <pt x="209" y="126" on="0"/>
        <pt x="172" y="147" on="0"/>
        <pt x="151" y="181" on="0"/>
        <pt x="145" y="204" on="1"/>
        <pt x="138" y="234" on="0"/>
        <pt x="135" y="275" on="1"/>
        <pt x="130" y="346" on="0"/>
        <pt x="130" y="426" on="0"/>
        <pt x="148" y="506" on="0"/>
        <pt x="203" y="571" on="0"/>
        <pt x="246" y="571" on="1"/>
        <pt x="294" y="571" on="0"/>
        <pt x="309" y="536" on="1"/>
        <pt x="322" y="506" on="0"/>
        <pt x="331" y="434" on="0"/>
        <pt x="333" y="423" on="1"/>
        <pt x="333" y="421" on="1"/>
      </contour>
      <contour>
        <pt x="324" y="366" on="1"/>
        <pt x="323" y="420" on="1"/>
        <pt x="322" y="424" on="0"/>
        <pt x="316" y="507" on="0"/>
        <pt x="304" y="527" on="1"/>
        <pt x="281" y="562" on="0"/>
        <pt x="243" y="562" on="1"/>
        <pt x="190" y="562" on="0"/>
        <pt x="140" y="455" on="0"/>
        <pt x="140" y="384" on="1"/>
        <pt x="140" y="369" on="0"/>
        <pt x="149" y="266" on="0"/>
        <pt x="150" y="237" on="0"/>
        <pt x="152" y="220" on="0"/>
        <pt x="154" y="208" on="1"/>
        <pt x="158" y="181" on="0"/>
        <pt x="167" y="166" on="1"/>
        <pt x="197" y="136" on="0"/>
        <pt x="272" y="136" on="0"/>
        <pt x="321" y="174" on="0"/>
        <pt x="321" y="209" on="1"/>
      </contour>
      <contour>
        <pt x="159" y="769" on="1"/>
        <pt x="161" y="743" on="1"/>
        <pt x="156" y="738" on="1"/>
        <pt x="149" y="739" on="0"/>
        <pt x="115" y="739" on="0"/>
        <pt x="107" y="742" on="1"/>
        <pt x="39" y="741" on="1"/>
        <pt x="34" y="747" on="1"/>
        <pt x="51" y="813" on="0"/>
        <pt x="123" y="916" on="0"/>
        <pt x="176" y="916" on="1"/>
        <pt x="202" y="916" on="0"/>
        <pt x="241" y="895" on="0"/>
        <pt x="250" y="882" on="1"/>
        <pt x="276" y="845" on="0"/>
        <pt x="303" y="840" on="1"/>
        <pt x="340" y="847" on="0"/>
        <pt x="353" y="900" on="1"/>
        <pt x="367" y="907" on="0"/>
        <pt x="397" y="907" on="1"/>
        <pt x="425" y="906" on="1"/>
        <pt x="440" y="907" on="1"/>
        <pt x="445" y="904" on="1"/>
        <pt x="448" y="879" on="1"/>
        <pt x="448" y="823" on="0"/>
        <pt x="384" y="733" on="0"/>
        <pt x="330" y="733" on="1"/>
        <pt x="298" y="733" on="0"/>
        <pt x="246" y="761" on="0"/>
        <pt x="240" y="787" on="1"/>
        <pt x="229" y="806" on="0"/>
        <pt x="188" y="806" on="0"/>
        <pt x="172" y="798" on="1"/>
        <pt x="167" y="793" on="1"/>
        <pt x="159" y="777" on="0"/>
      </contour>
      <contour>
        <pt x="46" y="751" on="1"/>
        <pt x="91" y="754" on="1"/>
        <pt x="102" y="754" on="0"/>
        <pt x="112" y="751" on="1"/>
        <pt x="136" y="751" on="0"/>
        <pt x="149" y="749" on="1"/>
        <pt x="147" y="759" on="0"/>
        <pt x="147" y="766" on="1"/>
        <pt x="147" y="790" on="0"/>
        <pt x="187" y="819" on="0"/>
        <pt x="226" y="819" on="0"/>
        <pt x="255" y="781" on="0"/>
        <pt x="296" y="743" on="0"/>
        <pt x="328" y="743" on="1"/>
        <pt x="377" y="743" on="0"/>
        <pt x="439" y="825" on="0"/>
        <pt x="439" y="876" on="1"/>
        <pt x="439" y="883" on="0"/>
        <pt x="437" y="897" on="1"/>
        <pt x="410" y="894" on="0"/>
        <pt x="362" y="894" on="1"/>
        <pt x="357" y="866" on="0"/>
        <pt x="316" y="830" on="0"/>
        <pt x="291" y="830" on="0"/>
        <pt x="269" y="849" on="0"/>
        <pt x="245" y="880" on="0"/>
        <pt x="237" y="886" on="1"/>
        <pt x="213" y="905" on="0"/>
        <pt x="152" y="905" on="0"/>
        <pt x="112" y="882" on="0"/>
        <pt x="89" y="857" on="0"/>
        <pt x="76" y="830" on="1"/>
        <pt x="61" y="798" on="0"/>
      </contour>
    </TTGlyph>
    <TTGlyph name="P" xMin="32" yMin="-6" xMax="490" yMax="719">
      <contour>
        <pt x="33" y="198" on="1"/>
        <pt x="37" y="511" on="1"/>
        <pt x="37" y="618" on="0"/>
        <pt x="32" y="694" on="1"/>
        <pt x="33" y="695" on="0"/>
        <pt x="36" y="699" on="0"/>
        <pt x="37" y="700" on="1"/>
        <pt x="116" y="719" on="0"/>
        <pt x="242" y="719" on="0"/>
        <pt x="344" y="693" on="0"/>
        <pt x="434" y="640" on="0"/>
        <pt x="489" y="549" on="0"/>
        <pt x="489" y="490" on="1"/>
        <pt x="490" y="477" on="1"/>
        <pt x="490" y="392" on="0"/>
        <pt x="337" y="254" on="0"/>
        <pt x="248" y="254" on="1"/>
        <pt x="232" y="254" on="0"/>
        <pt x="215" y="257" on="1"/>
        <pt x="219" y="11" on="1"/>
        <pt x="215" y="7" on="1"/>
        <pt x="216" y="8" on="0"/>
        <pt x="217" y="8" on="1"/>
        <pt x="216" y="7" on="1"/>
        <pt x="216" y="6" on="0"/>
        <pt x="212" y="6" on="0"/>
        <pt x="212" y="5" on="1"/>
        <pt x="177" y="-6" on="0"/>
        <pt x="50" y="-6" on="0"/>
        <pt x="39" y="5" on="1"/>
        <pt x="33" y="101" on="0"/>
      </contour>
      <contour>
        <pt x="477" y="455" on="1"/>
        <pt x="477" y="468" on="0"/>
        <pt x="479" y="472" on="1"/>
        <pt x="479" y="491" on="1"/>
        <pt x="479" y="550" on="0"/>
        <pt x="425" y="637" on="0"/>
        <pt x="380" y="661" on="1"/>
        <pt x="294" y="707" on="0"/>
        <pt x="180" y="707" on="1"/>
        <pt x="108" y="707" on="0"/>
        <pt x="42" y="691" on="1"/>
        <pt x="46" y="612" on="0"/>
        <pt x="46" y="514" on="1"/>
        <pt x="43" y="196" on="1"/>
        <pt x="43" y="88" on="0"/>
        <pt x="48" y="10" on="1"/>
        <pt x="66" y="5" on="0"/>
        <pt x="174" y="5" on="0"/>
        <pt x="209" y="14" on="1"/>
        <pt x="205" y="262" on="1"/>
        <pt x="211" y="268" on="1"/>
        <pt x="227" y="264" on="0"/>
        <pt x="248" y="264" on="1"/>
        <pt x="328" y="264" on="0"/>
        <pt x="464" y="376" on="0"/>
      </contour>
      <contour>
        <pt x="181" y="560" on="1"/>
        <pt x="212" y="565" on="1"/>
        <pt x="275" y="565" on="0"/>
        <pt x="312" y="537" on="1"/>
        <pt x="345" y="514" on="0"/>
        <pt x="345" y="470" on="1"/>
        <pt x="345" y="421" on="0"/>
        <pt x="291" y="409" on="1"/>
        <pt x="252" y="400" on="0"/>
        <pt x="201" y="400" on="1"/>
        <pt x="174" y="400" on="0"/>
        <pt x="174" y="494" on="1"/>
        <pt x="175" y="521" on="1"/>
        <pt x="175" y="554" on="0"/>
      </contour>
      <contour>
        <pt x="222" y="412" on="1"/>
        <pt x="243" y="411" on="1"/>
        <pt x="287" y="413" on="0"/>
        <pt x="335" y="443" on="0"/>
        <pt x="335" y="483" on="1"/>
        <pt x="325" y="515" on="0"/>
        <pt x="306" y="529" on="1"/>
        <pt x="274" y="553" on="0"/>
        <pt x="236" y="553" on="1"/>
        <pt x="188" y="551" on="1"/>
        <pt x="187" y="490" on="1"/>
        <pt x="187" y="437" on="0"/>
        <pt x="196" y="410" on="1"/>
        <pt x="207" y="410" on="1"/>
        <pt x="217" y="412" on="0"/>
      </contour>
    </TTGlyph>
    <TTGlyph name="Q" xMin="22" yMin="-12" xMax="472" yMax="719">
      <contour>
        <pt x="22" y="261" on="1"/>
        <pt x="25" y="382" on="1"/>
        <pt x="25" y="575" on="0"/>
        <pt x="49" y="624" on="1"/>
        <pt x="95" y="719" on="0"/>
        <pt x="265" y="719" on="1"/>
        <pt x="338" y="719" on="0"/>
        <pt x="407" y="678" on="0"/>
        <pt x="451" y="601" on="0"/>
        <pt x="460" y="546" on="1"/>
        <pt x="472" y="465" on="0"/>
        <pt x="472" y="300" on="0"/>
        <pt x="463" y="171" on="0"/>
        <pt x="461" y="163" on="1"/>
        <pt x="460" y="135" on="0"/>
        <pt x="434" y="78" on="1"/>
        <pt x="437" y="74" on="0"/>
        <pt x="442" y="68" on="1"/>
        <pt x="453" y="55" on="0"/>
        <pt x="453" y="47" on="1"/>
        <pt x="453" y="27" on="0"/>
        <pt x="401" y="-12" on="0"/>
        <pt x="360" y="-12" on="0"/>
        <pt x="338" y="16" on="1"/>
        <pt x="306" y="-12" on="0"/>
        <pt x="181" y="-12" on="0"/>
        <pt x="80" y="44" on="0"/>
        <pt x="22" y="150" on="0"/>
      </contour>
      <contour>
        <pt x="35" y="307" on="1"/>
        <pt x="34" y="244" on="1"/>
        <pt x="34" y="146" on="0"/>
        <pt x="86" y="51" on="0"/>
        <pt x="185" y="-1" on="0"/>
        <pt x="308" y="-1" on="0"/>
        <pt x="337" y="28" on="1"/>
        <pt x="341" y="26" on="0"/>
        <pt x="367" y="1" on="0"/>
        <pt x="375" y="-3" on="1"/>
        <pt x="398" y="-3" on="0"/>
        <pt x="442" y="33" on="0"/>
        <pt x="442" y="51" on="1"/>
        <pt x="439" y="57" on="1"/>
        <pt x="428" y="66" on="0"/>
        <pt x="424" y="76" on="1"/>
        <pt x="424" y="80" on="1"/>
        <pt x="451" y="145" on="0"/>
        <pt x="451" y="164" on="1"/>
        <pt x="451" y="166" on="1"/>
        <pt x="453" y="174" on="0"/>
        <pt x="462" y="314" on="0"/>
        <pt x="462" y="394" on="1"/>
        <pt x="462" y="576" on="0"/>
        <pt x="404" y="656" on="1"/>
        <pt x="386" y="681" on="0"/>
        <pt x="331" y="706" on="0"/>
        <pt x="294" y="709" on="0"/>
        <pt x="263" y="709" on="1"/>
        <pt x="96" y="709" on="0"/>
        <pt x="58" y="620" on="1"/>
        <pt x="34" y="562" on="0"/>
        <pt x="34" y="406" on="1"/>
      </contour>
      <contour>
        <pt x="338" y="188" on="1"/>
        <pt x="338" y="187" on="0"/>
        <pt x="339" y="182" on="1"/>
        <pt x="333" y="180" on="0"/>
        <pt x="331" y="178" on="1"/>
        <pt x="324" y="185" on="0"/>
        <pt x="305" y="219" on="0"/>
        <pt x="297" y="227" on="1"/>
        <pt x="290" y="227" on="1"/>
        <pt x="288" y="226" on="0"/>
        <pt x="282" y="224" on="0"/>
        <pt x="265" y="207" on="0"/>
        <pt x="234" y="189" on="0"/>
        <pt x="231" y="183" on="1"/>
        <pt x="231" y="158" on="0"/>
        <pt x="264" y="128" on="1"/>
        <pt x="271" y="121" on="0"/>
        <pt x="273" y="119" on="1"/>
        <pt x="269" y="109" on="0"/>
        <pt x="258" y="109" on="1"/>
        <pt x="155" y="109" on="0"/>
        <pt x="146" y="229" on="1"/>
        <pt x="144" y="248" on="0"/>
        <pt x="144" y="316" on="0"/>
        <pt x="148" y="327" on="1"/>
        <pt x="145" y="373" on="1"/>
        <pt x="145" y="485" on="0"/>
        <pt x="178" y="572" on="0"/>
        <pt x="229" y="572" on="1"/>
        <pt x="291" y="572" on="0"/>
        <pt x="322" y="538" on="1"/>
        <pt x="344" y="513" on="0"/>
        <pt x="347" y="450" on="1"/>
        <pt x="348" y="430" on="0"/>
        <pt x="348" y="393" on="1"/>
        <pt x="351" y="307" on="1"/>
      </contour>
      <contour>
        <pt x="160" y="359" on="1"/>
        <pt x="155" y="252" on="1"/>
        <pt x="155" y="190" on="0"/>
        <pt x="196" y="120" on="0"/>
        <pt x="258" y="120" on="1"/>
        <pt x="220" y="158" on="0"/>
        <pt x="220" y="180" on="1"/>
        <pt x="220" y="196" on="0"/>
        <pt x="244" y="208" on="1"/>
        <pt x="261" y="217" on="0"/>
        <pt x="268" y="224" on="1"/>
        <pt x="281" y="237" on="0"/>
        <pt x="303" y="237" on="0"/>
        <pt x="316" y="222" on="0"/>
        <pt x="328" y="197" on="0"/>
        <pt x="331" y="193" on="1"/>
        <pt x="331" y="237" on="0"/>
        <pt x="338" y="258" on="1"/>
        <pt x="337" y="275" on="1"/>
        <pt x="339" y="348" on="1"/>
        <pt x="339" y="413" on="1"/>
        <pt x="339" y="465" on="0"/>
        <pt x="328" y="503" on="0"/>
        <pt x="313" y="536" on="0"/>
        <pt x="302" y="544" on="1"/>
        <pt x="275" y="562" on="0"/>
        <pt x="187" y="562" on="0"/>
        <pt x="156" y="500" on="0"/>
        <pt x="156" y="418" on="1"/>
      </contour>
    </TTGlyph>
    <TTGlyph name="R" xMin="28" yMin="-7" xMax="522" yMax="724">
      <contour>
        <pt x="522" y="2" on="1"/>
        <pt x="522" y="2" on="0"/>
        <pt x="517" y="6" on="1"/>
        <pt x="517" y="-2" on="1"/>
        <pt x="350" y="-4" on="1"/>
        <pt x="348" y="-3" on="0"/>
        <pt x="346" y="-1" on="1"/>
        <pt x="336" y="19" on="0"/>
        <pt x="294" y="111" on="0"/>
        <pt x="273" y="150" on="0"/>
        <pt x="212" y="241" on="1"/>
        <pt x="208" y="216" on="0"/>
        <pt x="208" y="84" on="0"/>
        <pt x="219" y="11" on="1"/>
        <pt x="210" y="-7" on="0"/>
        <pt x="123" y="-7" on="1"/>
        <pt x="40" y="-5" on="1"/>
        <pt x="37" y="3" on="1"/>
        <pt x="36" y="1" on="1"/>
        <pt x="39" y="19" on="0"/>
        <pt x="39" y="56" on="1"/>
        <pt x="34" y="535" on="1"/>
        <pt x="34" y="658" on="0"/>
        <pt x="28" y="698" on="1"/>
        <pt x="29" y="699" on="0"/>
        <pt x="32" y="703" on="0"/>
        <pt x="33" y="704" on="1"/>
        <pt x="145" y="724" on="0"/>
        <pt x="276" y="724" on="0"/>
        <pt x="374" y="698" on="0"/>
        <pt x="457" y="647" on="0"/>
        <pt x="506" y="560" on="0"/>
        <pt x="506" y="426" on="0"/>
        <pt x="418" y="305" on="0"/>
        <pt x="345" y="301" on="1"/>
        <pt x="365" y="267" on="0"/>
        <pt x="405" y="208" on="1"/>
        <pt x="493" y="80" on="0"/>
      </contour>
      <contour>
        <pt x="333" y="305" on="1"/>
        <pt x="338" y="311" on="1"/>
        <pt x="409" y="311" on="0"/>
        <pt x="496" y="428" on="0"/>
        <pt x="496" y="561" on="0"/>
        <pt x="446" y="648" on="0"/>
        <pt x="405" y="670" on="1"/>
        <pt x="328" y="713" on="0"/>
        <pt x="232" y="713" on="1"/>
        <pt x="213" y="713" on="0"/>
        <pt x="175" y="710" on="0"/>
        <pt x="91" y="705" on="0"/>
        <pt x="39" y="695" on="1"/>
        <pt x="41" y="679" on="0"/>
        <pt x="41" y="672" on="1"/>
        <pt x="50" y="48" on="1"/>
        <pt x="50" y="26" on="0"/>
        <pt x="47" y="5" on="1"/>
        <pt x="128" y="3" on="1"/>
        <pt x="178" y="3" on="0"/>
        <pt x="209" y="14" on="1"/>
        <pt x="198" y="104" on="0"/>
        <pt x="198" y="226" on="0"/>
        <pt x="204" y="256" on="1"/>
        <pt x="213" y="258" on="1"/>
        <pt x="273" y="171" on="0"/>
        <pt x="301" y="117" on="0"/>
        <pt x="342" y="28" on="0"/>
        <pt x="353" y="6" on="1"/>
        <pt x="379" y="6" on="0"/>
        <pt x="483" y="8" on="0"/>
        <pt x="509" y="8" on="1"/>
        <pt x="482" y="74" on="0"/>
        <pt x="390" y="214" on="1"/>
        <pt x="386" y="220" on="0"/>
        <pt x="370" y="240" on="1"/>
        <pt x="336" y="284" on="0"/>
      </contour>
      <contour>
        <pt x="174" y="526" on="1"/>
        <pt x="175" y="544" on="1"/>
        <pt x="177" y="564" on="1"/>
        <pt x="214" y="580" on="0"/>
        <pt x="287" y="580" on="0"/>
        <pt x="333" y="534" on="0"/>
        <pt x="333" y="469" on="0"/>
        <pt x="294" y="426" on="0"/>
        <pt x="256" y="426" on="1"/>
        <pt x="184" y="431" on="1"/>
        <pt x="173" y="442" on="0"/>
        <pt x="173" y="466" on="1"/>
        <pt x="176" y="509" on="1"/>
      </contour>
      <contour>
        <pt x="186" y="521" on="1"/>
        <pt x="185" y="472" on="1"/>
        <pt x="185" y="456" on="0"/>
        <pt x="188" y="441" on="1"/>
        <pt x="216" y="435" on="0"/>
        <pt x="245" y="435" on="1"/>
        <pt x="324" y="435" on="0"/>
        <pt x="324" y="498" on="1"/>
        <pt x="324" y="539" on="0"/>
        <pt x="292" y="559" on="1"/>
        <pt x="273" y="569" on="0"/>
        <pt x="217" y="569" on="0"/>
        <pt x="184" y="555" on="1"/>
        <pt x="184" y="549" on="1"/>
        <pt x="186" y="545" on="0"/>
      </contour>
    </TTGlyph>
    <TTGlyph name="S" xMin="7" yMin="-11" xMax="472" yMax="705">
      <contour>
        <pt x="468" y="474" on="1"/>
        <pt x="455" y="461" on="0"/>
        <pt x="343" y="461" on="0"/>
        <pt x="310" y="470" on="1"/>
        <pt x="307" y="476" on="1"/>
        <pt x="308" y="480" on="0"/>
        <pt x="308" y="486" on="1"/>
        <pt x="308" y="510" on="0"/>
        <pt x="270" y="540" on="0"/>
        <pt x="224" y="540" on="0"/>
        <pt x="190" y="512" on="0"/>
        <pt x="190" y="468" on="0"/>
        <pt x="210" y="446" on="0"/>
        <pt x="231" y="440" on="0"/>
        <pt x="269" y="434" on="0"/>
        <pt x="274" y="432" on="1"/>
        <pt x="364" y="408" on="0"/>
        <pt x="467" y="284" on="0"/>
        <pt x="467" y="206" on="1"/>
        <pt x="467" y="104" on="0"/>
        <pt x="339" y="-11" on="0"/>
        <pt x="153" y="-11" on="0"/>
        <pt x="7" y="98" on="0"/>
        <pt x="7" y="188" on="1"/>
        <pt x="7" y="201" on="0"/>
        <pt x="18" y="213" on="0"/>
        <pt x="30" y="214" on="0"/>
        <pt x="163" y="214" on="0"/>
        <pt x="170" y="207" on="1"/>
        <pt x="172" y="179" on="0"/>
        <pt x="212" y="148" on="0"/>
        <pt x="262" y="148" on="0"/>
        <pt x="296" y="175" on="0"/>
        <pt x="296" y="222" on="0"/>
        <pt x="276" y="255" on="0"/>
        <pt x="234" y="274" on="0"/>
        <pt x="202" y="284" on="0"/>
        <pt x="146" y="295" on="0"/>
        <pt x="137" y="297" on="1"/>
        <pt x="89" y="308" on="0"/>
        <pt x="17" y="419" on="0"/>
        <pt x="17" y="471" on="1"/>
        <pt x="17" y="571" on="0"/>
        <pt x="146" y="705" on="0"/>
        <pt x="252" y="705" on="1"/>
        <pt x="340" y="705" on="0"/>
        <pt x="472" y="612" on="0"/>
        <pt x="472" y="526" on="1"/>
        <pt x="472" y="510" on="0"/>
      </contour>
      <contour>
        <pt x="319" y="489" on="1"/>
        <pt x="318" y="479" on="1"/>
        <pt x="348" y="470" on="0"/>
        <pt x="406" y="470" on="0"/>
        <pt x="458" y="478" on="1"/>
        <pt x="463" y="506" on="0"/>
        <pt x="463" y="528" on="1"/>
        <pt x="463" y="606" on="0"/>
        <pt x="333" y="696" on="0"/>
        <pt x="153" y="696" on="0"/>
        <pt x="27" y="568" on="0"/>
        <pt x="27" y="477" on="1"/>
        <pt x="27" y="427" on="0"/>
        <pt x="91" y="319" on="0"/>
        <pt x="138" y="307" on="1"/>
        <pt x="148" y="304" on="0"/>
        <pt x="193" y="296" on="0"/>
        <pt x="224" y="290" on="0"/>
        <pt x="265" y="274" on="0"/>
        <pt x="277" y="264" on="1"/>
        <pt x="307" y="241" on="0"/>
        <pt x="307" y="171" on="0"/>
        <pt x="265" y="138" on="0"/>
        <pt x="208" y="138" on="0"/>
        <pt x="162" y="172" on="0"/>
        <pt x="160" y="202" on="1"/>
        <pt x="57" y="204" on="1"/>
        <pt x="30" y="204" on="0"/>
        <pt x="17" y="202" on="1"/>
        <pt x="17" y="109" on="0"/>
        <pt x="151" y="0" on="0"/>
        <pt x="335" y="0" on="0"/>
        <pt x="457" y="108" on="0"/>
        <pt x="457" y="205" on="1"/>
        <pt x="457" y="269" on="0"/>
        <pt x="384" y="375" on="0"/>
        <pt x="320" y="406" on="1"/>
        <pt x="308" y="412" on="0"/>
        <pt x="228" y="425" on="0"/>
        <pt x="180" y="454" on="0"/>
        <pt x="180" y="516" on="0"/>
        <pt x="219" y="549" on="0"/>
        <pt x="274" y="549" on="0"/>
        <pt x="319" y="515" on="0"/>
      </contour>
    </TTGlyph>
    <TTGlyph name="Scaron" xMin="7" yMin="-11" xMax="472" yMax="925">
      <contour>
        <pt x="422" y="912" on="1"/>
        <pt x="253" y="745" on="1"/>
        <pt x="248" y="745" on="0"/>
        <pt x="246" y="744" on="1"/>
        <pt x="126" y="851" on="0"/>
        <pt x="78" y="914" on="1"/>
        <pt x="179" y="921" on="1"/>
        <pt x="193" y="922" on="0"/>
        <pt x="213" y="907" on="0"/>
        <pt x="236" y="878" on="0"/>
        <pt x="246" y="871" on="1"/>
        <pt x="252" y="877" on="0"/>
        <pt x="274" y="902" on="0"/>
        <pt x="280" y="908" on="1"/>
        <pt x="297" y="925" on="0"/>
        <pt x="323" y="925" on="1"/>
      </contour>
      <contour>
        <pt x="400" y="905" on="1"/>
        <pt x="324" y="911" on="1"/>
        <pt x="302" y="911" on="0"/>
        <pt x="277" y="894" on="0"/>
        <pt x="255" y="867" on="0"/>
        <pt x="244" y="861" on="1"/>
        <pt x="236" y="864" on="0"/>
        <pt x="204" y="898" on="0"/>
        <pt x="201" y="904" on="1"/>
        <pt x="199" y="906" on="0"/>
        <pt x="184" y="911" on="1"/>
        <pt x="174" y="911" on="1"/>
        <pt x="100" y="905" on="0"/>
        <pt x="97" y="905" on="1"/>
        <pt x="147" y="844" on="0"/>
        <pt x="249" y="755" on="1"/>
        <pt x="349" y="855" on="0"/>
      </contour>
      <contour>
        <pt x="244" y="871" on="1"/>
        <pt x="245" y="871" on="1"/>
      </contour>
      <contour>
        <pt x="468" y="474" on="1"/>
        <pt x="455" y="461" on="0"/>
        <pt x="343" y="461" on="0"/>
        <pt x="310" y="470" on="1"/>
        <pt x="307" y="476" on="1"/>
        <pt x="308" y="480" on="0"/>
        <pt x="308" y="486" on="1"/>
        <pt x="308" y="510" on="0"/>
        <pt x="270" y="540" on="0"/>
        <pt x="224" y="540" on="0"/>
        <pt x="190" y="512" on="0"/>
        <pt x="190" y="468" on="0"/>
        <pt x="210" y="446" on="0"/>
        <pt x="231" y="440" on="0"/>
        <pt x="269" y="434" on="0"/>
        <pt x="274" y="432" on="1"/>
        <pt x="364" y="408" on="0"/>
        <pt x="467" y="284" on="0"/>
        <pt x="467" y="206" on="1"/>
        <pt x="467" y="104" on="0"/>
        <pt x="339" y="-11" on="0"/>
        <pt x="153" y="-11" on="0"/>
        <pt x="7" y="98" on="0"/>
        <pt x="7" y="188" on="1"/>
        <pt x="7" y="201" on="0"/>
        <pt x="18" y="213" on="0"/>
        <pt x="30" y="214" on="0"/>
        <pt x="163" y="214" on="0"/>
        <pt x="170" y="207" on="1"/>
        <pt x="172" y="179" on="0"/>
        <pt x="212" y="148" on="0"/>
        <pt x="262" y="148" on="0"/>
        <pt x="296" y="175" on="0"/>
        <pt x="296" y="222" on="0"/>
        <pt x="276" y="255" on="0"/>
        <pt x="234" y="274" on="0"/>
        <pt x="202" y="284" on="0"/>
        <pt x="146" y="295" on="0"/>
        <pt x="137" y="297" on="1"/>
        <pt x="89" y="308" on="0"/>
        <pt x="17" y="419" on="0"/>
        <pt x="17" y="471" on="1"/>
        <pt x="17" y="571" on="0"/>
        <pt x="146" y="705" on="0"/>
        <pt x="252" y="705" on="1"/>
        <pt x="340" y="705" on="0"/>
        <pt x="472" y="612" on="0"/>
        <pt x="472" y="526" on="1"/>
        <pt x="472" y="510" on="0"/>
      </contour>
      <contour>
        <pt x="319" y="489" on="1"/>
        <pt x="318" y="479" on="1"/>
        <pt x="348" y="470" on="0"/>
        <pt x="406" y="470" on="0"/>
        <pt x="458" y="478" on="1"/>
        <pt x="463" y="506" on="0"/>
        <pt x="463" y="528" on="1"/>
        <pt x="463" y="606" on="0"/>
        <pt x="333" y="696" on="0"/>
        <pt x="153" y="696" on="0"/>
        <pt x="27" y="568" on="0"/>
        <pt x="27" y="477" on="1"/>
        <pt x="27" y="427" on="0"/>
        <pt x="91" y="319" on="0"/>
        <pt x="138" y="307" on="1"/>
        <pt x="148" y="304" on="0"/>
        <pt x="193" y="296" on="0"/>
        <pt x="224" y="290" on="0"/>
        <pt x="265" y="274" on="0"/>
        <pt x="277" y="264" on="1"/>
        <pt x="307" y="241" on="0"/>
        <pt x="307" y="171" on="0"/>
        <pt x="265" y="138" on="0"/>
        <pt x="208" y="138" on="0"/>
        <pt x="162" y="172" on="0"/>
        <pt x="160" y="202" on="1"/>
        <pt x="57" y="204" on="1"/>
        <pt x="30" y="204" on="0"/>
        <pt x="17" y="202" on="1"/>
        <pt x="17" y="109" on="0"/>
        <pt x="151" y="0" on="0"/>
        <pt x="335" y="0" on="0"/>
        <pt x="457" y="108" on="0"/>
        <pt x="457" y="205" on="1"/>
        <pt x="457" y="269" on="0"/>
        <pt x="384" y="375" on="0"/>
        <pt x="320" y="406" on="1"/>
        <pt x="308" y="412" on="0"/>
        <pt x="228" y="425" on="0"/>
        <pt x="180" y="454" on="0"/>
        <pt x="180" y="516" on="0"/>
        <pt x="219" y="549" on="0"/>
        <pt x="274" y="549" on="0"/>
        <pt x="319" y="515" on="0"/>
      </contour>
    </TTGlyph>
    <TTGlyph name="T" xMin="3" yMin="-6" xMax="438" yMax="710">
      <contour>
        <pt x="226" y="710" on="1"/>
        <pt x="360" y="710" on="0"/>
        <pt x="438" y="702" on="1"/>
        <pt x="438" y="600" on="1"/>
        <pt x="438" y="555" on="0"/>
        <pt x="428" y="535" on="1"/>
        <pt x="411" y="539" on="0"/>
        <pt x="388" y="539" on="1"/>
        <pt x="307" y="535" on="1"/>
        <pt x="307" y="535" on="0"/>
        <pt x="305" y="416" on="1"/>
        <pt x="312" y="6" on="1"/>
        <pt x="308" y="-4" on="0"/>
        <pt x="269" y="-4" on="1"/>
        <pt x="190" y="-1" on="1"/>
        <pt x="163" y="-1" on="0"/>
        <pt x="144" y="-6" on="1"/>
        <pt x="136" y="-1" on="0"/>
        <pt x="136" y="15" on="1"/>
        <pt x="139" y="129" on="1"/>
        <pt x="139" y="425" on="0"/>
        <pt x="136" y="525" on="1"/>
        <pt x="110" y="538" on="0"/>
        <pt x="75" y="538" on="1"/>
        <pt x="26" y="537" on="1"/>
        <pt x="3" y="537" on="0"/>
        <pt x="3" y="578" on="1"/>
        <pt x="4" y="604" on="1"/>
        <pt x="4" y="653" on="1"/>
        <pt x="4" y="692" on="0"/>
        <pt x="6" y="703" on="1"/>
        <pt x="5" y="703" on="1"/>
        <pt x="10" y="709" on="1"/>
      </contour>
      <contour>
        <pt x="189" y="8" on="1"/>
        <pt x="259" y="6" on="1"/>
        <pt x="282" y="6" on="0"/>
        <pt x="301" y="10" on="1"/>
        <pt x="295" y="145" on="0"/>
        <pt x="295" y="489" on="1"/>
        <pt x="295" y="522" on="1"/>
        <pt x="295" y="538" on="0"/>
        <pt x="297" y="538" on="1"/>
        <pt x="297" y="537" on="1"/>
        <pt x="297" y="549" on="0"/>
        <pt x="376" y="549" on="1"/>
        <pt x="408" y="549" on="0"/>
        <pt x="424" y="546" on="1"/>
        <pt x="428" y="582" on="0"/>
        <pt x="428" y="669" on="0"/>
        <pt x="427" y="690" on="1"/>
        <pt x="331" y="700" on="0"/>
        <pt x="181" y="700" on="1"/>
        <pt x="15" y="699" on="1"/>
        <pt x="11" y="683" on="0"/>
        <pt x="11" y="563" on="0"/>
        <pt x="18" y="549" on="1"/>
        <pt x="30" y="546" on="0"/>
        <pt x="46" y="546" on="1"/>
        <pt x="86" y="547" on="1"/>
        <pt x="106" y="547" on="0"/>
        <pt x="148" y="535" on="0"/>
        <pt x="148" y="523" on="1"/>
        <pt x="146" y="406" on="1"/>
        <pt x="149" y="130" on="1"/>
        <pt x="145" y="36" on="1"/>
        <pt x="145" y="23" on="0"/>
        <pt x="147" y="5" on="1"/>
        <pt x="161" y="8" on="0"/>
      </contour>
      <contour>
        <pt x="300" y="543" on="1"/>
        <pt x="300" y="542" on="0"/>
        <pt x="299" y="542" on="1"/>
        <pt x="299" y="542" on="0"/>
        <pt x="299" y="542" on="1"/>
      </contour>
      <contour>
        <pt x="5" y="704" on="1"/>
        <pt x="5" y="703" on="1"/>
      </contour>
    </TTGlyph>
</ttFont>
